<svg width="512" height="512" viewBox="0 0 512 512" fill="none" xmlns="http://www.w3.org/2000/svg">
<g clip-path="url(#clip0_2050_338)">
<path d="M494.723 84.7639C483.056 71.8222 466.864 63.8551 449.491 62.5079C448.145 45.1351 440.178 28.943 427.235 17.2759C414.649 6.10728 398.391 -0.0369118 381.563 0.0154689C364.736 0.0678496 348.516 6.31313 335.999 17.5599C326.566 26.099 319.731 37.1248 316.279 49.3719C312.827 61.619 312.898 74.5913 316.483 86.7999C319.03 95.0663 319.314 103.864 317.307 112.277C315.3 120.691 311.075 128.413 305.071 134.64L134.623 305.072C128.399 311.075 120.68 315.299 112.269 317.307C103.858 319.314 95.0633 319.03 86.7994 316.484C74.5908 312.897 61.6183 312.826 49.371 316.278C37.1237 319.73 26.0979 326.566 17.5594 336C6.31208 348.516 0.0663857 364.735 0.014004 381.562C-0.0383776 398.389 6.10622 414.646 17.2754 427.232C28.9407 440.177 45.1338 448.144 62.5074 449.488C63.2553 458.965 65.9834 468.181 70.5155 476.538C75.0476 484.895 81.2828 492.208 88.8181 498.005C96.3534 503.802 105.021 507.953 114.261 510.19C123.501 512.427 133.108 512.701 142.46 510.993C151.812 509.285 160.702 505.634 168.555 500.276C176.408 494.917 183.05 487.97 188.05 479.885C193.05 471.799 196.298 462.754 197.584 453.334C198.87 443.915 198.165 434.33 195.515 425.2C192.969 416.934 192.685 408.136 194.692 399.722C196.699 391.309 200.924 383.587 206.927 377.36L377.375 206.928C383.603 200.924 391.325 196.698 399.74 194.691C408.154 192.684 416.952 192.969 425.219 195.516C437.425 199.099 450.394 199.169 462.637 195.717C474.881 192.265 485.903 185.431 494.439 176C505.686 163.483 511.932 147.264 511.984 130.436C512.036 113.609 505.892 97.3507 494.723 84.7639ZM484.095 166.564C477.313 174.055 468.557 179.482 458.831 182.224C449.105 184.967 438.804 184.912 429.107 182.068C418.435 178.826 407.088 178.504 396.249 181.136C385.409 183.768 375.473 189.257 367.475 197.032L197.031 367.48C189.253 375.476 183.762 385.412 181.13 396.252C178.498 407.092 178.822 418.44 182.067 429.112C184.913 438.809 184.968 449.111 182.225 458.837C179.482 468.563 174.052 477.319 166.559 484.1C158.747 491.224 149.012 495.895 138.566 497.53C128.12 499.165 117.424 497.694 107.808 493.298C98.1915 488.903 90.0797 481.777 84.4811 472.808C78.8825 463.839 76.0443 453.422 76.3194 442.852C76.3413 441.919 76.1764 440.99 75.8345 440.122C75.4926 439.253 74.9806 438.461 74.3285 437.793C73.6764 437.125 72.8974 436.594 72.0372 436.231C71.177 435.868 70.253 435.681 69.3194 435.68H69.1474C61.3563 435.893 53.612 434.409 46.451 431.332C39.2901 428.255 32.8836 423.658 27.6754 417.86C18.8094 407.869 13.9317 394.964 13.973 381.607C14.0144 368.25 18.9718 355.375 27.8994 345.44C34.6799 337.947 43.4358 332.517 53.162 329.774C62.8883 327.031 73.1909 327.086 82.8874 329.932C93.5597 333.179 104.908 333.503 115.748 330.871C126.589 328.239 136.524 322.747 144.519 314.968L314.967 144.52C322.745 136.524 328.236 126.588 330.868 115.748C333.499 104.908 333.174 93.56 329.927 82.8879C327.084 73.1912 327.03 62.8893 329.773 53.1635C332.516 43.4377 337.944 34.6819 345.435 27.8999C353.249 20.7768 362.984 16.1075 373.43 14.4726C383.876 12.8377 394.572 14.3093 404.188 18.7045C413.805 23.0997 421.917 30.2245 427.517 39.1931C433.116 48.1616 435.956 58.5783 435.683 69.1479C435.659 70.0957 435.829 71.0384 436.181 71.9186C436.533 72.7989 437.06 73.5982 437.731 74.2679C438.403 74.9363 439.203 75.4624 440.083 75.815C440.962 76.1675 441.904 76.3393 442.851 76.3199C453.421 76.0449 463.839 78.8834 472.809 84.4825C481.778 90.0816 488.904 98.1941 493.299 107.811C497.694 117.428 499.165 128.125 497.528 138.571C495.892 149.017 491.221 158.752 484.095 166.564Z" fill="#4E4E4E"/>
<path d="M454.52 111.6C453.837 112.215 453.282 112.96 452.886 113.79C452.491 114.62 452.263 115.52 452.215 116.438C452.168 117.356 452.302 118.275 452.609 119.141C452.917 120.008 453.392 120.805 454.008 121.488C456.091 123.944 457.23 127.063 457.221 130.284C457.211 133.504 456.054 136.616 453.956 139.06C452.285 140.888 450.137 142.214 447.753 142.889C445.37 143.564 442.846 143.561 440.464 142.88C438.689 142.392 436.794 142.623 435.188 143.523C433.583 144.422 432.396 145.918 431.885 147.686C431.374 149.454 431.579 151.352 432.457 152.969C433.335 154.587 434.815 155.793 436.576 156.328C439.056 157.036 441.624 157.393 444.204 157.388C447.991 157.41 451.739 156.629 455.202 155.097C458.666 153.565 461.765 151.317 464.296 148.5C468.714 143.472 471.16 137.014 471.181 130.321C471.201 123.628 468.795 117.155 464.408 112.1C463.162 110.723 461.421 109.897 459.567 109.803C457.713 109.71 455.898 110.356 454.52 111.6Z" fill="#4E4E4E"/>
</g>
<defs>
<clipPath id="clip0_2050_338">
<rect width="512" height="512" fill="white"/>
</clipPath>
</defs>
</svg>
