<svg width="512" height="512" viewBox="0 0 512 512" fill="none" xmlns="http://www.w3.org/2000/svg">
<path d="M202 512H180.667V416H148.667C136.933 416 126.267 411.733 118.8 403.2C110.267 395.733 106 385.067 106 373.333V320H52.6667C46.2667 320 42 315.733 42 309.333V298.667C42 296.533 42 295.467 43.0667 293.333L106 178.133C107.067 80 188.133 0 287.333 0V21.3333C198.8 21.3333 127.333 92.8 127.333 181.333C127.333 183.467 127.333 184.533 126.267 186.667L64.4 298.667H116.667C123.067 298.667 127.333 302.933 127.333 309.333V373.333C127.333 378.667 129.467 384 133.733 388.267C138 392.533 143.333 394.667 148.667 394.667H191.333C197.733 394.667 202 398.933 202 405.333V512ZM404.667 512H383.333V426.667C383.333 392.533 392.933 363.733 403.6 337.067L423.867 345.6C413.2 369.067 404.667 395.733 404.667 426.667V512Z" fill="#4E4E4E"/>
<path d="M276.666 362.667C272.399 362.667 268.133 360.533 267.066 356.267L260.666 339.2C251.066 337.067 241.466 334.933 232.933 331.733L219.066 343.467C215.866 346.667 210.533 346.667 207.333 344.533L189.199 333.867C184.933 331.733 183.866 327.467 183.866 323.2L185.999 305.067C178.533 298.667 172.133 292.267 165.733 284.8L147.599 286.933C143.333 288 139.066 285.867 136.933 281.6L126.266 263.467C124.133 259.2 124.133 254.933 127.333 251.733L142.266 232.533L159.333 245.333L148.666 259.2L151.866 265.6L168.933 263.467C173.199 263.467 176.399 264.533 178.533 267.733C185.999 277.333 194.533 285.867 204.133 293.333C207.333 295.467 208.399 299.733 208.399 302.933L206.266 320L212.666 323.2L226.533 312.533C229.733 310.4 233.999 309.333 237.199 311.467C247.866 315.733 259.599 318.933 271.333 321.067C275.599 321.067 278.799 324.267 279.866 327.467L286.266 343.467H292.666L299.066 327.467C300.133 324.267 303.333 321.067 307.599 321.067C319.333 318.933 331.066 316.8 341.733 311.467C344.933 310.4 349.199 310.4 352.399 312.533L366.266 323.2L372.666 320L370.533 302.933C369.466 298.667 371.599 295.467 374.799 293.333C384.399 285.867 392.933 277.333 400.399 267.733C402.533 264.533 406.799 263.467 409.999 263.467L427.066 265.6L430.266 259.2L419.599 245.333C417.466 242.133 416.399 237.867 418.533 234.667C422.799 224 425.999 212.267 428.133 200.533C428.133 196.267 431.333 193.067 434.533 192L450.533 185.6V179.2L434.533 172.8C431.333 171.733 428.133 168.533 428.133 164.267C425.999 152.533 423.866 140.8 418.533 130.133C417.466 126.933 417.466 122.667 419.599 119.467L430.266 105.6L427.066 99.2L409.999 101.333C405.733 101.333 402.533 100.267 400.399 97.0666C392.933 87.4666 384.399 78.9333 374.799 71.4666C371.599 69.3333 370.533 65.0666 370.533 61.8666L372.666 44.8L366.266 41.6L352.399 52.2666C349.199 54.4 344.933 55.4666 341.733 53.3333C331.066 49.0666 319.333 45.8666 307.599 43.7333L310.799 22.4C322.533 23.4666 334.266 26.6666 344.933 30.9333L358.799 19.2C361.999 16 367.333 16 370.533 18.1333L388.666 28.8C392.933 30.9333 393.999 35.2 393.999 39.4666L391.866 57.6C399.333 64 405.733 70.4 412.133 77.8666L430.266 75.7333C434.533 74.6666 438.799 76.8 440.933 81.0666L451.599 99.2C453.733 103.467 453.733 107.733 450.533 110.933L438.799 125.867C441.999 134.4 444.133 144 446.266 153.6L463.333 160C467.599 162.133 469.733 165.333 469.733 169.6V190.933C469.733 195.2 467.599 199.467 463.333 200.533L446.266 206.933C444.133 216.533 441.999 226.133 438.799 234.667L450.533 248.533C453.733 251.733 453.733 257.067 451.599 260.267L440.933 278.4C438.799 282.667 434.533 283.733 430.266 283.733L412.133 281.6C405.733 289.067 399.333 295.467 391.866 301.867L393.999 320C395.066 324.267 392.933 328.533 388.666 330.667L370.533 341.333C366.266 343.467 361.999 343.467 358.799 340.267L344.933 328.533C336.399 331.733 326.799 333.867 317.199 336L310.799 353.067C306.533 359.467 302.266 362.667 297.999 362.667H276.666Z" fill="#4E4E4E"/>
<path d="M276.667 64H298V85.3333H276.667V64ZM233.051 77.248L252.763 69.0773L260.933 88.7893L241.221 96.96L233.051 77.248ZM196.485 105.813L211.6 90.7307L226.683 105.835L211.579 120.917L196.485 105.813ZM175.237 145.877L183.408 126.165L203.12 134.336L194.949 154.048L175.237 145.877ZM170 170.667H191.333V192H170V170.667ZM287.333 234.667C257.467 234.667 234 211.2 234 181.333C234 151.467 257.467 128 287.333 128C317.2 128 340.667 151.467 340.667 181.333C340.667 211.2 317.2 234.667 287.333 234.667ZM287.333 149.333C269.2 149.333 255.333 163.2 255.333 181.333C255.333 199.467 269.2 213.333 287.333 213.333C305.467 213.333 319.333 199.467 319.333 181.333C319.333 163.2 305.467 149.333 287.333 149.333ZM287.333 298.667V277.333C340.667 277.333 383.333 234.667 383.333 181.333H404.667C404.667 246.4 352.4 298.667 287.333 298.667Z" fill="#4E4E4E"/>
</svg>
