<svg width="480" height="430" viewBox="0 0 480 430" fill="none" xmlns="http://www.w3.org/2000/svg">
<path d="M92.1603 83C91.6803 89.72 92.8003 96.36 95.3603 102.52C96.0803 104.44 96.8803 106.2 97.8403 107.96C95.295 113.083 93.7732 118.654 93.3603 124.36C91.2803 151.4 113.52 175.16 142.96 177.4C148.4 177.8 153.84 177.4 159.12 176.36C163.52 185.24 172.8 191.4 183.44 192.2C189.84 192.68 196.08 191.24 201.36 188.04C204.895 192.285 209.242 195.781 214.146 198.323C219.051 200.865 224.414 202.4 229.92 202.84C236.48 203.32 243.04 202.28 249.04 199.72C255.52 210.92 269.04 218.68 284.16 219.88C285.52 219.96 286.8 220.04 288.16 220.04C297.52 220.04 306.48 217.48 313.68 212.76C319.68 208.76 324.08 203.64 326.48 197.72C329.84 199 333.28 199.8 336.96 200.04C356.48 201.56 373.36 188.2 374.72 170.36C375.28 163.48 373.36 156.6 369.36 150.76C377.52 145.16 382.72 135.72 383.6 125C384.16 117.8 382.56 110.6 379.04 104.6C382.4 100.12 384.4 94.92 384.8 89.56C386.16 71.32 369.44 55.08 347.44 53.4C346.48 53.4 345.6 53.32 344.64 53.24C344.48 43 339.68 33.24 330.88 25.48C321.84 17.48 309.52 12.52 296.16 11.56C282.72 10.52 269.6 13.72 259.52 20.2C257.114 16.4397 253.867 13.2901 250.035 10.9993C246.203 8.70859 241.892 7.33948 237.44 6.99998C232.8 6.59998 228.08 7.47997 223.84 9.31997C217.709 4.12026 210.095 0.985094 202.08 0.359976C189.12 -0.600024 176.48 5.15998 168.64 15.56C159.2 9.47998 147.44 9.55998 136.72 15.88C135.28 16.68 134 17.8 132.96 19.08C126.4 26.92 123.84 36.12 125.44 44.76C107.6 48.6 93.6003 63.8 92.1603 82.84V83ZM133.52 60.12C139.04 65.72 145.68 70.04 153.12 72.6C157.44 74.04 161.52 74.76 165.36 74.76C167.92 74.76 170.32 74.44 172.64 73.8C180.72 71.64 186.96 65.72 188.96 58.28C189.228 57.2662 189.294 56.2095 189.153 55.1704C189.013 54.1312 188.669 53.1299 188.142 52.2236C187.614 51.3173 186.913 50.5238 186.079 49.8883C185.245 49.2528 184.294 48.7879 183.28 48.52C182.266 48.2521 181.21 48.1865 180.171 48.3269C179.132 48.4674 178.13 48.8112 177.224 49.3386C176.318 49.866 175.524 50.5668 174.889 51.4009C174.253 52.2351 173.788 53.1862 173.52 54.2C173.04 56.04 171.04 57.72 168.56 58.36C165.76 59.08 162.24 58.76 158.24 57.4C152.96 55.56 148.08 52.36 144.24 48.2C144 47.8 143.92 47.48 143.6 47.08C141.68 44.6 138 37.88 144.8 29.72C150.56 26.36 156.32 26.28 160.72 29.56C163.92 31.96 167.84 32.92 171.68 32.2C175.36 31.56 178.56 29.48 180.56 26.36C182.33 23.6586 184.667 21.3752 187.409 19.6684C190.151 17.9616 193.231 16.8724 196.436 16.4765C199.642 16.0806 202.895 16.3876 205.969 17.376C209.044 18.3644 211.866 20.0105 214.24 22.2C218.48 26.04 224.56 26.92 229.76 24.28C231.84 23.24 234.08 22.84 236.32 23C240.8 23.32 244.64 25.96 246.72 29.88C247.36 31.08 248.16 32.12 249.04 33C250.72 37.08 252.16 41.24 252.8 45.32C253.52 50.12 252.88 54.44 251.04 57.48C249.36 60.2 246.24 61.96 243.76 61.56C241.694 61.2636 239.594 61.7872 237.909 63.0188C236.224 64.2504 235.088 66.0922 234.743 68.1506C234.398 70.209 234.873 72.3207 236.064 74.0341C237.256 75.7476 239.071 76.9269 241.12 77.32C242.24 77.48 243.36 77.56 244.4 77.56C252.24 77.56 260 73.16 264.56 65.88C268.48 59.64 269.92 51.4 268.56 42.84C268.16 39.96 267.36 37.24 266.56 34.6C266.64 34.6 266.8 34.52 266.88 34.44C274.16 29.16 284.4 26.6 294.96 27.4C304.88 28.12 313.84 31.72 320.32 37.4C326.16 42.52 329.12 48.76 328.64 55C328.64 55.4 328.48 55.8 328.4 56.2C318.4 61.4 311.04 71.64 310 82.92C308.72 96.92 317.2 111.16 330.08 116.76C331.12 117.24 332.16 117.4 333.28 117.4C336.4 117.4 339.36 115.56 340.64 112.6C341.066 111.64 341.296 110.605 341.316 109.555C341.337 108.506 341.148 107.462 340.761 106.486C340.373 105.511 339.795 104.622 339.06 103.872C338.325 103.122 337.448 102.527 336.48 102.12C329.84 99.24 325.28 91.64 326 84.44C326.56 78.36 330.8 72.6 336.4 70.04H337.04C340.16 69.32 343.28 69.08 346.32 69.32C359.28 70.28 369.68 79 368.96 88.36C368.8 90.92 367.68 93.32 365.84 95.56C362 100.2 361.6 106.76 364.88 111.96C367.04 115.32 368 119.48 367.68 123.8C367.2 129.96 364 135.48 359.36 138.2C355.84 140.2 353.36 143.72 352.64 147.72C351.92 151.64 352.96 155.64 355.44 158.68C357.2 160.84 359.28 164.44 358.88 169.08C358.16 178.12 348.96 184.76 338.32 184.04C332.48 183.56 328.32 181 325.92 178.84C323.44 176.68 319.92 176.28 317.04 177.72C315.621 178.447 314.451 179.582 313.681 180.979C312.911 182.376 312.577 183.971 312.72 185.56C312.72 186.28 312.8 186.92 312.72 187.64C312.4 192.12 309.6 196.2 304.96 199.24C299.68 202.68 292.72 204.28 285.44 203.8C275.04 203 265.76 197.64 262.32 190.44C261.6 189 260.64 187.8 259.6 186.76C255.92 180.44 255.6 171.88 259.28 165.56C263.28 158.68 272 154.36 280 155.4C284.32 155.88 288.4 152.84 288.96 148.44C289.52 144.04 286.4 140.04 282 139.48C267.76 137.72 252.72 145.08 245.52 157.48C240.72 165.72 239.6 175.8 241.76 185.08C238.4 186.28 234.8 187 231.2 186.76C227.642 186.491 224.183 185.467 221.051 183.757C217.92 182.046 215.189 179.688 213.04 176.84C208.48 170.76 200.08 169.4 194 173.72C191.36 175.56 188.08 176.44 184.72 176.2C179.68 175.8 175.36 173 173.52 169C173.36 168.52 173.36 167.96 173.12 167.48C169.52 160.44 171.28 150.76 177.04 145.4C180.24 142.36 180.48 137.32 177.44 134.12C174.4 130.92 169.36 130.68 166.16 133.72C158.72 140.68 154.96 150.76 155.36 160.76C151.76 161.48 148 161.8 144.24 161.48C123.6 159.88 108 143.8 109.36 125.56C109.44 124.28 109.76 123.08 110 121.88C115.44 126.28 121.52 129.56 126.88 131.32C127.68 131.56 128.56 131.72 129.36 131.72C132.72 131.72 135.84 129.56 136.96 126.2C137.288 125.202 137.416 124.149 137.336 123.102C137.257 122.054 136.97 121.033 136.495 120.096C136.019 119.159 135.363 118.326 134.564 117.644C133.765 116.961 132.84 116.444 131.84 116.12C124.4 113.64 116.96 107.88 112.8 101.72C112.56 101.24 112.4 100.76 112.16 100.36C109.04 95.56 107.6 89.96 108.08 84.2C109.12 70.76 120.08 60.6 133.44 60.12H133.52ZM68.4803 208.04L49.5203 147.08C47.9405 141.951 44.756 137.466 40.4354 134.283C36.1149 131.1 30.8866 129.388 25.5203 129.4C24.1603 129.4 22.6403 129.56 21.3603 129.8C7.76027 132.12 -1.51973 145.08 0.64027 158.76L15.9203 251C18.4072 266.165 25.6985 280.131 36.7203 290.84L97.1203 349.64C106.16 358.36 112.4 369.72 115.52 381.88C108.4 385.96 103.52 393.56 103.52 402.36V405.96C103.52 419 114.16 429.64 127.2 429.64H205.2C218.24 429.64 228.88 419 228.88 405.96V402.36C228.88 391.88 222 383.16 212.64 379.96L207.28 336.44C204.825 316.109 195.006 297.383 179.68 283.8C145.12 253.16 124.24 235.48 117.6 231.48C108.72 225.96 95.8403 227.64 87.2803 235C78.6403 228.04 72.0003 218.76 68.6403 208.12L68.4803 208.04ZM212.72 405.88C212.72 410.12 209.28 413.56 205.04 413.56H127.04C125.003 413.56 123.05 412.751 121.61 411.311C120.169 409.87 119.36 407.917 119.36 405.88V402.28C119.36 398.84 121.68 396.04 124.8 395.08C125.2 395.08 125.6 395.08 126 395C126.32 395 126.64 394.76 126.96 394.68H204.48C204.48 394.68 204.88 394.76 205.12 394.76H205.44C209.44 395 212.64 398.28 212.64 402.36V405.96L212.72 405.88ZM96.9603 247.48C100.48 243.96 106.16 243.32 109.04 245C114.64 248.44 136.48 266.92 168.88 295.72C181.294 306.728 189.26 321.892 191.28 338.36L196.24 378.6H131.36C127.6 363.24 119.52 349.08 108.24 338.04L47.8403 279.24C39.2915 270.906 33.6295 260.059 31.6803 248.28L16.4003 156.04C15.6003 151 18.8803 146.28 24.0803 145.48C28.5603 144.68 32.9603 147.56 34.2403 151.8L53.2003 212.76C57.6803 227.16 66.8003 239.8 78.8003 248.92C77.3603 255.48 78.1603 264.44 84.8803 275.48C102.16 303.56 120.88 324.2 121.68 325.08C122.384 325.857 123.234 326.489 124.182 326.937C125.13 327.386 126.157 327.644 127.204 327.696C128.252 327.748 129.299 327.593 130.287 327.241C131.274 326.888 132.183 326.344 132.96 325.64C133.738 324.936 134.369 324.086 134.818 323.138C135.267 322.19 135.524 321.163 135.576 320.116C135.628 319.068 135.474 318.021 135.121 317.033C134.768 316.046 134.224 315.137 133.52 314.36C133.36 314.12 114.96 293.88 98.5603 267.16C95.5203 262.2 91.3603 253.08 96.9603 247.48ZM443.2 290.84C454.221 280.13 461.512 266.165 464 251L479.28 158.68C481.44 145.08 472.16 132.12 458.72 129.8C446.32 127.56 434.08 135.16 430.4 147.08L411.44 208.04C408.036 218.653 401.547 228.011 392.8 234.92C384.24 227.56 371.36 225.88 362.48 231.32C355.84 235.4 334.88 253 300.4 283.64C285.04 297.24 275.28 315.88 272.72 336.28L267.36 379.8C262.638 381.345 258.524 384.343 255.607 388.366C252.691 392.389 251.12 397.231 251.12 402.2V405.8C251.12 418.84 261.76 429.48 274.8 429.48H352.8C365.84 429.48 376.48 418.84 376.48 405.8V402.2C376.48 393.4 371.6 385.8 364.48 381.72C367.6 369.56 373.84 358.2 382.88 349.48L443.2 290.68V290.84ZM360.48 405.96C360.48 410.2 357.04 413.64 352.8 413.64H274.8C272.763 413.64 270.81 412.831 269.37 411.391C267.929 409.95 267.12 407.997 267.12 405.96V402.36C267.12 398.28 270.32 395.08 274.32 394.76H274.64C274.88 394.76 275.04 394.68 275.28 394.68H352.8C352.8 394.68 353.44 395 353.76 395C354.16 395 354.56 395.08 354.96 395.08C358.08 396.04 360.4 398.84 360.4 402.28V405.88L360.48 405.96ZM348.56 378.68H283.68L288.64 338.44C290.626 321.961 298.598 306.786 311.04 295.8C343.44 267 365.28 248.52 370.88 245.08C373.68 243.4 379.44 244.04 382.88 247.56C388.56 253.16 384.32 262.28 381.36 267.24C364.96 293.96 346.56 314.28 346.4 314.44C344.979 316.01 344.239 318.081 344.344 320.196C344.449 322.311 345.39 324.298 346.96 325.72C348.53 327.142 350.601 327.881 352.716 327.776C354.832 327.671 356.819 326.73 358.24 325.16C359.04 324.28 377.76 303.64 395.04 275.48C401.76 264.44 402.56 255.56 401.12 248.92C413.207 239.823 422.156 227.183 426.72 212.76L445.68 151.8C446.88 148.04 450.48 145.4 454.4 145.4C454.88 145.4 455.36 145.4 455.92 145.56C460.96 146.44 464.32 151.08 463.52 156.12L448.24 248.44C446.306 260.201 440.64 271.027 432.08 279.32L371.68 338.12C360.34 349.218 352.332 363.268 348.56 378.68Z" fill="#4E4E4E"/>
</svg>
