<svg width="512" height="512" viewBox="0 0 512 512" fill="none" xmlns="http://www.w3.org/2000/svg">
<path d="M175.655 252.828C169.807 252.829 163.973 252.279 158.228 251.187L241.765 501.797C246.367 515.403 265.63 515.396 270.229 501.797L353.765 251.187C348.02 252.279 342.185 252.829 336.338 252.828H175.655ZM341.752 96.642C368.089 55.5558 337.276 -0.474023 288.134 0.00302595C279.85 0.00302595 273.133 6.71872 273.133 15.0046C273.133 24.4526 265.445 32.1404 255.981 32.1404C234.847 32.1404 187.885 45.1617 178.13 96.414H175.656C91.7543 99.7243 91.8813 219.574 175.656 222.826H336.34C417.036 220.045 421.379 106.138 341.752 96.642Z" fill="#009CD8"/>
</svg>
