<svg width="384" height="384" viewBox="0 0 384 384" fill="none" xmlns="http://www.w3.org/2000/svg">
<path d="M23.4879 318.656C-20.2881 250.069 -1.72805 146.069 72.1706 72.192C145.067 -0.703985 247.317 -19.8613 315.925 21.6534C323.499 34.688 326.592 45.6534 326.976 47.0614C331.477 61.2694 329.344 76.3307 320.683 91.8187C300.373 128.064 247.189 162.176 188.373 176.704C120.085 193.579 60.0746 232.896 35.5413 276.907C28.313 289.696 24.1847 303.982 23.4879 318.656ZM360.789 65.7707C360.017 80.4157 355.846 94.68 348.608 107.435C323.861 151.595 263.957 190.976 196.053 207.744C136.896 222.357 83.6053 256.405 63.488 292.48C54.8906 307.947 52.8426 323.029 57.4293 337.323C57.8346 338.752 60.8426 349.589 68.288 362.496C136.896 403.84 239.019 384.64 311.829 311.829C385.579 238.08 404.224 134.357 360.789 65.7707Z" fill="#4E4E4E"/>
</svg>
