<svg width="512" height="512" viewBox="0 0 512 512" fill="none" xmlns="http://www.w3.org/2000/svg">
<path d="M364.8 395.2C369.6 403.2 368 412.8 360 417.6C329.6 436.8 292.8 448 256 448C196.8 448 142.4 420.8 105.6 376L97.6 408C94.4 417.6 84.8 422.4 75.2 419.2C67.2 416 64 408 65.6 400L83.2 334.4C84.8 326.4 94.4 321.6 102.4 323.2C107.2 324.8 112 326.4 118.4 328C131.2 329.6 144 332.8 158.4 336C161.6 337.6 166.4 337.6 169.6 339.2C177.6 340.8 184 350.4 180.8 358.4C179.2 366.4 169.6 372.8 161.6 369.6L139.2 363.2C169.6 395.2 211.2 414.4 257.6 414.4C288 414.4 318.4 404.8 344 388.8C350.4 385.6 360 387.2 364.8 395.2ZM80 281.6C89.6 281.6 96 273.6 96 264V256C96 179.2 150.4 115.2 220.8 99.2L203.2 116.8C193.6 126.4 198.4 140.8 211.2 144C216 145.6 222.4 144 225.6 139.2L249.6 115.2L262.4 102.4C267.2 97.6 273.6 92.8 276.8 84.8C281.6 73.6 270.4 65.6 262.4 57.6C256 49.6 246.4 40 238.4 32L227.2 20.8C220.8 14.4 211.2 14.4 204.8 20.8C198.4 27.2 198.4 36.8 204.8 43.2L227.2 65.6C136 80 64 160 64 256V265.6C64 275.2 72 281.6 80 281.6ZM484.8 329.6C483.2 321.6 473.6 315.2 465.6 318.4L433.6 326.4C443.2 304 448 280 448 256C448 184 408 118.4 344 84.8C336 80 326.4 83.2 323.2 91.2C318.4 99.2 321.6 108.8 329.6 112C382.4 140.8 416 195.2 416 256C416 272 412.8 288 408 304L401.6 281.6C400 273.6 390.4 267.2 382.4 270.4C374.4 272 368 281.6 371.2 289.6L388.8 355.2C390.4 358.4 393.6 363.2 396.8 364.8C400 366.4 404.8 368 409.6 366.4L475.2 348.8C483.2 347.2 488 337.6 484.8 329.6Z" fill="#4E4E4E"/>
</svg>
