<svg width="394" height="512" viewBox="0 0 394 512" fill="none" xmlns="http://www.w3.org/2000/svg">
<path d="M212.533 14.6381C203.332 11.5651 193.471 9.93008 183.195 10.0031C132.827 10.3621 92.1057 51.3041 92.1057 101.757L74.2737 139.127C72.5897 142.657 75.1627 146.737 79.0747 146.737H94.9067V192.298C94.9067 206.074 106.075 217.241 119.85 217.241H151.412C151.412 235.708 136.442 250.678 117.975 250.678H65.2237C35.1417 250.678 9.92469 275.289 10.0887 305.37C10.1467 315.876 13.1827 325.676 18.3957 333.97V502H375.605V333.97C380.818 325.677 383.854 315.877 383.912 305.373C384.078 275.29 358.86 250.678 328.777 250.678H276.026C257.559 250.678 242.589 235.708 242.589 217.241V189.551C262.247 167.143 274.505 138.083 275.547 106.186C275.861 96.7891 274.765 87.3981 272.296 78.3261M322.249 496.496V377.396M71.7467 496.496V377.396" stroke="#1A9426" stroke-width="20" stroke-miterlimit="10" stroke-linecap="round" stroke-linejoin="round"/>
<path d="M167.525 436.534C168.461 441.024 170.97 445.032 174.6 447.834C198.32 466.083 232.436 465.023 255.014 443.917C265.042 434.542 271.278 422.63 273.656 410.103C276.285 396.253 268.647 382.495 255.533 377.321L255.485 377.302C254.873 377.062 254.253 376.843 253.626 376.646" stroke="#1A9426" stroke-width="20" stroke-miterlimit="10" stroke-linecap="round" stroke-linejoin="round"/>
<path d="M94.9062 173.829H163.904C184.9 173.829 201.921 190.85 201.921 211.846V350.725M233.634 352.713H220.43C214.208 352.713 208.158 354.755 203.209 358.526C199.119 354.787 193.779 352.713 188.237 352.713H154.186C130.899 352.713 112.02 371.591 112.02 394.879V413.995C112.02 437.244 136.941 451.986 157.316 440.79L188.964 423.401C197.152 418.902 203.675 411.887 207.568 403.394C217.131 403.394 226.447 400.364 234.18 394.738L244.791 387.019C247.21 385.259 249.179 382.952 250.536 380.287C251.894 377.621 252.601 374.672 252.601 371.68C252.602 361.205 244.109 352.713 233.634 352.713ZM281.443 467.463C278.673 455.499 266.103 448.471 254.541 452.609C239.924 457.84 224.175 460.692 207.758 460.692C191.341 460.692 175.593 457.84 160.975 452.609C149.413 448.471 136.843 455.5 134.073 467.463C131.712 477.661 137.339 488.048 147.198 491.566C166.127 498.32 186.512 502 207.759 502C229.006 502 249.392 498.32 268.318 491.566C278.177 488.048 283.804 477.662 281.443 467.463Z" stroke="#1A9426" stroke-width="20" stroke-miterlimit="10" stroke-linecap="round" stroke-linejoin="round"/>
</svg>
