<svg width="394" height="512" viewBox="0 0 394 512" fill="none" xmlns="http://www.w3.org/2000/svg">
<path d="M18.8955 333.826L18.8193 333.704C13.6545 325.486 10.6463 315.777 10.5889 305.367C10.4267 275.572 35.4102 251.178 65.2236 251.178H117.975C136.718 251.178 151.912 235.984 151.912 217.241V216.741H119.85C106.351 216.741 95.4065 205.798 95.4062 192.299V146.237H79.0742C75.5303 146.237 73.1992 142.541 74.7246 139.343L92.5566 101.972L92.6055 101.87V101.758C92.6055 51.5795 133.105 10.8597 183.198 10.5027C235.347 10.1308 276.751 54.0265 275.047 106.17C274.009 137.947 261.797 166.897 242.213 189.221L242.089 189.363V217.241C242.089 235.983 257.282 251.178 276.025 251.178H328.776C358.591 251.178 383.576 275.573 383.412 305.37C383.355 315.778 380.346 325.488 375.182 333.704L375.104 333.826V501.5H18.8955V333.826Z" stroke="#4E4E4E"/>
<path d="M254.71 453.08C265.984 449.045 278.252 455.897 280.956 467.576C283.26 477.53 277.768 487.664 268.15 491.096C249.278 497.831 228.948 501.5 207.76 501.5C186.571 501.5 166.242 497.831 147.366 491.096C137.748 487.664 132.256 477.529 134.561 467.576C137.265 455.898 149.532 449.045 160.807 453.08C175.478 458.33 191.283 461.192 207.758 461.192C224.233 461.192 240.04 458.33 254.71 453.08Z" stroke="#4E4E4E"/>
<mask id="path-3-inside-1_2040_152" fill="white">
<path d="M204.203 362.599V368.215C204.203 378.547 208.528 387.881 215.455 394.524C206.893 403.949 195.503 410.726 182.675 413.523C174.942 415.209 168.784 421.314 167.409 429.109C166.143 436.287 168.957 443.492 174.601 447.834C198.321 466.083 232.437 465.023 255.015 443.917C265.043 434.542 271.279 422.63 273.657 410.103C276.286 396.253 268.648 382.495 255.534 377.321L255.486 377.302C250.567 375.373 245.214 374.828 240.008 375.725C235.302 376.533 230.831 373.123 230.768 368.349L230.767 368.216V362.6"/>
</mask>
<path d="M215.455 394.524L216.195 395.197L216.85 394.476L216.147 393.802L215.455 394.524ZM182.675 413.523L182.888 414.5L182.888 414.5L182.675 413.523ZM167.409 429.109L166.424 428.935L166.424 428.935L167.409 429.109ZM174.601 447.834L175.211 447.042L175.211 447.042L174.601 447.834ZM255.015 443.917L255.698 444.648L255.698 444.648L255.015 443.917ZM273.657 410.103L274.639 410.29L274.639 410.29L273.657 410.103ZM255.534 377.321L255.166 378.251L255.167 378.251L255.534 377.321ZM255.486 377.302L255.854 376.372L255.851 376.371L255.486 377.302ZM240.008 375.725L240.177 376.711L240.178 376.711L240.008 375.725ZM230.768 368.349L229.768 368.357L229.768 368.362L230.768 368.349ZM230.767 368.216H229.767L229.767 368.224L230.767 368.216ZM204.203 362.599H203.203V368.215H204.203H205.203V362.599H204.203ZM204.203 368.215H203.203C203.203 378.832 207.648 388.423 214.763 395.246L215.455 394.524L216.147 393.802C209.407 387.339 205.203 378.262 205.203 368.215H204.203ZM215.455 394.524L214.715 393.852C206.288 403.127 195.081 409.795 182.462 412.546L182.675 413.523L182.888 414.5C195.925 411.658 207.497 404.771 216.195 395.197L215.455 394.524ZM182.675 413.523L182.462 412.546C174.354 414.314 167.873 420.719 166.424 428.935L167.409 429.109L168.394 429.283C169.694 421.909 175.529 416.105 182.888 414.5L182.675 413.523ZM167.409 429.109L166.424 428.935C165.094 436.477 168.049 444.056 173.991 448.627L174.601 447.834L175.211 447.042C169.864 442.929 167.192 436.097 168.394 429.283L167.409 429.109ZM174.601 447.834L173.991 448.627C198.093 467.169 232.756 466.093 255.698 444.648L255.015 443.917L254.332 443.187C232.117 463.953 198.549 464.997 175.211 447.042L174.601 447.834ZM255.015 443.917L255.698 444.648C265.886 435.123 272.223 423.018 274.639 410.29L273.657 410.103L272.674 409.917C270.335 422.242 264.2 433.961 254.332 443.187L255.015 443.917ZM273.657 410.103L274.639 410.29C277.358 395.965 269.459 381.74 255.901 376.391L255.534 377.321L255.167 378.251C267.837 383.25 275.213 396.541 272.674 409.917L273.657 410.103ZM255.534 377.321L255.902 376.391L255.854 376.372L255.486 377.302L255.118 378.232L255.166 378.251L255.534 377.321ZM255.486 377.302L255.851 376.371C250.762 374.375 245.224 373.811 239.838 374.74L240.008 375.725L240.178 376.711C245.204 375.844 250.372 376.371 255.121 378.233L255.486 377.302ZM240.008 375.725L239.839 374.74C235.683 375.453 231.822 372.44 231.768 368.336L230.768 368.349L229.768 368.362C229.84 373.806 234.921 377.613 240.177 376.711L240.008 375.725ZM230.768 368.349L231.768 368.342L231.767 368.209L230.767 368.216L229.767 368.224L229.768 368.357L230.768 368.349ZM230.767 368.216H231.767V362.6H230.767H229.767V368.216H230.767Z" fill="#4E4E4E" mask="url(#path-3-inside-1_2040_152)"/>
<path d="M212.533 14.6381C203.332 11.5651 193.471 9.93008 183.195 10.0031C132.827 10.3621 92.1057 51.3041 92.1057 101.757L74.2737 139.127C72.5897 142.657 75.1627 146.737 79.0747 146.737H94.9067V192.298C94.9067 206.074 106.075 217.241 119.85 217.241H151.412C151.412 235.708 136.442 250.678 117.975 250.678H65.2237C35.1417 250.678 9.92469 275.289 10.0887 305.37C10.1467 315.876 13.1827 325.676 18.3957 333.97V502H375.605V333.97C380.818 325.677 383.854 315.877 383.912 305.373C384.078 275.29 358.86 250.678 328.777 250.678H276.026C257.559 250.678 242.589 235.708 242.589 217.241V189.551C262.247 167.143 274.505 138.083 275.547 106.186C275.861 96.7891 274.765 87.3981 272.296 78.3261M322.249 496.496V377.396M71.7467 496.496V377.396" stroke="#4E4E4E" stroke-width="20" stroke-miterlimit="10" stroke-linecap="round" stroke-linejoin="round"/>
<path d="M167.525 436.534C168.461 441.024 170.97 445.032 174.6 447.834C198.32 466.083 232.436 465.023 255.014 443.917C265.042 434.542 271.278 422.63 273.656 410.103C276.285 396.253 268.647 382.495 255.533 377.321L255.485 377.302C254.873 377.062 254.253 376.843 253.626 376.646" stroke="#4E4E4E" stroke-width="20" stroke-miterlimit="10" stroke-linecap="round" stroke-linejoin="round"/>
<path d="M154.188 353.213H188.238C193.655 353.213 198.875 355.24 202.873 358.895L203.182 359.177L203.514 358.924C208.376 355.22 214.319 353.213 220.432 353.213H233.636C243.834 353.213 252.103 361.481 252.103 371.68C252.103 374.593 251.413 377.464 250.092 380.06C248.77 382.655 246.853 384.901 244.498 386.615L233.888 394.334C226.24 399.898 217.027 402.894 207.569 402.894H207.249L207.115 403.186C203.267 411.581 196.819 418.516 188.725 422.963L157.077 440.352C137.035 451.365 112.522 436.864 112.521 413.995V394.879C112.521 371.867 131.177 353.213 154.188 353.213Z" stroke="#4E4E4E"/>
<path d="M94.9062 173.829H163.904C184.9 173.829 201.921 190.85 201.921 211.846V350.725M233.634 352.713H220.43C214.208 352.713 208.158 354.755 203.209 358.526C199.119 354.787 193.779 352.713 188.237 352.713H154.186C130.899 352.713 112.02 371.591 112.02 394.879V413.995C112.02 437.244 136.941 451.986 157.316 440.79L188.964 423.401C197.152 418.902 203.675 411.887 207.568 403.394C217.131 403.394 226.447 400.364 234.18 394.738L244.791 387.019C247.21 385.259 249.179 382.952 250.536 380.287C251.894 377.621 252.601 374.672 252.601 371.68C252.602 361.205 244.109 352.713 233.634 352.713ZM281.443 467.463C278.673 455.499 266.103 448.471 254.541 452.609C239.924 457.84 224.175 460.692 207.758 460.692C191.341 460.692 175.593 457.84 160.975 452.609C149.413 448.471 136.843 455.5 134.073 467.463C131.712 477.661 137.339 488.048 147.198 491.566C166.127 498.32 186.512 502 207.759 502C229.006 502 249.392 498.32 268.318 491.566C278.177 488.048 283.804 477.662 281.443 467.463Z" stroke="#4E4E4E" stroke-width="20" stroke-miterlimit="10" stroke-linecap="round" stroke-linejoin="round"/>
</svg>
