<svg width="26" height="30" viewBox="0 0 26 30" fill="none" xmlns="http://www.w3.org/2000/svg">
<path fill-rule="evenodd" clip-rule="evenodd" d="M15.2394 0.969021C14.8939 0.663989 14.4805 0.421385 14.0238 0.255538C13.567 0.0896907 13.0761 0.0039639 12.58 0.00342057C12.0839 0.00287724 11.5928 0.0875283 11.1355 0.252374C10.6782 0.41722 10.2642 0.658918 9.91773 0.963193L9.91173 0.968335C6.61654 3.90219 0.0761719 12.6053 0.0761719 19.3007C0.0761719 25.2075 5.67672 30.0034 12.576 30.0034C19.4752 30.0034 25.0762 25.2075 25.0762 19.3007C25.0762 12.6053 18.5358 3.90184 15.2394 0.969021ZM22.1027 16.0747H3.04969C4.53924 10.6072 9.18476 4.70722 11.7102 2.45738C11.823 2.3587 11.9577 2.28032 12.1064 2.22683C12.2551 2.17334 12.4147 2.14582 12.5759 2.14589C12.7372 2.14595 12.8968 2.1736 13.0454 2.2272C13.194 2.28081 13.3286 2.35929 13.4414 2.45806C15.9672 4.70688 20.6131 10.6072 22.1027 16.0747Z" fill="#1A9426"/>
</svg>
