<svg width="364" height="512" viewBox="0 0 364 512" fill="none" xmlns="http://www.w3.org/2000/svg">
<path fill-rule="evenodd" clip-rule="evenodd" d="M12.6829 512C3.38467 512 -2.31422 501.802 2.48485 493.704L90.0677 349.132L25.5803 347.032C15.6823 346.732 10.2833 334.735 17.182 326.936L146.757 181.465L76.8703 180.265C67.2722 179.965 61.5733 169.167 67.2722 161.069L175.851 8.39835C177.951 5.39894 181.55 3.29935 185.449 3.29935L351.017 -9.72721e-06C361.515 -0.299951 367.214 12.8975 359.715 20.396L259.835 119.377H333.92C344.718 119.377 350.117 132.574 342.318 140.073L192.348 285.844L244.238 285.544C255.335 285.544 260.734 299.342 252.336 306.54L20.4813 509.001C18.3817 510.8 15.6823 512 12.6829 512Z" fill="#009CD8"/>
</svg>
