<svg width="10" height="10" viewBox="0 0 10 10" fill="none" xmlns="http://www.w3.org/2000/svg">
<g clip-path="url(#clip0_2068_16)">
<path d="M1.1233 7.01211C1.02916 6.29447 1.28685 5.47598 1.69053 5.02632C2.19055 4.46932 2.25849 4.02046 2.20983 3.41201C2.20113 3.30306 2.31413 3.23142 2.39342 3.29716C2.89757 3.71499 3.09868 4.67344 2.89265 5.40597C2.86654 5.49877 2.94114 5.58886 3.02722 5.56786C3.2103 5.52319 3.47353 5.40283 3.60911 5.07905C3.6341 5.0194 3.69462 4.98616 3.75094 5.0077C4.03584 5.11677 4.26248 5.40022 4.40858 5.76985C4.71801 5.28348 4.98839 4.74101 5.23801 4.21183C5.04749 3.78104 4.75965 3.36084 4.35049 2.98457C2.98206 1.7262 3.30645 0.626971 3.52723 0.188918C3.57322 0.0977024 3.50449 -0.0128296 3.41068 0.00121458C2.9591 0.0688471 2.00533 0.416884 1.78408 2.135C1.78363 2.13854 1.7836 2.14216 1.78319 2.14571C1.50222 1.8736 1.10084 1.82322 0.787806 1.83537C0.668639 1.84 0.633569 2.01929 0.740648 2.07709C2.009 2.76183 0.390343 4.1152 0.093937 5.26809C-0.0780192 5.93692 0.00459974 6.43544 0.192558 6.80334C0.506836 6.75136 0.577758 6.87654 1.1233 7.01211Z" fill="white"/>
<path d="M9.9945 1.33267C10.0069 1.27787 9.99976 1.2199 9.97446 1.17078C9.94915 1.12166 9.90767 1.08516 9.85861 1.06885L8.89899 0.749523C8.78402 0.711249 8.66357 0.793668 8.64416 0.925123C8.55763 1.51126 8.42783 2.01439 8.29975 2.41376C8.21219 2.68681 8.12546 2.91122 8.05387 3.08055C7.87397 3.01049 7.68884 2.9716 7.50284 2.9716C7.05718 2.9716 6.60673 3.19427 6.21257 3.74319C5.96095 4.0936 4.9482 6.87209 3.72326 7.46705C3.14339 7.7487 2.57001 7.84823 2.0494 7.84823C1.37101 7.84823 0.782155 7.67932 0.384367 7.52421C0.201887 7.45305 0.0424112 7.68318 0.154403 7.85839C0.587718 8.53635 1.53351 9.60069 3.32573 9.93252C3.56909 9.9775 3.81542 10.0001 4.06217 9.99994C6.20131 9.99994 8.12033 8.32799 8.97068 6.78349C9.50055 5.82105 9.71094 4.70097 9.07752 3.87155C9.19875 3.66549 9.30848 3.4392 9.40675 3.20764C9.71699 2.47674 9.91292 1.69389 9.9945 1.33267Z" fill="white"/>
</g>
<defs>
<clipPath id="clip0_2068_16">
<rect width="10" height="10" fill="white"/>
</clipPath>
</defs>
</svg>
