<svg width="672" height="672" viewBox="0 0 672 672" fill="none" xmlns="http://www.w3.org/2000/svg">
<path d="M571.913 386.609C557.279 392.623 541.185 394.142 525.684 390.972C509.411 387.644 492.504 389.488 477.33 396.244L527.849 479.973C532.893 488.333 543.759 491.021 552.119 485.977L595.448 459.834C603.808 454.79 606.496 443.924 601.452 435.564L571.913 386.609Z" fill="#1A9426"/>
<path d="M496.142 429.451L487.259 462.383C479.998 489.3 455.585 508 427.706 508H395.883V562H112.004V516.133C112.004 473.029 146.947 438.086 190.051 438.086H207.963" stroke="#1A9426" stroke-width="20" stroke-miterlimit="10" stroke-linecap="round" stroke-linejoin="round"/>
<path d="M382.712 438.086H432.119L467.303 335.958M282.365 457.805L239.579 405.443L207.963 434.906L231.873 495.098L282.365 457.805Z" stroke="#1A9426" stroke-width="20" stroke-miterlimit="10" stroke-linecap="round" stroke-linejoin="round"/>
<path d="M349.545 453.091L332.858 495.098L282.365 457.805L325.152 405.443M333.029 388.005C318.856 398.473 301.33 404.661 282.359 404.661C235.208 404.661 196.984 366.437 196.984 319.286V288.998M198.719 246.655C206.68 207.751 241.102 178.486 282.359 178.486C322.551 178.486 356.257 206.26 365.33 243.662" stroke="#1A9426" stroke-width="20" stroke-miterlimit="10" stroke-linecap="round" stroke-linejoin="round"/>
<path d="M291.717 257.377C295.881 250.526 298.077 242.659 298.064 234.642" stroke="#1A9426" stroke-width="20" stroke-miterlimit="10" stroke-linecap="round" stroke-linejoin="round"/>
<path d="M336.125 253.307C318.346 256.167 300.368 257.601 282.361 257.595C253.721 257.595 225.636 254.001 198.608 247.048C192.752 245.542 187.051 249.954 187.051 256.001V278.096C187.052 280.174 187.751 282.192 189.037 283.825C190.322 285.458 192.119 286.612 194.139 287.101C222.877 294.065 252.384 297.595 282.36 297.595C302.218 297.595 321.87 296.046 341.229 292.975M329.998 431.994L359.401 461.398L388.805 431.994L376.162 290.737H342.641L329.998 431.994Z" stroke="#1A9426" stroke-width="20" stroke-miterlimit="10" stroke-linecap="round" stroke-linejoin="round"/>
<path d="M535.945 332.08C538.855 333.58 541.292 335.859 542.984 338.662L601.451 435.566C606.495 443.926 603.807 454.792 595.447 459.836L552.118 485.979C543.758 491.023 532.892 488.335 527.848 479.975L469.381 383.071C468.156 381.041 467.352 378.785 467.017 376.438C466.681 374.091 466.822 371.701 467.429 369.409L473.702 345.738L443.042 294.922L477.291 274.258L505.464 320.885M368.538 244.183H350.263C342.454 244.183 336.123 250.514 336.123 258.323V276.598C336.123 284.407 342.454 290.738 350.263 290.738H368.538C376.347 290.738 382.678 284.407 382.678 276.598V258.323C382.677 250.514 376.347 244.183 368.538 244.183Z" stroke="#1A9426" stroke-width="20" stroke-miterlimit="10" stroke-linecap="round" stroke-linejoin="round"/>
<path d="M546.73 322.017C552.985 311.185 548.648 296.973 537.046 290.274C525.443 283.575 510.967 286.926 504.713 297.758C498.459 308.591 502.795 322.803 514.398 329.501C526 336.2 540.476 332.85 546.73 322.017Z" stroke="#1A9426" stroke-width="20" stroke-miterlimit="10" stroke-linecap="round" stroke-linejoin="round"/>
<path d="M371.755 114.51V148.608M354.706 131.559H388.804M252.319 70V104.098M235.27 87.049H269.369M135.383 364.341V398.439M118.334 381.39H152.432" stroke="#1A9426" stroke-width="20" stroke-miterlimit="10" stroke-linecap="round" stroke-linejoin="round"/>
<path d="M450.73 237.48C464.394 237.48 475.47 226.404 475.47 212.74C475.47 199.076 464.394 188 450.73 188C437.067 188 425.99 199.076 425.99 212.74C425.99 226.404 437.067 237.48 450.73 237.48Z" stroke="#1A9426" stroke-width="20" stroke-miterlimit="10" stroke-linecap="round" stroke-linejoin="round"/>
<path d="M152.432 175.866C164.667 175.866 174.585 165.948 174.585 153.713C174.585 141.478 164.667 131.56 152.432 131.56C140.198 131.56 130.279 141.478 130.279 153.713C130.279 165.948 140.198 175.866 152.432 175.866Z" stroke="#1A9426" stroke-width="20" stroke-miterlimit="10" stroke-linecap="round" stroke-linejoin="round"/>
<path d="M183.211 525.649V560.592" stroke="#1A9426" stroke-width="20" stroke-miterlimit="10" stroke-linecap="round" stroke-linejoin="round"/>
<path d="M336 672C521.26 672 672 521.274 672 336C672 246.176 637.07 161.788 573.638 98.3623C510.2 34.9318 425.824 0 336 0C150.726 0 0 150.726 0 336C0 425.824 34.93 510.212 98.3623 573.638C161.786 637.068 246.176 672 336 672ZM336 616C270.568 616 208.6 593.757 158.73 552.863L552.863 158.73C593.756 208.6 616 270.568 616 336C616 490.39 490.39 616 336 616ZM336 56C401.42 56 463.4 78.2425 513.258 119.137L119.135 513.27C78.2443 463.4 56 401.432 56 336C56 181.61 181.61 56 336 56Z" fill="#1A9426"/>
</svg>
