<svg width="481" height="370" viewBox="0 0 481 370" fill="none" xmlns="http://www.w3.org/2000/svg">
<path d="M15.6801 183.48C18.1838 198.662 25.4712 212.649 36.4801 223.4L96.9601 282.28C106 291 112.24 302.36 115.36 314.52C108.24 318.6 103.36 326.2 103.36 334.92V346.28C103.36 359.32 113.92 369.88 126.96 369.88H205.28C218.32 369.88 228.88 359.32 228.88 346.28V334.92C228.88 324.44 222 315.72 212.64 312.6L207.28 269.08C204.829 248.707 194.979 229.945 179.6 216.36C145.04 185.64 124.08 168.04 117.44 163.96C108.56 158.52 95.6001 160.12 87.1201 167.56C78.3947 160.598 71.9118 151.222 68.4801 140.6L49.4401 79.5598C47.8519 74.4208 44.6541 69.9283 40.3185 66.745C35.9828 63.5617 30.7389 61.8561 25.3601 61.8798C24.0001 61.8798 22.4801 62.0398 21.2001 62.1998C7.60011 64.5198 -1.67989 77.4798 0.480114 91.1598L15.7601 183.48H15.6801ZM212.8 346.28C212.8 350.44 209.36 353.88 205.2 353.88H126.88C122.72 353.88 119.28 350.44 119.28 346.28V334.92C119.28 331.48 121.6 328.68 124.72 327.8C125.12 327.8 125.52 327.8 125.92 327.72C126.24 327.72 126.56 327.48 126.88 327.4H204.48C204.48 327.4 204.88 327.48 205.12 327.48H205.52C209.44 327.72 212.64 330.92 212.64 335V346.36L212.8 346.28ZM23.7601 77.8798C28.2401 77.0798 32.6401 79.9598 34.0001 84.1998L53.0401 145.24C57.5201 159.64 66.6401 172.36 78.6401 181.4C77.2001 188.04 78.0001 196.92 84.7201 207.96C102 236.04 120.72 256.76 121.52 257.64C122.224 258.417 123.074 259.048 124.022 259.497C124.97 259.946 125.997 260.204 127.044 260.256C128.092 260.308 129.139 260.153 130.127 259.8C131.114 259.447 132.023 258.904 132.8 258.2C133.578 257.496 134.209 256.646 134.658 255.698C135.106 254.75 135.364 253.723 135.416 252.676C135.468 251.628 135.313 250.581 134.961 249.593C134.608 248.606 134.064 247.697 133.36 246.92C133.2 246.68 114.8 226.44 98.3201 199.64C95.2801 194.68 91.1201 185.56 96.7201 179.96C100.24 176.44 106 175.8 108.8 177.48C114.4 180.92 136.24 199.4 168.72 228.2C181.165 239.217 189.135 254.418 191.12 270.92L196.08 311.24H131.12C127.36 295.88 119.28 281.64 108 270.68L47.5201 211.8C38.9425 203.487 33.2752 192.63 31.3601 180.84L16.0801 88.5198C15.2801 83.3998 18.5601 78.7598 23.7601 77.8798ZM459.04 62.1198C446.56 59.8798 434.4 67.5598 430.72 79.3998L411.68 140.44C408.248 151.062 401.766 160.438 393.04 167.4C384.48 160.04 371.52 158.36 362.72 163.8C356 167.88 335.12 185.48 300.56 216.2C285.2 229.8 275.36 248.52 272.88 268.92L267.52 312.44C262.802 313.968 258.69 316.95 255.772 320.96C252.855 324.97 251.282 329.801 251.28 334.76V346.12C251.28 359.16 261.84 369.72 274.88 369.72H353.2C366.24 369.72 376.8 359.16 376.8 346.12V334.76C376.8 325.96 371.92 318.36 364.8 314.36C367.92 302.12 374.16 290.84 383.2 282.12L443.68 223.24C454.72 212.6 462.08 198.44 464.48 183.4L479.84 90.9998C482 77.3998 472.72 64.3598 459.2 62.1198H459.04ZM360.72 346.2C360.72 350.36 357.28 353.8 353.12 353.8H274.8C270.64 353.8 267.2 350.36 267.2 346.2V334.84C267.2 330.84 270.4 327.56 274.32 327.32H274.72C274.96 327.32 275.12 327.24 275.36 327.24H352.96C352.96 327.24 353.6 327.56 353.92 327.56C354.32 327.56 354.72 327.64 355.12 327.64C358.24 328.6 360.56 331.4 360.56 334.76V346.12L360.72 346.2ZM448.56 180.84C446.627 192.624 440.963 203.476 432.4 211.8L371.92 270.68C360.596 281.79 352.59 295.835 348.8 311.24H283.84L288.8 270.92C290.785 254.418 298.755 239.217 311.2 228.2C343.6 199.4 365.44 180.92 371.12 177.4C373.92 175.64 379.68 176.36 383.2 179.88C388.88 185.56 384.64 194.68 381.68 199.56C365.2 226.36 346.88 246.68 346.64 246.84C345.936 247.617 345.392 248.526 345.04 249.513C344.687 250.501 344.532 251.548 344.584 252.596C344.636 253.643 344.894 254.67 345.343 255.618C345.792 256.566 346.423 257.416 347.2 258.12C347.978 258.824 348.886 259.368 349.874 259.72C350.861 260.073 351.909 260.228 352.956 260.176C354.004 260.124 355.03 259.866 355.978 259.417C356.926 258.968 357.776 258.337 358.48 257.56C359.28 256.68 378 235.96 395.28 207.88C402.08 196.84 402.8 187.88 401.36 181.32C413.477 172.252 422.434 159.601 426.96 145.16L446 84.1198C447.28 79.8798 451.2 76.8398 456.32 77.7998C461.36 78.6798 464.72 83.3198 463.92 88.3598L448.56 180.76V180.84ZM345.6 74.9998C348.56 54.3598 342 32.4398 328.48 17.7198C317.12 5.39977 301.92 -0.84024 285.52 0.19976C270.72 1.07976 256.96 11.0798 245.2 20.2798C242.16 22.5998 238 22.5998 235.04 20.2798C223.28 10.9998 209.52 1.07976 194.72 0.19976C178.32 -0.76024 163.04 5.39977 151.76 17.7198C138.24 32.4398 131.6 54.3598 134.64 74.9998C139.92 111.4 165.12 149.08 209.52 186.84C218.24 194.28 229.2 198.04 240.24 198.04C251.28 198.04 262.16 194.28 270.96 186.84C315.36 149 340.56 111.4 345.84 74.9998H345.6Z" fill="#4E4E4E"/>
</svg>
