<svg width="512" height="512" viewBox="0 0 512 512" fill="none" xmlns="http://www.w3.org/2000/svg">
<path d="M227.947 95.466C227.797 48.791 189.913 11 143.202 11C96.399 11 58.457 48.942 58.457 95.745C58.457 139.244 91.23 175.089 133.432 179.933" stroke="#009CD8" stroke-width="22" stroke-miterlimit="10" stroke-linecap="round" stroke-linejoin="round"/>
<path d="M352.001 501H212.503C152.113 501 105.074 448.604 111.562 388.564L143.202 95.7451H421.301L452.941 388.564C459.429 448.604 412.39 501 352.001 501Z" stroke="#009CD8" stroke-width="22" stroke-miterlimit="10" stroke-linecap="round" stroke-linejoin="round"/>
<path d="M440.918 11H394.031L325.394 329.277M138.475 165.417H428.83" stroke="#009CD8" stroke-width="22" stroke-miterlimit="10" stroke-linecap="round" stroke-linejoin="round"/>
<path d="M254.008 328.393L233.505 348.896C225.19 357.211 211.707 357.211 203.392 348.896L182.889 328.393C174.574 320.078 174.574 306.595 182.889 298.28L203.392 277.777C211.707 269.462 225.19 269.462 233.505 277.777L254.008 298.28C262.324 306.596 262.324 320.078 254.008 328.393ZM350.894 453.181H321.898C310.138 453.181 300.605 443.648 300.605 431.888V402.892C300.605 391.132 310.138 381.599 321.898 381.599H350.894C362.654 381.599 372.187 391.132 372.187 402.892V431.888C372.187 443.648 362.654 453.181 350.894 453.181Z" stroke="#009CD8" stroke-width="22" stroke-miterlimit="10" stroke-linecap="round" stroke-linejoin="round"/>
<path d="M263.387 225.378L272.823 234.814M242.055 417.39L232.619 426.826" stroke="#009CD8" stroke-width="22" stroke-miterlimit="10" stroke-linecap="round" stroke-linejoin="round"/>
</svg>
