<svg width="326" height="512" viewBox="0 0 326 512" fill="none" xmlns="http://www.w3.org/2000/svg">
<path d="M39.5449 117.016H286.457M52.7749 77.0959H273.227V156.937H52.7749V77.0959Z" stroke="#1A9426" stroke-width="20" stroke-miterlimit="10" stroke-linecap="round" stroke-linejoin="round"/>
<path d="M142.393 234.927V10H183.609V234.927" stroke="#1A9426" stroke-width="20" stroke-miterlimit="10" stroke-linecap="round" stroke-linejoin="round"/>
<path d="M262.747 502H63.253C34.141 502 10.541 478.4 10.541 449.288V209.649C10.541 180.537 34.141 156.937 63.253 156.937H262.746C291.858 156.937 315.458 180.537 315.458 209.649V449.288C315.459 478.4 291.859 502 262.747 502Z" stroke="#1A9426" stroke-width="20" stroke-miterlimit="10" stroke-linecap="round" stroke-linejoin="round"/>
<path d="M54.3848 449.283V236.883H271.614V449.283C271.614 451.634 270.68 453.888 269.018 455.55C267.356 457.212 265.101 458.146 262.751 458.146H63.2478C60.8972 458.146 58.643 457.212 56.981 455.55C55.3189 453.888 54.385 451.634 54.3848 449.283Z" stroke="#1A9426" stroke-width="20" stroke-miterlimit="10" stroke-linecap="round" stroke-linejoin="round"/>
<path d="M151.352 415.962H121.023C113.139 415.962 106.748 409.571 106.748 401.687V371.346C106.748 363.462 113.139 357.071 121.023 357.071H151.352C159.236 357.071 165.627 363.462 165.627 371.346V401.687C165.628 409.571 159.236 415.962 151.352 415.962ZM189.517 347.769L171.264 329.512C166.521 324.768 166.521 317.077 171.264 312.333L189.517 294.076C194.262 289.33 201.955 289.33 206.7 294.076L224.953 312.333C229.696 317.077 229.696 324.768 224.953 329.512L206.7 347.769C201.955 352.515 194.261 352.515 189.517 347.769Z" stroke="#1A9426" stroke-width="20" stroke-miterlimit="10" stroke-linecap="round" stroke-linejoin="round"/>
</svg>
