<svg width="512" height="381" viewBox="0 0 512 381" fill="none" xmlns="http://www.w3.org/2000/svg">
<path d="M368.852 234.162C382.422 234.162 393.461 223.122 393.461 209.553C393.461 205.41 390.103 202.053 385.961 202.053C381.819 202.053 378.461 205.41 378.461 209.553C378.461 214.852 374.15 219.162 368.852 219.162C363.554 219.162 359.243 214.851 359.243 209.553C359.243 205.41 355.885 202.053 351.743 202.053C347.601 202.053 344.243 205.41 344.243 209.553C344.242 223.122 355.282 234.162 368.852 234.162ZM408.175 192.092C410.164 192.092 412.072 191.302 413.479 189.895C414.885 188.489 415.675 186.581 415.675 184.592V176.755C417.57 176.52 419.305 175.571 420.524 174.101C421.744 172.632 422.357 170.752 422.238 168.846C422.119 166.94 421.278 165.151 419.886 163.844C418.493 162.537 416.655 161.81 414.745 161.812H408.175C406.186 161.812 404.279 162.602 402.872 164.009C401.465 165.415 400.675 167.323 400.675 169.312V184.592C400.675 186.581 401.465 188.489 402.872 189.895C404.279 191.302 406.186 192.092 408.175 192.092ZM322.028 176.756V184.593C322.028 188.736 325.386 192.093 329.528 192.093C333.67 192.093 337.028 188.736 337.028 184.593V169.313C337.028 167.324 336.238 165.416 334.832 164.01C333.425 162.603 331.517 161.813 329.528 161.813H322.958C321.049 161.811 319.21 162.538 317.818 163.845C316.426 165.152 315.584 166.941 315.466 168.847C315.347 170.753 315.96 172.633 317.179 174.102C318.399 175.572 320.133 176.521 322.028 176.756Z" fill="#4E4E4E"/>
<path d="M480.945 185.94C483.139 181.302 484.275 176.234 484.271 171.103C484.271 162.276 480.966 154.21 475.537 148.062C476.431 146.801 476.91 145.292 476.909 143.746C476.909 121.594 478.015 108.457 471.351 89.4031C469.983 85.4931 465.705 83.4281 461.795 84.7991C460.865 85.1242 460.009 85.6293 459.274 86.2855C458.539 86.9417 457.941 87.7361 457.514 88.6235C457.086 89.5109 456.838 90.4738 456.782 91.4572C456.727 92.4406 456.866 93.4254 457.191 94.3551C462.638 109.926 461.908 120.727 461.908 136.246H415.706C394.006 136.246 376.351 118.592 376.35 96.8921C376.35 92.7491 372.992 89.3921 368.85 89.3921C364.708 89.3921 361.35 92.7491 361.35 96.8921C361.35 118.592 343.695 136.246 321.994 136.246H275.792V122.274C275.792 75.6641 313.712 37.7441 360.322 37.7441C360.889 37.7441 361.35 38.2051 361.35 38.7721C361.35 42.9141 364.708 46.2711 368.85 46.2711C372.992 46.2711 376.35 42.9141 376.35 38.7721C376.35 38.2051 376.811 37.7441 377.378 37.7441C389.457 37.7457 401.396 40.3352 412.391 45.3384C423.385 50.3417 433.18 57.6424 441.116 66.7491C441.761 67.5003 442.548 68.1165 443.431 68.5621C444.315 69.0077 445.279 69.274 446.266 69.3455C447.253 69.417 448.245 69.2923 449.184 68.9787C450.123 68.6651 450.99 68.1687 451.736 67.5182C452.483 66.8677 453.093 66.076 453.531 65.1886C453.97 64.3012 454.228 63.3358 454.292 62.3479C454.356 61.3601 454.223 60.3695 453.902 59.4331C453.582 58.4967 453.078 57.6331 452.422 56.8921C443.078 46.1705 431.546 37.5752 418.602 31.685C405.657 25.7948 391.601 22.7464 377.379 22.7451C374.247 22.7451 371.322 23.6481 368.851 25.2071C366.299 23.5952 363.341 22.7414 360.323 22.7451C305.442 22.7451 260.793 67.3941 260.793 122.275V143.747C260.793 145.355 261.304 146.842 262.165 148.063C259.626 150.933 257.577 154.201 256.101 157.737C255.675 152.429 254.136 147.27 251.584 142.596C249.032 137.922 245.524 133.838 241.289 130.61V102.037C241.289 45.7811 195.522 0.0141106 139.266 0.0141106C125.298 0.0141106 130.895 -0.226892 111.575 1.28311C84.925 3.36311 61.076 17.6241 46.639 39.8101L24.053 32.5911C19.373 31.0911 14.514 34.4451 14.278 39.3771C14.171 41.6371 11.908 91.8631 21.066 126.846C8.589 133.104 0 146.013 0 160.898C0 180.212 14.456 196.214 33.117 198.652C37.814 218.804 48.91 237.097 64.783 250.664C68.9265 254.198 73.3597 257.378 78.036 260.169H62.254C36.323 260.169 15.227 281.266 15.227 307.196V372.919C15.227 374.908 16.0172 376.816 17.4237 378.222C18.8302 379.629 20.7379 380.419 22.727 380.419H35.186C39.328 380.419 42.686 377.062 42.686 372.919C42.686 368.776 39.328 365.419 35.186 365.419H30.227V307.196C30.227 289.536 44.594 275.169 62.254 275.169H84.072C87.799 297.283 107.799 313.91 131.164 312.402C152.315 311.039 169.073 295.125 172.44 275.169H194.261C211.921 275.169 226.289 289.536 226.289 307.196V365.419H70.187C66.045 365.419 62.687 368.776 62.687 372.919C62.687 377.062 66.045 380.419 70.187 380.419H233.79C235.779 380.419 237.687 379.629 239.093 378.222C240.5 376.816 241.29 374.908 241.29 372.919V307.196C241.293 301.141 240.12 295.142 237.836 289.534H249.886C257.2 289.539 264.444 288.105 271.204 285.313C266.416 292.7 263.872 301.316 263.879 310.118V372.919C263.879 374.908 264.669 376.816 266.076 378.222C267.482 379.629 269.39 380.419 271.379 380.419H466.829C468.818 380.419 470.726 379.629 472.132 378.222C473.539 376.816 474.329 374.908 474.329 372.919V310.118C474.336 301.423 471.854 292.908 467.175 285.579C473.744 288.195 480.75 289.537 487.82 289.534H504.5C506.489 289.534 508.397 288.744 509.803 287.337C511.21 285.931 512 284.023 512 282.034V236.1C512 214.734 499.617 195.308 480.945 185.94ZM321.996 151.247C341.93 151.247 359.392 140.463 368.852 124.42C378.313 140.463 395.774 151.247 415.708 151.247H449.415C460.364 151.247 469.271 160.154 469.271 171.103C469.271 176.457 467.132 181.313 463.676 184.887C459.727 188.967 454.251 191.166 448.619 190.937C444.826 190.762 441.529 193.459 440.905 197.193C435.199 231.306 405.689 258.109 368.852 258.109C342.826 258.109 318.515 244.35 305.434 221.468C305.313 221.158 305.171 220.856 305.009 220.564C301.973 215.128 299.648 209.324 298.093 203.295C298.062 203.175 298.037 203.053 298.007 202.933C297.524 201.037 297.121 199.122 296.799 197.192C296.176 193.467 292.865 190.764 289.085 190.936C277.861 191.392 268.433 182.337 268.433 171.101C268.433 160.152 277.341 151.245 288.289 151.245C288.562 151.245 288.834 151.257 289.105 151.267C289.425 151.28 289.74 151.272 290.052 151.245H321.996V151.247ZM368.975 304.658C354.705 304.658 343.095 293.048 343.095 278.777V269.274C351.607 271.886 360.496 273.111 368.851 273.111C377.48 273.111 386.466 271.801 394.854 269.199V278.778C394.854 292.603 383.958 303.931 370.304 304.625C369.864 304.647 369.421 304.658 368.975 304.658ZM309.692 264.295H309.683C304.683 264.297 299.718 265.12 294.985 266.733C299.698 260.368 303.004 253.073 304.681 245.332C306.886 247.687 309.219 249.919 311.669 252.018C316.708 256.321 322.219 260.04 328.095 263.104V264.295H309.692ZM409.855 262.981C418.345 258.516 426.113 252.691 433.022 245.333C434.681 252.982 437.93 260.196 442.558 266.508C433.995 263.742 429.527 264.295 409.856 264.295L409.855 262.981ZM29.016 49.9241L47.725 55.9031C49.3787 56.431 51.1643 56.3691 52.7776 55.7279C54.3908 55.0868 55.7317 53.9061 56.572 52.3871C68.063 31.5991 89.062 18.0841 112.743 16.2371C131.598 14.7651 125.881 15.0131 139.266 15.0131C187.25 15.0131 226.289 54.0511 226.289 102.036V123.701C219.735 122.29 221.808 122.852 118.948 122.852C111.66 122.855 104.46 121.264 97.853 118.189C83.654 111.587 72.886 98.5041 69.732 82.3821C68.527 76.2221 60.945 74.3691 56.895 78.6981C46.076 90.2641 38.512 103.965 34.405 118.184C29.248 94.8561 28.831 65.0871 29.016 49.9241ZM46.717 190.205C46.4157 188.404 45.4674 186.774 44.0499 185.622C42.6323 184.47 40.8431 183.875 39.018 183.948C38.7042 183.963 38.3901 183.971 38.076 183.973C25.352 183.973 15 173.622 15 160.898C15 148.388 24.972 138.276 37.238 137.843L37.329 137.841C37.8979 137.823 38.4673 137.825 39.036 137.848C39.059 137.849 39.082 137.846 39.105 137.847C40.9159 137.901 42.685 137.298 44.0847 136.147C45.4843 134.997 46.4195 133.378 46.717 131.591C48.6387 120.078 53.0024 109.11 59.515 99.4231C69.839 122.352 92.922 137.853 118.948 137.853H219.248C223.023 138.041 226.696 139.144 229.95 141.067C230.008 141.102 230.07 141.125 230.129 141.158C233.527 143.21 236.336 146.106 238.283 149.565C240.23 153.024 241.248 156.928 241.239 160.897C241.239 173.621 230.887 183.972 218.163 183.972C217.847 183.972 217.533 183.959 217.22 183.947C213.447 183.812 210.145 186.477 209.521 190.204C202.724 230.848 167.75 259.025 128.119 259.025C88.183 259.026 53.466 230.559 46.717 190.205ZM126.753 297.468C112.077 296.734 100.111 285.318 98.609 270.76C98.598 270.651 98.592 270.54 98.582 270.43C98.552 270.106 98.527 269.78 98.508 269.453C108.385 272.605 118.684 274.025 128.121 274.025C137.736 274.025 148.118 272.555 158.019 269.36C157.112 285.694 143.109 298.285 126.753 297.468ZM194.262 260.169H178.205C182.881 257.378 187.315 254.198 191.458 250.664C207.33 237.098 218.427 218.805 223.123 198.652C237.064 196.831 248.656 187.438 253.628 174.75C254.032 178.63 255.09 182.413 256.757 185.94C238.085 195.308 225.702 214.733 225.702 236.1V272.259C217.366 264.749 206.34 260.169 194.262 260.169ZM240.703 274.534V236.1C240.703 219.411 251.013 204.33 266.226 198.085C271.208 202.153 277.207 204.709 283.205 205.59C284.937 212.825 287.664 219.892 290.957 226.121V233.459C290.957 256.107 272.532 274.533 249.884 274.533H240.703V274.534ZM459.328 365.419H278.878V310.118C278.878 293.122 292.706 279.295 309.702 279.295H328.099C328.375 301.442 346.481 319.658 368.975 319.658C391.212 319.658 409.571 301.722 409.852 279.295H428.504C445.5 279.295 459.327 293.122 459.327 310.118V365.419H459.328ZM497 274.534H487.818C465.17 274.534 446.745 256.108 446.745 233.46V226.122C450.087 219.8 452.787 212.734 454.497 205.591C460.425 204.71 466.025 202.314 470.756 198.635C470.995 198.45 471.242 198.278 471.476 198.087C486.69 204.331 497 219.411 497 236.1V274.534Z" fill="#4E4E4E"/>
<path d="M128.12 230.625C142.8 230.625 154.743 218.682 154.743 204.002C154.743 199.859 151.385 196.502 147.243 196.502C143.101 196.502 139.743 199.859 139.743 204.002C139.743 210.411 134.529 215.625 128.12 215.625C121.711 215.625 116.496 210.411 116.496 204.002C116.496 199.859 113.138 196.502 108.996 196.502C104.854 196.502 101.496 199.859 101.496 204.002C101.497 218.681 113.44 230.625 128.12 230.625ZM84.168 151.773C82.1788 151.773 80.2712 152.563 78.8647 153.97C77.4581 155.376 76.668 157.284 76.668 159.273V175.855C76.668 179.998 80.026 183.355 84.168 183.355C88.31 183.355 91.668 179.998 91.668 175.855V159.273C91.668 157.284 90.8778 155.376 89.4713 153.97C88.0647 152.563 86.1571 151.773 84.168 151.773ZM172.072 183.355C174.061 183.355 175.969 182.565 177.375 181.158C178.782 179.752 179.572 177.844 179.572 175.855V159.273C179.572 155.13 176.214 151.773 172.072 151.773C167.93 151.773 164.572 155.13 164.572 159.273V175.855C164.572 177.844 165.362 179.752 166.769 181.158C168.175 182.565 170.083 183.355 172.072 183.355Z" fill="#4E4E4E"/>
</svg>
