<svg width="512" height="512" viewBox="0 0 512 512" fill="none" xmlns="http://www.w3.org/2000/svg">
<g clip-path="url(#clip0_2061_408)">
<path d="M322.408 118.032C321.09 118.032 319.795 117.689 318.65 117.038C317.504 116.387 316.548 115.449 315.873 114.317C315.199 113.185 314.83 111.898 314.802 110.58C314.775 109.263 315.09 107.961 315.717 106.802L330.607 79.2332L330.662 79.1342C342.723 57.5712 338.903 30.3842 321.374 13.0192C319.97 11.5922 319.184 9.66951 319.187 7.66747C319.191 5.66543 319.982 3.74528 321.391 2.32294C322.8 0.900591 324.713 0.0905734 326.715 0.0683411C328.717 0.0461087 330.647 0.813452 332.087 2.20416C354.444 24.3512 359.329 59.0122 343.976 86.5152L329.112 114.036C328.459 115.245 327.491 116.255 326.311 116.959C325.131 117.662 323.782 118.033 322.408 118.032Z" fill="#8CC825"/>
<path d="M398.076 270.043C398.076 270.043 388.254 239.604 386.563 239.137C384.871 238.67 351.381 204.084 349.351 200.363C347.321 196.642 333.835 141.5 333.835 141.5L331.099 110.358L326.448 102.428C326.454 102.415 326.459 102.4 326.466 102.387C326.443 102.374 326.423 102.359 326.401 102.346C317.424 97.3247 305.141 99.2997 290.752 107.093C282.494 111.566 272.885 112.902 263.67 111.09C263.019 110.962 262.366 110.848 261.714 110.728H235.688L198.811 127.141L153.818 158.414L96.755 221.955L61.4648 317.892L89.881 421.225L129.902 475.136L147.966 500.098C152.482 499.481 157.07 499.615 161.542 500.496C239.096 515.748 325.068 474.528 370.156 393.917C392.457 354.049 401.304 310.704 398.076 270.043Z" fill="#FFE02F"/>
<path d="M145.767 476.379C145.256 467.001 141.365 458.114 134.998 451.211C81.4108 393.113 71.5348 298.282 116.624 217.67C149.569 158.768 204.344 120.903 261.712 110.728C184.673 96.5434 99.7639 137.736 55.0547 217.67C9.96654 298.282 19.8416 393.113 73.4288 451.211C79.7958 458.114 83.6868 467.002 84.1978 476.379C85.0888 492.718 89.8348 504.218 98.8129 509.24C107.791 514.262 120.073 512.286 134.462 504.493C139.709 501.651 145.502 500.08 151.393 499.774C148.147 493.852 146.29 485.955 145.767 476.379Z" fill="#FBC700"/>
<path d="M457.718 149.094C437.977 121.563 410.3 102.771 379.284 93.2554H367.449L362.375 118.032V178.288C362.375 178.288 397.388 243.747 400.94 246.538C404.492 249.329 427.834 266.074 428.341 266.835C428.848 267.596 462.085 282.692 462.085 282.692L472.631 283.351C477.809 279.478 481.352 273.807 482.561 267.454C490.411 226.578 482.777 184.04 457.718 149.094Z" fill="#A2E82D"/>
<path d="M395.12 226.789C370.061 191.842 362.427 149.304 370.277 108.427C371.411 102.471 374.598 97.1016 379.285 93.2544C370.884 90.6801 362.29 88.7856 353.586 87.5894C339.872 85.7004 327.136 94.8324 324.525 108.427C316.674 149.304 324.308 191.842 349.368 226.789C374.427 261.735 412.267 282.614 453.502 288.293C457.054 288.789 460.671 288.541 464.123 287.566C467.575 286.591 470.787 284.909 473.555 282.628C442.538 273.112 414.861 254.32 395.12 226.789Z" fill="#98D829"/>
<path d="M103.405 254.36H91.2546C89.2357 254.36 87.2996 253.558 85.8721 252.131C84.4446 250.703 83.6426 248.767 83.6426 246.748C83.6426 244.729 84.4446 242.793 85.8721 241.366C87.2996 239.938 89.2357 239.136 91.2546 239.136H103.405C105.423 239.136 107.36 239.938 108.787 241.366C110.215 242.793 111.017 244.729 111.017 246.748C111.017 248.767 110.215 250.703 108.787 252.131C107.36 253.558 105.423 254.36 103.405 254.36ZM156.249 286.125H144.099C143.099 286.125 142.109 285.928 141.186 285.546C140.262 285.163 139.423 284.603 138.716 283.896C138.009 283.189 137.449 282.35 137.066 281.426C136.683 280.503 136.487 279.513 136.487 278.513C136.487 277.514 136.683 276.524 137.066 275.6C137.449 274.677 138.009 273.838 138.716 273.131C139.423 272.424 140.262 271.863 141.186 271.481C142.109 271.098 143.099 270.901 144.099 270.901H156.249C157.248 270.901 158.238 271.098 159.162 271.481C160.085 271.863 160.924 272.424 161.631 273.131C162.338 273.838 162.899 274.677 163.281 275.6C163.664 276.524 163.861 277.514 163.861 278.513C163.861 279.513 163.664 280.503 163.281 281.426C162.899 282.35 162.338 283.189 161.631 283.896C160.924 284.603 160.085 285.163 159.162 285.546C158.238 285.928 157.248 286.125 156.249 286.125ZM156.249 349.656H144.099C142.08 349.656 140.144 348.854 138.716 347.427C137.289 345.999 136.487 344.063 136.487 342.044C136.487 340.025 137.289 338.089 138.716 336.662C140.144 335.234 142.08 334.432 144.099 334.432H156.249C158.267 334.432 160.204 335.234 161.631 336.662C163.059 338.089 163.861 340.025 163.861 342.044C163.861 344.063 163.059 345.999 161.631 347.427C160.204 348.854 158.267 349.656 156.249 349.656ZM103.405 317.891H91.2546C89.2357 317.891 87.2996 317.089 85.8721 315.662C84.4446 314.234 83.6426 312.298 83.6426 310.279C83.6426 308.26 84.4446 306.324 85.8721 304.897C87.2996 303.469 89.2357 302.667 91.2546 302.667H103.405C105.423 302.667 107.36 303.469 108.787 304.897C110.215 306.324 111.017 308.26 111.017 310.279C111.017 312.298 110.215 314.234 108.787 315.662C107.36 317.089 105.423 317.891 103.405 317.891ZM103.405 381.422H91.2546C89.2357 381.422 87.2996 380.62 85.8721 379.193C84.4446 377.765 83.6426 375.829 83.6426 373.81C83.6426 371.791 84.4446 369.855 85.8721 368.428C87.2996 367 89.2357 366.198 91.2546 366.198H103.405C105.423 366.198 107.36 367 108.787 368.428C110.215 369.855 111.017 371.791 111.017 373.81C111.017 375.829 110.215 377.765 108.787 379.193C107.36 380.62 105.423 381.422 103.405 381.422ZM156.249 413.187H144.099C142.08 413.187 140.144 412.385 138.716 410.958C137.289 409.53 136.487 407.594 136.487 405.575C136.487 403.556 137.289 401.62 138.716 400.193C140.144 398.765 142.08 397.963 144.099 397.963H156.249C158.267 397.963 160.204 398.765 161.631 400.193C163.059 401.62 163.861 403.556 163.861 405.575C163.861 407.594 163.059 409.53 161.631 410.958C160.204 412.385 158.267 413.187 156.249 413.187Z" fill="#FBC700"/>
<path d="M441.69 248.744C440.479 248.745 439.286 248.458 438.209 247.906C437.132 247.353 436.202 246.552 435.498 245.568L359.217 139.189C358.069 137.547 357.615 135.519 357.953 133.545C358.29 131.571 359.392 129.809 361.02 128.642C362.648 127.475 364.67 126.996 366.648 127.31C368.626 127.623 370.401 128.704 371.588 130.318L447.869 236.697C448.684 237.834 449.17 239.173 449.273 240.569C449.377 241.964 449.094 243.361 448.455 244.605C447.817 245.85 446.847 246.895 445.654 247.625C444.46 248.355 443.089 248.742 441.69 248.744Z" fill="#BCED6B"/>
</g>
<defs>
<clipPath id="clip0_2061_408">
<rect width="512" height="512" fill="white"/>
</clipPath>
</defs>
</svg>
