<svg width="428" height="384" viewBox="0 0 428 384" fill="none" xmlns="http://www.w3.org/2000/svg">
<mask id="path-1-inside-1_2059_352" fill="white">
<path d="M203.105 11.7135H224.791V124.371C224.791 125.702 225.269 126.999 226.191 127.977C242.461 145.966 263.197 157.167 281.06 163.061C288.057 165.672 291.584 154.914 284.411 152.849C275.82 150.033 266.456 145.59 257.326 139.685V99.4248C257.326 82.5345 260.887 70.8268 267.702 64.5462C274.546 58.2657 285.748 55.9219 304.498 60.3706C320.023 64.0797 335.343 76.2539 349.355 94.7428C363.372 113.198 375.933 137.785 386.276 165.257C406.898 220.166 418.492 286.618 416.239 339.041C415.466 357.228 408.002 366.45 396.857 370.352C385.684 374.266 369.812 372.139 353.417 363.395L281.151 324.779C266.832 317.133 261.564 310.016 259.106 301.841C256.62 293.661 257.326 283.62 257.326 271.354V191.42C266.604 195.089 275.525 197.467 282.841 197.467C290.1 197.552 290.1 186.59 282.841 186.709C275.667 186.709 261.655 182.437 248.741 175.77C235.822 169.131 223.613 159.977 218.402 152.275C217.899 151.53 217.217 150.924 216.419 150.511C215.621 150.097 214.733 149.89 213.834 149.908C212.976 149.924 212.134 150.147 211.381 150.56C210.629 150.972 209.987 151.56 209.511 152.275C204.322 159.977 192.114 169.136 179.2 175.77C166.252 182.437 152.263 186.709 145.095 186.709C137.836 186.59 137.836 197.547 145.095 197.467C152.406 197.467 161.297 195.095 170.576 191.42V271.36C170.576 283.625 171.287 293.666 168.801 301.847C166.332 310.022 161.064 317.139 146.751 324.784L74.4906 363.395C58.1066 372.139 42.2232 374.266 31.0787 370.352C19.9456 366.45 12.4419 357.228 11.6739 339.041C9.44955 286.618 21.0378 220.166 41.66 165.257C51.974 137.791 64.5578 113.203 78.5809 94.7428C92.5983 76.2483 107.913 64.074 123.438 60.3706C142.194 55.9219 153.339 58.2657 160.177 64.5462C166.986 70.8268 170.576 82.5345 170.576 99.4248V139.634C161.451 145.562 152.059 150.005 143.406 152.849C136.238 154.92 139.788 165.672 146.751 163.061C164.654 157.167 185.39 145.966 201.66 127.977C202.552 126.988 203.047 125.703 203.048 124.371L203.105 11.7135ZM197.74 0.955814C193.946 0.955814 192.376 4.03919 192.376 6.32044L192.285 121.634C188.868 125.279 185.206 128.686 181.322 131.829V99.4191C181.322 81.0781 178.063 65.5475 167.453 56.5988C153.913 45.13 135.72 46.4328 120.935 49.8973C101.848 54.4029 84.907 68.5967 70.0021 88.2746C55.0915 107.924 42.1493 133.308 31.5736 161.456C10.4223 217.788 -1.40485 285.104 0.904839 339.411C1.82644 360.721 12.3793 375.205 27.489 380.507C42.6272 385.821 61.264 382.618 79.5139 372.867L151.837 334.262C167.749 325.78 175.804 315.83 179.098 304.953C182.392 294.087 181.322 283.091 181.322 271.36V186.647C182.238 186.197 183.16 185.811 184.076 185.344C196.193 179.12 206.422 172.686 213.942 163.743C221.463 172.692 231.692 179.126 243.809 185.344C244.725 185.811 245.641 186.197 246.568 186.647V271.36C246.568 283.096 245.527 294.087 248.781 304.953C252.075 315.83 260.136 325.78 276.042 334.262L348.365 372.867C366.621 382.618 385.292 385.815 400.396 380.507C415.539 375.205 426.081 360.715 426.974 339.411C429.278 285.104 417.491 217.788 396.34 161.456C385.758 133.308 372.81 107.924 357.905 88.2746C342.995 68.6024 326.082 54.2323 306.967 49.8973C290.85 46.2906 272.39 45.7558 260.426 56.5988C250.141 65.9059 246.557 81.0781 246.557 99.4191V131.92C242.658 128.76 238.973 125.345 235.526 121.697V6.32044C235.52 4.89457 234.949 3.52925 233.938 2.52367C232.927 1.5181 231.559 0.954295 230.133 0.955814H197.74Z"/>
</mask>
<path d="M203.105 11.7135H224.791V124.371C224.791 125.702 225.269 126.999 226.191 127.977C242.461 145.966 263.197 157.167 281.06 163.061C288.057 165.672 291.584 154.914 284.411 152.849C275.82 150.033 266.456 145.59 257.326 139.685V99.4248C257.326 82.5345 260.887 70.8268 267.702 64.5462C274.546 58.2657 285.748 55.9219 304.498 60.3706C320.023 64.0797 335.343 76.2539 349.355 94.7428C363.372 113.198 375.933 137.785 386.276 165.257C406.898 220.166 418.492 286.618 416.239 339.041C415.466 357.228 408.002 366.45 396.857 370.352C385.684 374.266 369.812 372.139 353.417 363.395L281.151 324.779C266.832 317.133 261.564 310.016 259.106 301.841C256.62 293.661 257.326 283.62 257.326 271.354V191.42C266.604 195.089 275.525 197.467 282.841 197.467C290.1 197.552 290.1 186.59 282.841 186.709C275.667 186.709 261.655 182.437 248.741 175.77C235.822 169.131 223.613 159.977 218.402 152.275C217.899 151.53 217.217 150.924 216.419 150.511C215.621 150.097 214.733 149.89 213.834 149.908C212.976 149.924 212.134 150.147 211.381 150.56C210.629 150.972 209.987 151.56 209.511 152.275C204.322 159.977 192.114 169.136 179.2 175.77C166.252 182.437 152.263 186.709 145.095 186.709C137.836 186.59 137.836 197.547 145.095 197.467C152.406 197.467 161.297 195.095 170.576 191.42V271.36C170.576 283.625 171.287 293.666 168.801 301.847C166.332 310.022 161.064 317.139 146.751 324.784L74.4906 363.395C58.1066 372.139 42.2232 374.266 31.0787 370.352C19.9456 366.45 12.4419 357.228 11.6739 339.041C9.44955 286.618 21.0378 220.166 41.66 165.257C51.974 137.791 64.5578 113.203 78.5809 94.7428C92.5983 76.2483 107.913 64.074 123.438 60.3706C142.194 55.9219 153.339 58.2657 160.177 64.5462C166.986 70.8268 170.576 82.5345 170.576 99.4248V139.634C161.451 145.562 152.059 150.005 143.406 152.849C136.238 154.92 139.788 165.672 146.751 163.061C164.654 157.167 185.39 145.966 201.66 127.977C202.552 126.988 203.047 125.703 203.048 124.371L203.105 11.7135ZM197.74 0.955814C193.946 0.955814 192.376 4.03919 192.376 6.32044L192.285 121.634C188.868 125.279 185.206 128.686 181.322 131.829V99.4191C181.322 81.0781 178.063 65.5475 167.453 56.5988C153.913 45.13 135.72 46.4328 120.935 49.8973C101.848 54.4029 84.907 68.5967 70.0021 88.2746C55.0915 107.924 42.1493 133.308 31.5736 161.456C10.4223 217.788 -1.40485 285.104 0.904839 339.411C1.82644 360.721 12.3793 375.205 27.489 380.507C42.6272 385.821 61.264 382.618 79.5139 372.867L151.837 334.262C167.749 325.78 175.804 315.83 179.098 304.953C182.392 294.087 181.322 283.091 181.322 271.36V186.647C182.238 186.197 183.16 185.811 184.076 185.344C196.193 179.12 206.422 172.686 213.942 163.743C221.463 172.692 231.692 179.126 243.809 185.344C244.725 185.811 245.641 186.197 246.568 186.647V271.36C246.568 283.096 245.527 294.087 248.781 304.953C252.075 315.83 260.136 325.78 276.042 334.262L348.365 372.867C366.621 382.618 385.292 385.815 400.396 380.507C415.539 375.205 426.081 360.715 426.974 339.411C429.278 285.104 417.491 217.788 396.34 161.456C385.758 133.308 372.81 107.924 357.905 88.2746C342.995 68.6024 326.082 54.2323 306.967 49.8973C290.85 46.2906 272.39 45.7558 260.426 56.5988C250.141 65.9059 246.557 81.0781 246.557 99.4191V131.92C242.658 128.76 238.973 125.345 235.526 121.697V6.32044C235.52 4.89457 234.949 3.52925 233.938 2.52367C232.927 1.5181 231.559 0.954295 230.133 0.955814H197.74Z" fill="#1A9426"/>
<path d="M203.105 11.7135V-138.286H53.1807L53.105 11.6378L203.105 11.7135ZM224.791 11.7135H374.791V-138.286H224.791V11.7135ZM226.191 127.977L337.436 27.3569L336.421 26.2346L335.383 25.133L226.191 127.977ZM281.06 163.061L333.503 22.527L330.799 21.518L328.058 20.6137L281.06 163.061ZM284.411 152.849L237.685 295.386L240.286 296.238L242.916 296.996L284.411 152.849ZM257.326 139.685H107.326V221.312L175.867 265.64L257.326 139.685ZM267.702 64.5462L166.281 -45.9697L166.167 -45.8644L166.052 -45.759L267.702 64.5462ZM304.498 60.3706L339.354 -85.5234L339.24 -85.5507L339.125 -85.5779L304.498 60.3706ZM349.355 94.7428L229.807 185.342L229.856 185.407L229.905 185.472L349.355 94.7428ZM386.276 165.257L526.699 112.518L526.678 112.462L526.657 112.407L386.276 165.257ZM416.239 339.041L266.378 332.601L266.376 332.633L266.375 332.666L416.239 339.041ZM396.857 370.352L347.282 228.782L347.274 228.784L347.266 228.787L396.857 370.352ZM353.417 363.395L282.723 495.691L282.777 495.72L282.831 495.749L353.417 363.395ZM281.151 324.779L351.845 192.482L351.825 192.472L351.805 192.461L281.151 324.779ZM259.106 301.841L402.756 258.656L402.691 258.441L402.626 258.226L259.106 301.841ZM257.326 191.42L312.488 51.9311L107.326 -29.203L107.326 191.42H257.326ZM282.841 197.467L284.604 47.4775L283.722 47.4671H282.841V197.467ZM282.841 186.709V336.709H284.075L285.309 336.689L282.841 186.709ZM248.741 175.77L317.556 42.4858L317.428 42.4198L317.3 42.354L248.741 175.77ZM218.402 152.275L342.642 68.2245L342.633 68.2104L342.623 68.1963L218.402 152.275ZM213.834 149.908L216.613 299.882L216.709 299.88L216.804 299.879L213.834 149.908ZM209.511 152.275L333.921 236.072L334.134 235.756L334.345 235.439L209.511 152.275ZM179.2 175.77L110.665 42.3424L110.597 42.3771L110.529 42.4119L179.2 175.77ZM145.095 186.709L142.627 336.689L143.861 336.709H145.095V186.709ZM145.095 197.467V47.4671H144.273L143.45 47.4761L145.095 197.467ZM170.576 191.42H320.576V-29.3289L115.339 51.9604L170.576 191.42ZM168.801 301.847L25.2818 258.232L25.2443 258.355L25.2071 258.479L168.801 301.847ZM146.751 324.784L76.0753 192.478L76.0679 192.482L76.0606 192.486L146.751 324.784ZM74.4906 363.395L145.115 495.729L145.148 495.711L145.181 495.693L74.4906 363.395ZM31.0787 370.352L80.7825 228.827L80.7407 228.812L80.6989 228.797L31.0787 370.352ZM11.6739 339.041L161.54 332.712L161.54 332.697L161.539 332.682L11.6739 339.041ZM41.66 165.257L182.083 217.995L182.086 217.989L41.66 165.257ZM78.5809 94.7428L198.027 185.477L198.076 185.413L198.125 185.348L78.5809 94.7428ZM123.438 60.3706L88.8204 -85.5802L88.7262 -85.5579L88.6321 -85.5354L123.438 60.3706ZM160.177 64.5462L261.873 -45.7167L261.758 -45.8223L261.644 -45.9277L160.177 64.5462ZM170.576 139.634L252.291 265.422L320.576 221.062V139.634H170.576ZM143.406 152.849L185.037 296.956L187.658 296.199L190.249 295.347L143.406 152.849ZM146.751 163.061L99.8468 20.5826L96.9439 21.5382L94.0824 22.6113L146.751 163.061ZM201.66 127.977L312.905 228.598L312.979 228.516L313.052 228.435L201.66 127.977ZM203.048 124.371L353.048 124.512L353.048 124.479L353.048 124.446L203.048 124.371ZM192.376 6.32044L342.376 6.43886L342.376 6.37965V6.32044H192.376ZM192.285 121.634L301.73 224.209L342.238 180.989L342.285 121.753L192.285 121.634ZM181.322 131.829H31.3223V446.212L275.692 248.423L181.322 131.829ZM167.453 56.5988L70.5011 171.056L70.6222 171.158L70.7434 171.261L167.453 56.5988ZM120.935 49.8973L86.7135 -96.1469L86.5928 -96.1186L86.4721 -96.0901L120.935 49.8973ZM70.0021 88.2746L189.494 178.948L189.534 178.896L189.573 178.843L70.0021 88.2746ZM31.5736 161.456L-108.843 108.701L-108.848 108.715L-108.854 108.729L31.5736 161.456ZM0.904839 339.411L-148.96 345.784L-148.957 345.838L-148.955 345.891L0.904839 339.411ZM27.489 380.507L77.1671 238.972L77.1555 238.968L27.489 380.507ZM79.5139 372.867L8.87926 240.539L8.85324 240.553L8.82723 240.567L79.5139 372.867ZM151.837 334.262L81.2755 201.895L81.2388 201.914L81.2021 201.934L151.837 334.262ZM179.098 304.953L35.5487 261.437L35.5424 261.458L35.5361 261.479L179.098 304.953ZM181.322 186.647L115.246 51.9847L31.3223 93.1645V186.647H181.322ZM184.076 185.344L252.152 319.006L252.38 318.89L252.607 318.774L184.076 185.344ZM213.942 163.743L328.774 67.2355L213.979 -69.3547L99.1413 67.1995L213.942 163.743ZM243.809 185.344L175.327 318.799L175.53 318.903L175.733 319.006L243.809 185.344ZM246.568 186.647H396.568V92.6573L311.989 51.6649L246.568 186.647ZM248.781 304.953L105.086 347.986L105.153 348.207L105.219 348.427L248.781 304.953ZM276.042 334.262L346.677 201.934L346.65 201.92L346.623 201.905L276.042 334.262ZM348.365 372.867L419.035 240.557L419.017 240.548L419 240.539L348.365 372.867ZM400.396 380.507L350.829 238.933L350.747 238.962L350.665 238.991L400.396 380.507ZM426.974 339.411L277.109 333.052L277.107 333.09L277.106 333.128L426.974 339.411ZM396.34 161.456L536.767 108.729L536.757 108.702L536.747 108.676L396.34 161.456ZM357.905 88.2746L238.363 178.882L238.38 178.904L238.397 178.926L357.905 88.2746ZM306.967 49.8973L340.142 -96.388L339.934 -96.4353L339.725 -96.4819L306.967 49.8973ZM260.426 56.5988L361.07 167.823L361.114 167.783L361.159 167.743L260.426 56.5988ZM246.557 131.92L152.109 248.452L396.557 446.573L396.557 131.92H246.557ZM235.526 121.697H85.526V181.355L126.5 224.717L235.526 121.697ZM235.526 6.32044H385.526V6.00369L385.525 5.68694L235.526 6.32044ZM230.133 0.955814V150.956H230.213L230.293 150.956L230.133 0.955814ZM203.105 11.7135V161.714H224.791V11.7135V-138.286H203.105V11.7135ZM224.791 11.7135H74.7911V124.371H224.791H374.791V11.7135H224.791ZM224.791 124.371H74.7911C74.7911 161.285 88.1061 200.146 116.998 230.822L226.191 127.977L335.383 25.133C362.432 53.8512 374.791 90.1182 374.791 124.371H224.791ZM226.191 127.977L114.945 228.598C152.296 269.893 197.261 293.366 234.061 305.508L281.06 163.061L328.058 20.6137C329.303 21.0243 330.267 21.4632 331.346 22.1236C332.478 22.8166 334.745 24.3823 337.436 27.3569L226.191 127.977ZM281.06 163.061L228.617 303.594C269.03 318.675 316.797 317.28 358.848 293.726C397.24 272.221 420.099 238.409 430.578 206.458C441.061 174.5 442.634 133.829 424.578 93.89C404.809 50.1628 367.38 20.6419 325.906 8.7028L284.411 152.849L242.916 296.996C205.028 286.089 169.848 258.687 151.217 217.476C134.298 180.054 135.898 142.296 145.52 112.959C155.14 83.6297 176.254 52.1457 212.241 31.9884C251.886 9.78192 296.589 8.75171 333.503 22.527L281.06 163.061ZM284.411 152.849L331.136 10.3124C333.601 11.1204 335.291 11.8635 336.317 12.359C337.374 12.8698 338.164 13.3292 338.784 13.7306L257.326 139.685L175.867 265.64C195.025 278.03 215.99 288.274 237.685 295.386L284.411 152.849ZM257.326 139.685H407.326V99.4248H257.326H107.326V139.685H257.326ZM257.326 99.4248H407.326C407.326 100.607 407.307 108.827 403.665 121.001C399.973 133.34 390.895 154.999 369.353 174.851L267.702 64.5462L166.052 -45.759C111.554 4.46329 107.326 71.015 107.326 99.4248H257.326ZM267.702 64.5462L369.123 175.062C347.384 195.012 322.45 204.268 301.824 207.07C283.653 209.538 271.578 206.724 269.871 206.319L304.498 60.3706L339.125 -85.5779C301.252 -94.5635 227.468 -102.121 166.281 -45.9697L267.702 64.5462ZM304.498 60.3706L269.642 206.264C252.209 202.1 240.928 194.691 235.72 190.663C230.501 186.626 228.823 184.044 229.807 185.342L349.355 94.7428L468.903 4.14364C445.308 -26.9914 403.321 -70.2408 339.354 -85.5234L304.498 60.3706ZM349.355 94.7428L229.905 185.472C232.351 188.691 238.724 199.059 245.895 218.107L386.276 165.257L526.657 112.407C513.143 76.5113 494.394 37.7038 468.805 4.01396L349.355 94.7428ZM386.276 165.257L245.853 217.995C260.353 256.603 267.653 302.929 266.378 332.601L416.239 339.041L566.101 345.481C569.331 270.306 553.443 183.728 526.699 112.518L386.276 165.257ZM416.239 339.041L266.375 332.666C266.782 323.093 269.532 301.153 285.379 277.225C302.485 251.398 326.298 236.13 347.282 228.782L396.857 370.352L446.432 511.923C478.561 500.672 511.678 478.842 535.495 442.882C558.054 408.821 564.923 373.176 566.104 345.416L416.239 339.041ZM396.857 370.352L347.266 228.787C369.995 220.825 388.942 221.685 399.807 223.35C411.269 225.105 419.288 228.526 424.003 231.041L353.417 363.395L282.831 495.749C320.449 515.811 381.482 534.676 446.448 511.918L396.857 370.352ZM353.417 363.395L424.111 231.099L351.845 192.482L281.151 324.779L210.457 457.075L282.723 495.691L353.417 363.395ZM281.151 324.779L351.805 192.461C354.328 193.808 365.01 199.775 376.69 212.627C390.023 227.299 398.313 243.879 402.756 258.656L259.106 301.841L115.457 345.026C132.42 401.452 171.386 436.212 210.497 457.097L281.151 324.779ZM259.106 301.841L402.626 258.226C405.038 266.164 406.119 272.7 406.637 276.872C407.144 280.957 407.219 283.707 407.231 284.151C407.241 284.512 407.222 284.147 407.247 281.607C407.265 279.826 407.326 275.397 407.326 271.354H257.326H107.326C107.326 273.444 107.299 274.87 107.262 278.677C107.232 281.725 107.193 286.681 107.337 292.108C107.601 302.061 108.55 322.3 115.587 345.456L259.106 301.841ZM257.326 271.354H407.326V191.42H257.326H107.326V271.354H257.326ZM257.326 191.42L202.163 330.908C217.901 337.132 247.551 347.467 282.841 347.467V197.467V47.4671C294.646 47.4671 303.016 49.2725 306.468 50.1173C310.327 51.0613 312.421 51.9046 312.488 51.9311L257.326 191.42ZM282.841 197.467L281.077 347.457C323.954 347.961 367.477 330.723 398.697 295.839C427.33 263.845 438.285 225.4 438.285 192.075C438.285 158.761 427.329 120.175 398.487 88.0842C367.021 53.0728 323.251 36.024 280.372 36.7297L282.841 186.709L285.309 336.689C246.06 337.335 205.012 321.612 175.36 288.62C148.333 258.548 138.285 222.675 138.285 192.075C138.285 161.466 148.332 125.738 175.15 95.7718C204.556 62.9157 245.356 47.0161 284.604 47.4775L282.841 197.467ZM282.841 186.709V36.7094C294.434 36.7094 302.742 38.2553 305.713 38.8492C309.508 39.6081 312.028 40.3592 313.165 40.7188C315.289 41.3905 316.45 41.915 317.556 42.4858L248.741 175.77L179.927 309.054C193.946 316.292 208.57 322.286 222.722 326.761C233.61 330.204 256.247 336.709 282.841 336.709V186.709ZM248.741 175.77L317.3 42.354C318.196 42.8145 319.623 43.5973 321.997 45.4193C323.267 46.394 325.649 48.3118 328.709 51.3215C331.49 54.0568 336.85 59.6628 342.642 68.2245L218.402 152.275L94.1624 236.325C120.547 275.326 159.645 298.632 180.183 309.185L248.741 175.77ZM218.402 152.275L342.623 68.1963C328.096 46.733 308.431 29.2444 285.418 17.3225L216.419 150.511L147.42 283.699C126.003 272.604 107.701 256.328 94.1815 236.353L218.402 152.275ZM216.419 150.511L285.418 17.3225C262.404 5.39984 236.775 -0.575752 210.864 -0.0625842L213.834 149.908L216.804 299.879C192.691 300.356 168.838 294.795 147.42 283.699L216.419 150.511ZM213.834 149.908L211.056 -0.0662554C185.971 0.398509 161.37 6.9335 139.36 18.9813L211.381 150.56L283.403 282.138C262.899 293.361 239.982 299.449 216.613 299.882L213.834 149.908ZM211.381 150.56L139.36 18.9813C117.351 31.028 98.5881 48.2276 84.6764 69.1097L209.511 152.275L334.345 235.439C321.385 254.893 303.906 270.916 283.403 282.138L211.381 150.56ZM209.511 152.275L85.1004 68.4768C90.9218 59.8339 96.3215 54.1756 99.1211 51.417C102.203 48.3804 104.605 46.4443 105.888 45.4586C108.288 43.6153 109.741 42.8167 110.665 42.3424L179.2 175.77L247.736 309.197C268.25 298.66 307.51 275.284 333.921 236.072L209.511 152.275ZM179.2 175.77L110.529 42.4119C111.533 41.8952 112.635 41.3906 114.744 40.7234C115.871 40.367 118.39 39.6151 122.19 38.8546C125.166 38.259 133.487 36.7094 145.095 36.7094V186.709V336.709C171.711 336.709 194.358 330.191 205.217 326.756C219.349 322.286 233.92 316.311 247.871 309.127L179.2 175.77ZM145.095 186.709L147.564 36.7297C104.712 36.0245 60.9471 53.0521 29.4708 88.059C0.615306 120.151 -10.3488 158.747 -10.3488 192.073C-10.3488 225.412 0.613547 263.843 29.2258 295.822C60.4146 330.68 103.892 347.928 146.741 347.458L145.095 197.467L143.45 47.4761C182.67 47.0458 223.425 62.954 252.799 95.784C279.596 125.734 289.651 161.449 289.651 192.073C289.651 222.686 279.594 258.569 252.554 288.643C222.892 321.632 181.849 337.335 142.627 336.689L145.095 186.709ZM145.095 197.467V347.467C180.408 347.467 210.05 337.122 225.812 330.879L170.576 191.42L115.339 51.9604C115.403 51.9352 117.519 51.082 121.41 50.1288C124.908 49.2719 133.293 47.4671 145.095 47.4671V197.467ZM170.576 191.42H20.576V271.36H170.576H320.576V191.42H170.576ZM170.576 271.36H20.576C20.576 275.422 20.6378 279.845 20.6557 281.641C20.681 284.19 20.663 284.557 20.6724 284.199C20.684 283.757 20.7586 281.003 21.2656 276.911C21.7834 272.733 22.8651 266.185 25.2818 258.232L168.801 301.847L312.32 345.462C319.365 322.278 320.308 302.017 320.569 292.071C320.711 286.648 320.671 281.693 320.641 278.654C320.603 274.862 320.576 273.431 320.576 271.36H170.576ZM168.801 301.847L25.2071 258.479C29.6452 243.784 37.9133 227.26 51.2188 212.622C62.8801 199.792 73.5445 193.83 76.0753 192.478L146.751 324.784L217.426 457.091C256.563 436.185 295.407 401.464 312.395 345.215L168.801 301.847ZM146.751 324.784L76.0606 192.486L3.80028 231.096L74.4906 363.395L145.181 495.693L217.441 457.083L146.751 324.784ZM74.4906 363.395L3.86661 231.061C8.61357 228.528 16.642 225.107 28.1022 223.351C38.9393 221.69 57.9512 220.808 80.7825 228.827L31.0787 370.352L-18.6251 511.878C46.4071 534.717 107.53 515.787 145.115 495.729L74.4906 363.395ZM31.0787 370.352L80.6989 228.797C101.608 236.127 125.362 251.338 142.459 277.091C158.335 301.007 161.13 322.986 161.54 332.712L11.6739 339.041L-138.193 345.369C-137.014 373.283 -130.084 408.967 -107.48 443.015C-83.6562 478.902 -50.584 500.675 -18.5415 511.907L31.0787 370.352ZM11.6739 339.041L161.539 332.682C160.277 302.944 167.589 256.588 182.083 217.995L41.66 165.257L-98.763 112.518C-125.513 183.744 -141.378 270.291 -138.191 345.4L11.6739 339.041ZM41.66 165.257L182.086 217.989C189.171 199.121 195.545 188.745 198.027 185.477L78.5809 94.7428L-40.8647 4.00835C-66.429 37.6619 -85.2227 76.4602 -98.7654 112.524L41.66 165.257ZM78.5809 94.7428L198.125 185.348C199.121 184.033 197.447 186.614 192.223 190.655C187.009 194.688 175.707 202.111 158.244 206.277L123.438 60.3706L88.6321 -85.5354C24.6061 -70.2621 -17.3899 -26.9643 -40.963 4.13799L78.5809 94.7428ZM123.438 60.3706L158.055 206.321C156.406 206.713 144.286 209.548 126.04 207.064C105.262 204.235 80.3563 194.902 58.7098 175.02L160.177 64.5462L261.644 -45.9277C200.477 -102.107 126.736 -94.5733 88.8204 -85.5802L123.438 60.3706ZM160.177 64.5462L58.4806 174.809C37.0432 155.037 27.972 133.484 24.2671 121.146C20.6082 108.961 20.576 100.707 20.576 99.4248H170.576H320.576C320.576 70.6987 316.188 4.37902 261.873 -45.7167L160.177 64.5462ZM170.576 99.4248H20.576V139.634H170.576H320.576V99.4248H170.576ZM170.576 139.634L88.8608 13.8458C89.6174 13.3543 90.4945 12.8496 91.5791 12.3258C92.6376 11.8146 94.2614 11.1075 96.5623 10.3511L143.406 152.849L190.249 295.347C211.779 288.27 232.837 278.06 252.291 265.422L170.576 139.634ZM143.406 152.849L101.775 8.74202C60.2698 20.7324 22.8507 50.3319 3.14193 94.12C-14.8481 134.089 -13.1898 174.718 -2.71163 206.576C7.76053 238.416 30.561 272.175 68.8963 293.68C110.936 317.263 158.82 318.735 199.419 303.51L146.751 163.061L94.0824 22.6113C131.2 8.69209 176.029 9.79912 215.669 32.0357C251.604 52.1941 272.66 83.6258 282.27 112.845C291.886 142.083 293.566 179.798 276.709 217.251C258.133 258.522 222.958 286.001 185.037 296.956L143.406 152.849ZM146.751 163.061L193.655 305.539C230.552 293.392 275.543 269.905 312.905 228.598L201.66 127.977L90.4147 27.3569C93.1069 24.3804 95.3821 22.8075 96.5298 22.1053C97.6238 21.4359 98.5999 20.9931 99.8468 20.5826L146.751 163.061ZM201.66 127.977L313.052 228.435C338.765 199.924 353.012 162.904 353.048 124.512L203.048 124.371L53.0482 124.229C53.0818 88.5018 66.3403 54.0515 90.2677 27.5196L201.66 127.977ZM203.048 124.371L353.048 124.446L353.105 11.7892L203.105 11.7135L53.105 11.6378L53.0482 124.295L203.048 124.371ZM197.74 0.955814V-149.044C150.207 -149.044 106.586 -127.586 77.6945 -92.3897C52.5422 -61.7486 42.3758 -25.7868 42.3758 6.32044H192.376H342.376C342.376 36.1464 332.994 69.4259 309.576 97.955C282.418 131.039 241.479 150.956 197.74 150.956V0.955814ZM192.376 6.32044L42.3758 6.20201L42.2848 121.516L192.285 121.634L342.285 121.753L342.376 6.43886L192.376 6.32044ZM192.285 121.634L82.8391 19.0591C84.1209 17.6915 85.4953 16.4134 86.9525 15.2339L181.322 131.829L275.692 248.423C284.916 240.958 293.616 232.867 301.73 224.209L192.285 121.634ZM181.322 131.829H331.322V99.4191H181.322H31.3223V131.829H181.322ZM181.322 99.4191H331.322C331.322 75.0228 329.631 -2.84461 264.162 -58.0629L167.453 56.5988L70.7434 171.261C47.842 151.945 38.2049 129.564 34.4395 116.737C31.0083 105.049 31.3223 97.7735 31.3223 99.4191H181.322ZM167.453 56.5988L264.404 -57.858C192.526 -118.743 109.453 -101.475 86.7135 -96.1469L120.935 49.8973L155.156 195.942C154.624 196.066 145.831 198.267 132.19 197.129C116.902 195.853 92.8719 190.005 70.5011 171.056L167.453 56.5988ZM120.935 49.8973L86.4721 -96.0901C18.4495 -80.0323 -25.2865 -34.353 -49.5693 -2.29409L70.0021 88.2746L189.573 178.843C191.318 176.541 190.293 178.468 185.752 181.985C180.957 185.699 170.814 192.245 155.397 195.885L120.935 49.8973ZM70.0021 88.2746L-49.4895 -2.3993C-75.8441 32.3313 -94.9939 71.8393 -108.843 108.701L31.5736 161.456L171.99 214.212C179.292 194.776 186.027 183.517 189.494 178.948L70.0021 88.2746ZM31.5736 161.456L-108.854 108.729C-136.11 181.32 -152.237 268.737 -148.96 345.784L0.904839 339.411L150.769 333.037C149.427 301.472 156.955 254.256 172.001 214.184L31.5736 161.456ZM0.904839 339.411L-148.955 345.891C-145.916 416.165 -105.959 492.647 -22.1775 522.046L27.489 380.507L77.1555 238.968C100.67 247.22 120.427 262.917 133.597 282.627C146.412 301.806 150.223 320.395 150.765 332.93L0.904839 339.411ZM27.489 380.507L-22.1891 522.042C46.8387 546.27 110.719 526.262 150.201 505.167L79.5139 372.867L8.82723 240.567C11.9797 238.882 18.8856 235.713 29.5833 234.072C40.4058 232.411 57.4246 232.043 77.1671 238.972L27.489 380.507ZM79.5139 372.867L150.149 505.195L222.471 466.59L151.837 334.262L81.2021 201.934L8.87926 240.539L79.5139 372.867ZM151.837 334.262L222.398 466.63C264.419 444.229 305.139 406.284 322.66 348.427L179.098 304.953L35.5361 261.479C40.3426 245.607 48.5418 231.459 58.6816 220.187C68.2551 209.545 77.1862 204.075 81.2755 201.895L151.837 334.262ZM179.098 304.953L322.647 348.469C329.687 325.244 331.067 305.013 331.395 292.364C331.556 286.154 331.47 280.627 331.416 277.462C331.347 273.411 331.322 272.601 331.322 271.36H181.322H31.3223C31.3223 273.93 31.3514 276.253 31.3805 278.094C31.3951 279.017 31.4109 279.895 31.4244 280.63C31.4388 281.418 31.4497 282.001 31.4599 282.598C31.5033 285.133 31.4791 285.234 31.4956 284.597C31.5345 283.096 31.8023 273.796 35.5487 261.437L179.098 304.953ZM181.322 271.36H331.322V186.647H181.322H31.3223V271.36H181.322ZM181.322 186.647L247.399 321.309C246.368 321.815 245.585 322.181 245.272 322.327C245.099 322.407 244.777 322.555 245.355 322.289C245.698 322.132 246.602 321.716 247.683 321.203C248.805 320.671 250.348 319.925 252.152 319.006L184.076 185.344L115.999 51.6818C117.345 50.9963 118.43 50.474 119.093 50.1596C119.429 50.0001 119.691 49.8776 119.845 49.8062C119.992 49.7379 120.082 49.6965 120.042 49.7148C120.022 49.7244 119.998 49.7352 119.93 49.7663C119.875 49.792 119.78 49.8354 119.677 49.8827C119.472 49.9769 119.14 50.1299 118.749 50.312C118.351 50.4968 117.846 50.7335 117.266 51.0091C116.684 51.2857 116.003 51.6132 115.246 51.9847L181.322 186.647ZM184.076 185.344L252.607 318.774C269.269 310.216 301.445 292.748 328.743 260.287L213.942 163.743L99.1413 67.1995C105.633 59.4807 111.673 54.8043 114.779 52.6328C117.558 50.6895 118.596 50.3474 115.544 51.9145L184.076 185.344ZM213.942 163.743L99.1111 260.251C126.425 292.751 158.624 310.228 175.327 318.799L243.809 185.344L312.291 51.8891C309.256 50.332 310.31 50.6821 313.106 52.6371C316.229 54.8207 322.279 59.5073 328.774 67.2355L213.942 163.743ZM243.809 185.344L175.733 319.006C177.485 319.899 178.993 320.629 180.119 321.164C181.212 321.683 182.12 322.102 182.527 322.289C182.638 322.34 182.737 322.385 182.805 322.416C182.889 322.455 182.91 322.464 182.951 322.483C183.017 322.514 182.96 322.487 182.853 322.438C182.647 322.343 182.007 322.046 181.147 321.629L246.568 186.647L311.989 51.6649C311.315 51.3383 310.71 51.0504 310.196 50.808C309.938 50.6864 309.699 50.5744 309.483 50.4734C309.267 50.3726 309.07 50.2809 308.896 50.2005C308.722 50.1202 308.567 50.0485 308.437 49.9885C308.307 49.929 308.193 49.8765 308.107 49.8371C308.064 49.8172 308.024 49.7988 307.992 49.784C307.976 49.7767 307.959 49.7692 307.946 49.7631C307.932 49.7567 307.92 49.7512 307.909 49.746C307.861 49.7241 307.845 49.7169 307.842 49.7151C307.839 49.7142 307.864 49.7254 307.905 49.7446C307.948 49.764 308.014 49.7949 308.1 49.8346C308.185 49.8745 308.295 49.9255 308.423 49.9858C308.552 50.0461 308.703 50.1175 308.873 50.1985C309.213 50.3598 309.643 50.5665 310.145 50.812C310.647 51.0581 311.232 51.3491 311.885 51.6818L243.809 185.344ZM246.568 186.647H96.5681V271.36H246.568H396.568V186.647H246.568ZM246.568 271.36H96.5681C96.5681 272.669 96.5432 273.507 96.4765 277.572C96.4243 280.755 96.3439 286.25 96.5061 292.424C96.8364 304.989 98.2035 325.003 105.086 347.986L248.781 304.953L392.476 261.92C396.105 274.037 396.365 283.123 396.403 284.541C396.418 285.142 396.395 285.01 396.436 282.492C396.446 281.901 396.456 281.316 396.47 280.537C396.483 279.808 396.498 278.936 396.512 278.023C396.54 276.199 396.568 273.9 396.568 271.36H246.568ZM248.781 304.953L105.219 348.427C122.746 406.304 163.488 444.236 205.461 466.619L276.042 334.262L346.623 201.905C350.706 204.082 359.626 209.547 369.191 220.178C379.322 231.438 387.53 245.585 392.343 261.479L248.781 304.953ZM276.042 334.262L205.408 466.59L277.731 505.195L348.365 372.867L419 240.539L346.677 201.934L276.042 334.262ZM348.365 372.867L277.696 505.176C317.175 526.263 381.112 546.276 450.126 522.023L400.396 380.507L350.665 238.991C370.485 232.026 387.529 232.416 398.289 234.066C408.952 235.7 415.848 238.855 419.035 240.557L348.365 372.867ZM400.396 380.507L449.962 522.081C533.898 492.694 573.892 416.08 576.843 345.693L426.974 339.411L277.106 333.128C277.633 320.563 281.432 301.907 294.286 282.658C307.502 262.867 327.317 247.165 350.829 238.933L400.396 380.507ZM426.974 339.411L576.839 345.769C580.105 268.792 564.048 181.385 536.767 108.729L396.34 161.456L255.912 214.184C270.934 254.191 278.451 301.417 277.109 333.052L426.974 339.411ZM396.34 161.456L536.747 108.676C522.889 71.8116 503.739 32.3277 477.414 -2.37734L357.905 88.2746L238.397 178.926C241.882 183.52 248.627 194.804 255.932 214.237L396.34 161.456ZM357.905 88.2746L477.448 -2.3327C453.897 -33.4041 409.775 -80.5963 340.142 -96.388L306.967 49.8973L273.792 196.183C257.438 192.474 246.787 185.52 241.95 181.759C237.37 178.199 236.414 176.31 238.363 178.882L357.905 88.2746ZM306.967 49.8973L339.725 -96.4819C317.463 -101.464 230.657 -118.86 159.694 -54.5451L260.426 56.5988L361.159 167.743C336.451 190.136 310.038 195.856 296.306 197.159C283.312 198.392 275.131 196.483 274.209 196.277L306.967 49.8973ZM260.426 56.5988L159.783 -54.6257C100.66 -1.12698 96.5568 69.9089 96.5568 99.4191H246.557H396.557C396.557 99.6009 396.554 101.287 396.213 104.138C395.874 106.967 395.107 111.748 393.27 117.85C389.492 130.404 380.593 150.157 361.07 167.823L260.426 56.5988ZM246.557 99.4191H96.5568V131.92H246.557H396.557V99.4191H246.557ZM246.557 131.92L341.004 15.3878C342.258 16.4044 343.444 17.5029 344.552 18.6762L235.526 121.697L126.5 224.717C134.502 233.186 143.057 241.115 152.109 248.452L246.557 131.92ZM235.526 121.697H385.526V6.32044H235.526H85.526V121.697H235.526ZM235.526 6.32044L385.525 5.68694C385.351 -35.4383 368.881 -74.8183 339.723 -103.822L233.938 2.52367L128.153 108.87C101.017 81.8768 85.689 45.2274 85.5273 6.95393L235.526 6.32044ZM233.938 2.52367L339.723 -103.822C310.565 -132.827 271.099 -149.088 229.973 -149.044L230.133 0.955814L230.293 150.956C192.019 150.996 155.289 135.863 128.153 108.87L233.938 2.52367ZM230.133 0.955814V-149.044H197.74V0.955814V150.956H230.133V0.955814Z" fill="#1A9426" mask="url(#path-1-inside-1_2059_352)"/>
</svg>
