<svg width="512" height="512" viewBox="0 0 512 512" fill="none" xmlns="http://www.w3.org/2000/svg">
<path d="M454.32 219.727L415.554 167.78L436.369 106.395C437.372 103.438 437.528 100.259 436.818 97.2179C436.108 94.1769 434.562 91.3951 432.354 89.1871C430.146 86.979 427.364 85.4328 424.323 84.7232C421.282 84.0137 418.103 84.1691 415.146 85.172L353.762 105.987L301.813 67.221C299.311 65.3542 296.336 64.2248 293.224 63.9603C290.113 63.6959 286.99 64.3069 284.209 65.7245C281.427 67.142 279.097 69.3095 277.482 71.9819C275.868 74.6543 275.033 77.725 275.072 80.847L275.901 145.662L222.978 183.088C220.429 184.891 218.435 187.371 217.221 190.249C216.008 193.126 215.624 196.285 216.112 199.369C216.6 202.453 217.942 205.34 219.985 207.701C222.028 210.063 224.691 211.806 227.672 212.733L271.515 226.362L14.4432 483.432C7.90824 489.966 7.90824 500.563 14.4432 507.098C20.9782 513.633 31.5742 513.633 38.1092 507.098L295.181 250.025L308.81 293.869C309.737 296.851 311.48 299.514 313.841 301.558C316.203 303.601 319.089 304.943 322.173 305.431C325.258 305.92 328.417 305.535 331.295 304.322C334.172 303.108 336.652 301.114 338.455 298.564L375.881 245.641L440.696 246.469L440.91 246.47C444.014 246.469 447.057 245.605 449.698 243.974C452.339 242.344 454.475 240.011 455.866 237.236C457.257 234.461 457.85 231.354 457.577 228.262C457.304 225.17 456.176 222.215 454.32 219.727ZM367.51 212.063C364.797 212.026 362.115 212.65 359.698 213.882C357.28 215.114 355.199 216.917 353.634 219.134L330.705 251.555C317.938 210.48 318.608 210.606 314.772 206.769C310.66 202.657 310.036 203.284 269.986 190.835L302.409 167.907C304.624 166.34 306.425 164.258 307.656 161.841C308.888 159.424 309.514 156.744 309.48 154.031L308.972 114.325L340.797 138.073C342.972 139.696 345.508 140.765 348.187 141.19C350.867 141.615 353.61 141.381 356.179 140.51L393.785 127.757L381.032 165.364C380.16 167.933 379.927 170.676 380.351 173.356C380.776 176.036 381.846 178.572 383.469 180.746L407.217 212.571L367.51 212.063ZM173.373 67.274L160.014 42.848L146.656 67.274L122.23 80.632L146.656 93.992L160.014 118.417L173.373 93.992L197.799 80.632L173.373 67.274ZM362.946 384.489L352.14 364.731L341.335 384.489L321.577 395.294L341.335 406.1L352.14 425.856L362.946 406.1L382.703 395.294L362.946 384.489ZM378.142 19.757L367.337 0L356.531 19.757L336.774 30.563L356.531 41.369L367.337 61.126L378.142 41.369L397.9 30.563L378.142 19.757ZM490.635 142.513L484.167 130.689L477.701 142.513L465.876 148.979L477.701 155.446L484.167 167.27L490.635 155.446L502.458 148.979L490.635 142.513ZM492.626 294.117L465.876 301.951L439.128 294.117L446.962 320.865L439.128 347.615L465.876 339.781L492.626 347.615L484.791 320.865L492.626 294.117Z" fill="#2225C2"/>
</svg>
