<svg width="448" height="512" viewBox="0 0 448 512" fill="none" xmlns="http://www.w3.org/2000/svg">
<mask id="path-1-inside-1_2060_404" fill="white">
<path d="M375.336 287.408C375.34 283.337 374.693 279.291 373.42 275.424C380.646 267.474 384.434 256.99 383.959 246.257C383.484 235.525 378.784 225.416 370.884 218.136C378.274 209.853 382.378 199.152 382.424 188.052C382.351 180.093 380.22 172.289 376.239 165.397C372.258 158.505 366.562 152.76 359.704 148.72C361.192 144.711 361.952 140.468 361.948 136.192C361.818 126.849 358.191 117.895 351.783 111.095C345.375 104.295 336.651 100.144 327.332 99.46L327.216 99.344C323.931 91.0354 318.282 83.8718 310.969 78.739C303.656 73.6063 294.999 70.7294 286.068 70.464C282.274 65.883 277.504 62.2072 272.107 59.705C266.711 57.2027 260.824 55.9372 254.876 56.0009C248.928 56.0645 243.069 57.4556 237.727 60.0728C232.385 62.6899 227.696 66.4669 224 71.128C220.304 66.4669 215.615 62.6899 210.273 60.0728C204.931 57.4556 199.072 56.0645 193.124 56.0009C187.176 55.9372 181.289 57.2027 175.893 59.705C170.496 62.2072 165.726 65.883 161.932 70.464C153.039 70.7306 144.417 73.5861 137.123 78.6804C129.829 83.7747 124.18 90.8865 120.868 99.144C120.752 99.252 120.648 99.364 120.536 99.476C111.243 100.189 102.552 104.351 96.1718 111.145C89.7911 117.938 86.1814 126.873 86.052 136.192C86.048 140.468 86.8079 144.711 88.296 148.72C81.4382 152.76 75.7419 158.505 71.7608 165.397C67.7796 172.289 65.649 180.093 65.576 188.052C65.6217 199.152 69.7263 209.853 77.116 218.136C69.216 225.416 64.5158 235.525 64.0407 246.257C63.5656 256.99 67.3542 267.474 74.58 275.424C73.3071 279.291 72.6603 283.337 72.664 287.408C72.7859 296.453 75.9477 305.194 81.6405 312.224C87.3333 319.254 95.2259 324.164 104.048 326.164C105.965 335.76 111.166 344.387 118.756 350.563C126.346 356.738 135.851 360.075 145.636 360C155.724 360 165.236 351.52 168.548 342.396C169.245 340.408 169.129 338.225 168.227 336.322C167.324 334.419 165.707 332.948 163.726 332.23C161.746 331.511 159.562 331.603 157.649 332.485C155.736 333.367 154.248 334.968 153.508 336.94C152.824 338.641 151.759 340.162 150.394 341.387C149.029 342.611 147.401 343.505 145.636 344C139.02 344.12 132.611 341.692 127.735 337.219C122.859 332.746 119.889 326.57 119.44 319.968C119.479 318.81 119.826 317.684 120.446 316.705C121.065 315.727 121.934 314.931 122.964 314.4C125.128 313.491 127.435 312.97 129.78 312.86C132.32 312.628 134.834 312.17 137.292 311.492C143.307 309.873 148.581 306.232 152.227 301.181C155.873 296.131 157.669 289.979 157.312 283.76C157.312 281.638 156.469 279.603 154.969 278.103C153.469 276.603 151.434 275.76 149.312 275.76C147.19 275.76 145.155 276.603 143.655 278.103C142.155 279.603 141.312 281.638 141.312 283.76C141.676 286.524 140.999 289.325 139.411 291.618C137.824 293.91 135.44 295.529 132.724 296.16C131.146 296.561 129.538 296.831 127.916 296.968C123.558 297.231 119.309 298.439 115.464 300.508C111.557 302.813 108.367 306.159 106.252 310.172C101.266 308.768 96.8633 305.796 93.696 301.697C90.5287 297.597 88.7645 292.587 88.664 287.408C88.664 278.612 92.084 269.916 103.928 270.352C106.009 270.573 108.096 270.009 109.783 268.771C111.47 267.534 112.634 265.711 113.048 263.66C113.37 261.564 112.846 259.426 111.592 257.716C110.338 256.005 108.456 254.863 106.36 254.54C98.241 253.562 90.0644 255.832 83.612 260.856C81.2606 257.009 80.0111 252.589 80 248.08C80.0482 243.287 81.4709 238.609 84.0994 234.6C86.7278 230.592 90.4514 227.423 94.828 225.468C98.3707 223.485 102.457 222.694 106.484 223.212C108.576 223.568 110.724 223.079 112.455 221.852C114.187 220.625 115.36 218.76 115.716 216.668C116.072 214.576 115.583 212.428 114.356 210.697C113.129 208.965 111.264 207.792 109.172 207.436C103.081 206.479 96.8445 207.237 91.16 209.624C88.1474 206.894 85.7386 203.564 84.0882 199.849C82.4377 196.133 81.582 192.114 81.576 188.048C81.6775 182.258 83.4404 176.619 86.6549 171.801C89.8694 166.984 94.4001 163.192 99.708 160.876C102.725 161.411 105.423 163.082 107.248 165.544C108.452 167.283 110.291 168.481 112.369 168.88C114.446 169.278 116.597 168.846 118.36 167.676C120.115 166.485 121.326 164.646 121.726 162.563C122.125 160.48 121.682 158.324 120.492 156.568C116.654 151.071 110.942 147.162 104.428 145.576C102.878 142.689 102.062 139.465 102.052 136.188C102.176 130.874 104.28 125.798 107.951 121.955C111.623 118.112 116.597 115.778 121.9 115.412C123.578 117.976 125.823 120.12 128.46 121.68C132.74 124.2 137.38 123.788 141.94 125.156C143.592 125.509 145.043 126.485 145.993 127.881C146.943 129.277 147.318 130.986 147.04 132.652C147.04 134.774 147.883 136.809 149.383 138.309C150.883 139.809 152.918 140.652 155.04 140.652C157.162 140.652 159.197 139.809 160.697 138.309C162.197 136.809 163.04 134.774 163.04 132.652C163.327 127.526 161.84 122.458 158.829 118.3C155.818 114.142 151.467 111.147 146.508 109.82C144.542 109.275 142.531 108.907 140.5 108.72C139.485 108.662 138.476 108.512 137.488 108.272C137.108 108.152 135.104 107.244 135.284 106.672C137.239 100.736 141.032 95.5752 146.113 91.9367C151.195 88.2982 157.302 86.3704 163.552 86.432C166.326 86.6891 168.953 87.793 171.078 89.594C173.204 91.395 174.723 93.806 175.432 96.5C175.973 98.5314 177.269 100.28 179.055 101.388C180.842 102.496 182.984 102.881 185.044 102.464C187.109 101.98 188.898 100.695 190.016 98.8929C191.135 97.0904 191.491 94.9175 191.008 92.852C189.362 85.9917 185.229 79.9864 179.408 76C183.344 73.3775 187.971 71.9851 192.7 72C198.732 71.8657 204.571 74.1276 208.938 78.2902C213.305 82.4528 215.845 88.1767 216 94.208V181.42C216 183.542 216.843 185.577 218.343 187.077C219.843 188.577 221.878 189.42 224 189.42C226.122 189.42 228.157 188.577 229.657 187.077C231.157 185.577 232 183.542 232 181.42V94.208C232.155 88.176 234.695 82.4515 239.063 78.2888C243.431 74.126 249.272 71.8646 255.304 72C260.031 71.9884 264.655 73.3821 268.588 76.004C262.769 79.9911 258.637 85.9963 256.992 92.856C256.508 94.922 256.865 97.0956 257.984 98.8986C259.103 100.702 260.892 101.986 262.958 102.47C265.024 102.954 267.198 102.597 269.001 101.478C270.804 100.359 272.088 98.57 272.572 96.504C273.285 93.8139 274.805 91.4069 276.928 89.6068C279.05 87.8068 281.674 86.7002 284.444 86.436C290.692 86.3742 296.798 88.3005 301.879 91.9366C306.961 95.5728 310.754 100.73 312.712 106.664C312.339 107.214 311.852 107.676 311.284 108.02C310.01 108.527 308.658 108.811 307.288 108.86C305.239 109.053 303.211 109.428 301.228 109.98C296.228 111.317 291.841 114.335 288.805 118.527C285.77 122.719 284.27 127.828 284.56 132.996C284.56 135.118 285.403 137.153 286.903 138.653C288.403 140.153 290.438 140.996 292.56 140.996C294.682 140.996 296.717 140.153 298.217 138.653C299.717 137.153 300.56 135.118 300.56 132.996C300.56 127.536 304.164 125.332 309.148 124.756C312.747 124.536 316.252 123.525 319.416 121.796C322.099 120.212 324.378 118.028 326.076 115.416C331.383 115.777 336.363 118.108 340.04 121.952C343.716 125.795 345.824 130.874 345.948 136.192C345.932 138.607 345.476 141 344.604 143.252C342.834 143.049 341.054 142.94 339.272 142.924C335.151 142.832 331.069 143.729 327.366 145.54C323.664 147.351 320.449 150.023 317.992 153.332C317.387 154.191 316.957 155.161 316.727 156.186C316.497 157.211 316.471 158.272 316.651 159.307C316.831 160.342 317.213 161.332 317.775 162.219C318.337 163.107 319.069 163.875 319.928 164.48C321.671 165.677 323.813 166.145 325.896 165.783C327.98 165.421 329.839 164.259 331.076 162.544C331.885 161.535 332.895 160.706 334.043 160.111C335.19 159.515 336.45 159.165 337.74 159.084C340.543 158.639 343.412 158.913 346.08 159.88C351.943 161.936 357.035 165.738 360.672 170.774C364.309 175.811 366.316 181.84 366.424 188.052C366.418 192.118 365.562 196.137 363.912 199.853C362.261 203.568 359.853 206.898 356.84 209.628C351.156 207.24 344.919 206.482 338.828 207.44C337.792 207.616 336.801 207.995 335.912 208.555C335.022 209.114 334.252 209.843 333.644 210.701C333.036 211.558 332.603 212.527 332.37 213.551C332.137 214.576 332.107 215.636 332.284 216.672C332.46 217.708 332.839 218.699 333.399 219.588C333.958 220.478 334.687 221.248 335.545 221.856C336.402 222.464 337.371 222.897 338.395 223.13C339.42 223.363 340.48 223.393 341.516 223.216C345.96 222.464 350.504 223.736 357.196 227.608C357.236 227.636 357.284 227.64 357.328 227.664C360.595 229.981 363.266 233.04 365.122 236.59C366.977 240.139 367.963 244.079 368 248.084C367.98 252.904 366.548 257.613 363.88 261.628C357.658 256.486 349.69 253.947 341.64 254.54C339.57 254.892 337.722 256.044 336.494 257.747C335.266 259.45 334.757 261.568 335.076 263.643C335.395 265.718 336.517 267.584 338.2 268.839C339.883 270.095 341.992 270.638 344.072 270.352C346.534 270.492 348.939 271.151 351.129 272.285C353.319 273.419 355.245 275.002 356.78 276.932L356.828 277.052C359.124 281.69 359.809 286.961 358.773 292.032C357.737 297.102 355.04 301.683 351.108 305.048C348.251 307.516 344.882 309.319 341.244 310.328C338.908 305.922 335.229 302.376 330.74 300.204C325.412 297.616 319.604 297.812 314.056 296.156C311.34 295.526 308.956 293.908 307.368 291.616C305.779 289.325 305.101 286.524 305.464 283.76C305.464 281.638 304.621 279.603 303.121 278.103C301.621 276.603 299.586 275.76 297.464 275.76C295.342 275.76 293.307 276.603 291.807 278.103C290.307 279.603 289.464 281.638 289.464 283.76C289.107 289.979 290.903 296.131 294.549 301.181C298.195 306.232 303.469 309.873 309.484 311.492C313.956 312.824 318.888 312.708 323.3 314.46C324.757 315.095 326.008 316.125 326.913 317.432C327.817 318.739 328.339 320.272 328.42 321.86C327.504 328.083 324.356 333.76 319.563 337.833C314.771 341.906 308.661 344.098 302.372 344L302.172 343.988C300.371 343.455 298.723 342.5 297.366 341.203C296.008 339.905 294.979 338.303 294.364 336.528C293.803 334.482 292.452 332.742 290.608 331.692C288.764 330.642 286.578 330.367 284.532 330.928C282.486 331.489 280.746 332.84 279.696 334.684C278.646 336.528 278.371 338.714 278.932 340.76C280.343 345.434 282.964 349.652 286.529 352.987C290.095 356.322 294.478 358.656 299.236 359.752C300.269 359.943 301.318 360.026 302.368 360C312.153 360.075 321.658 356.738 329.248 350.563C336.838 344.387 342.039 335.76 343.956 326.164C352.779 324.164 360.672 319.253 366.365 312.223C372.058 305.192 375.219 296.45 375.34 287.404L375.336 287.408ZM224 32C226.122 32 228.157 31.1571 229.657 29.6569C231.157 28.1566 232 26.1217 232 24V8C232 5.87827 231.157 3.84344 229.657 2.34315C228.157 0.842855 226.122 0 224 0C221.878 0 219.843 0.842855 218.343 2.34315C216.843 3.84344 216 5.87827 216 8V24C216 26.1217 216.843 28.1566 218.343 29.6569C219.843 31.1571 221.878 32 224 32ZM140.076 42.284C140.914 44.2224 142.474 45.7583 144.425 46.5662C146.376 47.3741 148.565 47.3905 150.528 46.612C152.488 45.7997 154.045 44.2423 154.856 42.2822C155.668 40.3222 155.668 38.12 154.856 36.16L148.732 21.38C148.33 20.4093 147.741 19.5272 146.998 18.7843C146.255 18.0413 145.373 17.452 144.402 17.0499C143.431 16.6478 142.391 16.4409 141.34 16.4409C140.289 16.4409 139.249 16.6479 138.278 17.05C137.307 17.4521 136.425 18.0415 135.682 18.7845C134.939 19.5274 134.35 20.4095 133.948 21.3802C133.546 22.351 133.339 23.3914 133.339 24.4421C133.339 25.4928 133.546 26.5333 133.948 27.504L140.076 42.284ZM76.92 88.236C78.4316 89.7158 80.4627 90.5445 82.578 90.5445C84.6933 90.5445 86.7244 89.7158 88.236 88.236C88.9792 87.4931 89.5688 86.611 89.971 85.6402C90.3733 84.6694 90.5803 83.6289 90.5803 82.578C90.5803 81.5272 90.3733 80.4866 89.971 79.5158C89.5688 78.545 88.9792 77.6629 88.236 76.92L76.92 65.608C75.4112 64.1507 73.3904 63.3444 71.2928 63.3626C69.1952 63.3808 67.1887 64.2222 65.7055 65.7055C64.2222 67.1887 63.3808 69.1952 63.3626 71.2928C63.3444 73.3904 64.1507 75.4112 65.608 76.92L76.92 88.236ZM21.38 148.732L36.16 154.852C38.1221 155.636 40.3127 155.623 42.2651 154.815C44.2176 154.007 45.7773 152.469 46.612 150.528C47.4239 148.568 47.424 146.366 46.6124 144.406C45.8008 142.446 44.2438 140.888 42.284 140.076L27.504 133.948C25.5435 133.136 23.3407 133.136 21.3802 133.948C19.4197 134.76 17.8621 136.318 17.05 138.278C16.2379 140.238 16.2379 142.441 17.0499 144.402C17.8619 146.362 19.4195 147.92 21.38 148.732ZM32 224C32 221.878 31.1571 219.843 29.6569 218.343C28.1566 216.843 26.1217 216 24 216H8C5.87827 216 3.84344 216.843 2.34315 218.343C0.842856 219.843 0 221.878 0 224C0 226.122 0.842856 228.157 2.34315 229.657C3.84344 231.157 5.87827 232 8 232H24C26.1217 232 28.1566 231.157 29.6569 229.657C31.1571 228.157 32 226.122 32 224ZM46.612 297.472C45.7997 295.512 44.2423 293.955 42.2822 293.144C40.3222 292.332 38.12 292.332 36.16 293.144L21.38 299.268C20.4091 299.67 19.527 300.26 18.784 301.003C18.041 301.746 17.4517 302.628 17.0498 303.599C16.6479 304.57 16.4412 305.611 16.4416 306.662C16.442 307.713 16.6494 308.753 17.052 309.724C17.9112 311.644 19.473 313.163 21.4168 313.968C23.3606 314.773 25.5387 314.803 27.504 314.052L42.284 307.924C44.2438 307.112 45.8008 305.554 46.6124 303.594C47.424 301.634 47.4239 299.432 46.612 297.472ZM76.92 359.764L65.608 371.08C64.1507 372.589 63.3444 374.61 63.3626 376.707C63.3808 378.805 64.2222 380.811 65.7055 382.295C67.1887 383.778 69.1952 384.619 71.2928 384.637C73.3904 384.656 75.4112 383.849 76.92 382.392L88.236 371.08C88.979 370.337 89.5684 369.455 89.9705 368.484C90.3727 367.513 90.5796 366.473 90.5796 365.422C90.5796 364.371 90.3727 363.331 89.9705 362.36C89.5684 361.389 88.979 360.507 88.236 359.764C87.493 359.021 86.6109 358.432 85.6401 358.029C84.6693 357.627 83.6288 357.42 82.578 357.42C81.5272 357.42 80.4867 357.627 79.5159 358.029C78.5451 358.432 77.663 359.021 76.92 359.764ZM371.08 359.764C369.579 358.263 367.544 357.42 365.422 357.42C363.3 357.42 361.265 358.263 359.764 359.764C358.263 361.265 357.42 363.3 357.42 365.422C357.42 367.544 358.263 369.579 359.764 371.08L371.08 382.392C372.591 383.871 374.622 384.699 376.736 384.699C378.85 384.699 380.881 383.871 382.392 382.392C383.892 380.892 384.734 378.857 384.734 376.736C384.734 374.615 383.892 372.58 382.392 371.08L371.08 359.764ZM426.62 299.268L411.84 293.148C409.893 292.399 407.73 292.44 405.812 293.262C403.895 294.085 402.375 295.624 401.576 297.551C400.777 299.479 400.763 301.642 401.536 303.58C402.31 305.517 403.81 307.076 405.716 307.924L420.496 314.052C422.456 314.864 424.659 314.864 426.62 314.052C428.58 313.24 430.138 311.682 430.95 309.722C431.762 307.762 431.762 305.559 430.95 303.598C430.138 301.638 428.58 300.08 426.62 299.268ZM440 216H424C421.878 216 419.843 216.843 418.343 218.343C416.843 219.843 416 221.878 416 224C416 226.122 416.843 228.157 418.343 229.657C419.843 231.157 421.878 232 424 232H440C442.122 232 444.157 231.157 445.657 229.657C447.157 228.157 448 226.122 448 224C448 221.878 447.157 219.843 445.657 218.343C444.157 216.843 442.122 216 440 216ZM401.388 150.528C402.23 152.463 403.79 153.996 405.74 154.803C407.69 155.61 409.877 155.629 411.84 154.856L426.62 148.732C427.591 148.33 428.473 147.741 429.216 146.998C429.959 146.255 430.548 145.373 430.95 144.402C431.352 143.431 431.559 142.391 431.559 141.34C431.559 140.289 431.352 139.249 430.95 138.278C430.548 137.307 429.959 136.425 429.216 135.682C428.473 134.939 427.591 134.35 426.62 133.948C425.649 133.546 424.609 133.339 423.558 133.339C422.507 133.339 421.467 133.546 420.496 133.948L405.716 140.076C403.756 140.888 402.199 142.446 401.388 144.406C400.576 146.366 400.576 148.568 401.388 150.528ZM297.472 46.612C299.434 47.4011 301.627 47.3899 303.581 46.5808C305.535 45.7717 307.094 44.2292 307.924 42.284L314.052 27.504C314.454 26.5333 314.661 25.4928 314.661 24.4421C314.661 23.3914 314.454 22.351 314.052 21.3802C313.65 20.4095 313.061 19.5274 312.318 18.7845C311.575 18.0415 310.693 17.4521 309.722 17.05C308.751 16.6479 307.711 16.4409 306.66 16.4409C305.609 16.4409 304.569 16.6478 303.598 17.0499C302.627 17.452 301.745 18.0413 301.002 18.7843C300.259 19.5272 299.67 20.4093 299.268 21.38L293.148 36.16C292.336 38.1195 292.335 40.3212 293.146 42.2812C293.957 44.2412 295.513 45.799 297.472 46.612Z"/>
</mask>
<path d="M375.336 287.408C375.34 283.337 374.693 279.291 373.42 275.424C380.646 267.474 384.434 256.99 383.959 246.257C383.484 235.525 378.784 225.416 370.884 218.136C378.274 209.853 382.378 199.152 382.424 188.052C382.351 180.093 380.22 172.289 376.239 165.397C372.258 158.505 366.562 152.76 359.704 148.72C361.192 144.711 361.952 140.468 361.948 136.192C361.818 126.849 358.191 117.895 351.783 111.095C345.375 104.295 336.651 100.144 327.332 99.46L327.216 99.344C323.931 91.0354 318.282 83.8718 310.969 78.739C303.656 73.6063 294.999 70.7294 286.068 70.464C282.274 65.883 277.504 62.2072 272.107 59.705C266.711 57.2027 260.824 55.9372 254.876 56.0009C248.928 56.0645 243.069 57.4556 237.727 60.0728C232.385 62.6899 227.696 66.4669 224 71.128C220.304 66.4669 215.615 62.6899 210.273 60.0728C204.931 57.4556 199.072 56.0645 193.124 56.0009C187.176 55.9372 181.289 57.2027 175.893 59.705C170.496 62.2072 165.726 65.883 161.932 70.464C153.039 70.7306 144.417 73.5861 137.123 78.6804C129.829 83.7747 124.18 90.8865 120.868 99.144C120.752 99.252 120.648 99.364 120.536 99.476C111.243 100.189 102.552 104.351 96.1718 111.145C89.7911 117.938 86.1814 126.873 86.052 136.192C86.048 140.468 86.8079 144.711 88.296 148.72C81.4382 152.76 75.7419 158.505 71.7608 165.397C67.7796 172.289 65.649 180.093 65.576 188.052C65.6217 199.152 69.7263 209.853 77.116 218.136C69.216 225.416 64.5158 235.525 64.0407 246.257C63.5656 256.99 67.3542 267.474 74.58 275.424C73.3071 279.291 72.6603 283.337 72.664 287.408C72.7859 296.453 75.9477 305.194 81.6405 312.224C87.3333 319.254 95.2259 324.164 104.048 326.164C105.965 335.76 111.166 344.387 118.756 350.563C126.346 356.738 135.851 360.075 145.636 360C155.724 360 165.236 351.52 168.548 342.396C169.245 340.408 169.129 338.225 168.227 336.322C167.324 334.419 165.707 332.948 163.726 332.23C161.746 331.511 159.562 331.603 157.649 332.485C155.736 333.367 154.248 334.968 153.508 336.94C152.824 338.641 151.759 340.162 150.394 341.387C149.029 342.611 147.401 343.505 145.636 344C139.02 344.12 132.611 341.692 127.735 337.219C122.859 332.746 119.889 326.57 119.44 319.968C119.479 318.81 119.826 317.684 120.446 316.705C121.065 315.727 121.934 314.931 122.964 314.4C125.128 313.491 127.435 312.97 129.78 312.86C132.32 312.628 134.834 312.17 137.292 311.492C143.307 309.873 148.581 306.232 152.227 301.181C155.873 296.131 157.669 289.979 157.312 283.76C157.312 281.638 156.469 279.603 154.969 278.103C153.469 276.603 151.434 275.76 149.312 275.76C147.19 275.76 145.155 276.603 143.655 278.103C142.155 279.603 141.312 281.638 141.312 283.76C141.676 286.524 140.999 289.325 139.411 291.618C137.824 293.91 135.44 295.529 132.724 296.16C131.146 296.561 129.538 296.831 127.916 296.968C123.558 297.231 119.309 298.439 115.464 300.508C111.557 302.813 108.367 306.159 106.252 310.172C101.266 308.768 96.8633 305.796 93.696 301.697C90.5287 297.597 88.7645 292.587 88.664 287.408C88.664 278.612 92.084 269.916 103.928 270.352C106.009 270.573 108.096 270.009 109.783 268.771C111.47 267.534 112.634 265.711 113.048 263.66C113.37 261.564 112.846 259.426 111.592 257.716C110.338 256.005 108.456 254.863 106.36 254.54C98.241 253.562 90.0644 255.832 83.612 260.856C81.2606 257.009 80.0111 252.589 80 248.08C80.0482 243.287 81.4709 238.609 84.0994 234.6C86.7278 230.592 90.4514 227.423 94.828 225.468C98.3707 223.485 102.457 222.694 106.484 223.212C108.576 223.568 110.724 223.079 112.455 221.852C114.187 220.625 115.36 218.76 115.716 216.668C116.072 214.576 115.583 212.428 114.356 210.697C113.129 208.965 111.264 207.792 109.172 207.436C103.081 206.479 96.8445 207.237 91.16 209.624C88.1474 206.894 85.7386 203.564 84.0882 199.849C82.4377 196.133 81.582 192.114 81.576 188.048C81.6775 182.258 83.4404 176.619 86.6549 171.801C89.8694 166.984 94.4001 163.192 99.708 160.876C102.725 161.411 105.423 163.082 107.248 165.544C108.452 167.283 110.291 168.481 112.369 168.88C114.446 169.278 116.597 168.846 118.36 167.676C120.115 166.485 121.326 164.646 121.726 162.563C122.125 160.48 121.682 158.324 120.492 156.568C116.654 151.071 110.942 147.162 104.428 145.576C102.878 142.689 102.062 139.465 102.052 136.188C102.176 130.874 104.28 125.798 107.951 121.955C111.623 118.112 116.597 115.778 121.9 115.412C123.578 117.976 125.823 120.12 128.46 121.68C132.74 124.2 137.38 123.788 141.94 125.156C143.592 125.509 145.043 126.485 145.993 127.881C146.943 129.277 147.318 130.986 147.04 132.652C147.04 134.774 147.883 136.809 149.383 138.309C150.883 139.809 152.918 140.652 155.04 140.652C157.162 140.652 159.197 139.809 160.697 138.309C162.197 136.809 163.04 134.774 163.04 132.652C163.327 127.526 161.84 122.458 158.829 118.3C155.818 114.142 151.467 111.147 146.508 109.82C144.542 109.275 142.531 108.907 140.5 108.72C139.485 108.662 138.476 108.512 137.488 108.272C137.108 108.152 135.104 107.244 135.284 106.672C137.239 100.736 141.032 95.5752 146.113 91.9367C151.195 88.2982 157.302 86.3704 163.552 86.432C166.326 86.6891 168.953 87.793 171.078 89.594C173.204 91.395 174.723 93.806 175.432 96.5C175.973 98.5314 177.269 100.28 179.055 101.388C180.842 102.496 182.984 102.881 185.044 102.464C187.109 101.98 188.898 100.695 190.016 98.8929C191.135 97.0904 191.491 94.9175 191.008 92.852C189.362 85.9917 185.229 79.9864 179.408 76C183.344 73.3775 187.971 71.9851 192.7 72C198.732 71.8657 204.571 74.1276 208.938 78.2902C213.305 82.4528 215.845 88.1767 216 94.208V181.42C216 183.542 216.843 185.577 218.343 187.077C219.843 188.577 221.878 189.42 224 189.42C226.122 189.42 228.157 188.577 229.657 187.077C231.157 185.577 232 183.542 232 181.42V94.208C232.155 88.176 234.695 82.4515 239.063 78.2888C243.431 74.126 249.272 71.8646 255.304 72C260.031 71.9884 264.655 73.3821 268.588 76.004C262.769 79.9911 258.637 85.9963 256.992 92.856C256.508 94.922 256.865 97.0956 257.984 98.8986C259.103 100.702 260.892 101.986 262.958 102.47C265.024 102.954 267.198 102.597 269.001 101.478C270.804 100.359 272.088 98.57 272.572 96.504C273.285 93.8139 274.805 91.4069 276.928 89.6068C279.05 87.8068 281.674 86.7002 284.444 86.436C290.692 86.3742 296.798 88.3005 301.879 91.9366C306.961 95.5728 310.754 100.73 312.712 106.664C312.339 107.214 311.852 107.676 311.284 108.02C310.01 108.527 308.658 108.811 307.288 108.86C305.239 109.053 303.211 109.428 301.228 109.98C296.228 111.317 291.841 114.335 288.805 118.527C285.77 122.719 284.27 127.828 284.56 132.996C284.56 135.118 285.403 137.153 286.903 138.653C288.403 140.153 290.438 140.996 292.56 140.996C294.682 140.996 296.717 140.153 298.217 138.653C299.717 137.153 300.56 135.118 300.56 132.996C300.56 127.536 304.164 125.332 309.148 124.756C312.747 124.536 316.252 123.525 319.416 121.796C322.099 120.212 324.378 118.028 326.076 115.416C331.383 115.777 336.363 118.108 340.04 121.952C343.716 125.795 345.824 130.874 345.948 136.192C345.932 138.607 345.476 141 344.604 143.252C342.834 143.049 341.054 142.94 339.272 142.924C335.151 142.832 331.069 143.729 327.366 145.54C323.664 147.351 320.449 150.023 317.992 153.332C317.387 154.191 316.957 155.161 316.727 156.186C316.497 157.211 316.471 158.272 316.651 159.307C316.831 160.342 317.213 161.332 317.775 162.219C318.337 163.107 319.069 163.875 319.928 164.48C321.671 165.677 323.813 166.145 325.896 165.783C327.98 165.421 329.839 164.259 331.076 162.544C331.885 161.535 332.895 160.706 334.043 160.111C335.19 159.515 336.45 159.165 337.74 159.084C340.543 158.639 343.412 158.913 346.08 159.88C351.943 161.936 357.035 165.738 360.672 170.774C364.309 175.811 366.316 181.84 366.424 188.052C366.418 192.118 365.562 196.137 363.912 199.853C362.261 203.568 359.853 206.898 356.84 209.628C351.156 207.24 344.919 206.482 338.828 207.44C337.792 207.616 336.801 207.995 335.912 208.555C335.022 209.114 334.252 209.843 333.644 210.701C333.036 211.558 332.603 212.527 332.37 213.551C332.137 214.576 332.107 215.636 332.284 216.672C332.46 217.708 332.839 218.699 333.399 219.588C333.958 220.478 334.687 221.248 335.545 221.856C336.402 222.464 337.371 222.897 338.395 223.13C339.42 223.363 340.48 223.393 341.516 223.216C345.96 222.464 350.504 223.736 357.196 227.608C357.236 227.636 357.284 227.64 357.328 227.664C360.595 229.981 363.266 233.04 365.122 236.59C366.977 240.139 367.963 244.079 368 248.084C367.98 252.904 366.548 257.613 363.88 261.628C357.658 256.486 349.69 253.947 341.64 254.54C339.57 254.892 337.722 256.044 336.494 257.747C335.266 259.45 334.757 261.568 335.076 263.643C335.395 265.718 336.517 267.584 338.2 268.839C339.883 270.095 341.992 270.638 344.072 270.352C346.534 270.492 348.939 271.151 351.129 272.285C353.319 273.419 355.245 275.002 356.78 276.932L356.828 277.052C359.124 281.69 359.809 286.961 358.773 292.032C357.737 297.102 355.04 301.683 351.108 305.048C348.251 307.516 344.882 309.319 341.244 310.328C338.908 305.922 335.229 302.376 330.74 300.204C325.412 297.616 319.604 297.812 314.056 296.156C311.34 295.526 308.956 293.908 307.368 291.616C305.779 289.325 305.101 286.524 305.464 283.76C305.464 281.638 304.621 279.603 303.121 278.103C301.621 276.603 299.586 275.76 297.464 275.76C295.342 275.76 293.307 276.603 291.807 278.103C290.307 279.603 289.464 281.638 289.464 283.76C289.107 289.979 290.903 296.131 294.549 301.181C298.195 306.232 303.469 309.873 309.484 311.492C313.956 312.824 318.888 312.708 323.3 314.46C324.757 315.095 326.008 316.125 326.913 317.432C327.817 318.739 328.339 320.272 328.42 321.86C327.504 328.083 324.356 333.76 319.563 337.833C314.771 341.906 308.661 344.098 302.372 344L302.172 343.988C300.371 343.455 298.723 342.5 297.366 341.203C296.008 339.905 294.979 338.303 294.364 336.528C293.803 334.482 292.452 332.742 290.608 331.692C288.764 330.642 286.578 330.367 284.532 330.928C282.486 331.489 280.746 332.84 279.696 334.684C278.646 336.528 278.371 338.714 278.932 340.76C280.343 345.434 282.964 349.652 286.529 352.987C290.095 356.322 294.478 358.656 299.236 359.752C300.269 359.943 301.318 360.026 302.368 360C312.153 360.075 321.658 356.738 329.248 350.563C336.838 344.387 342.039 335.76 343.956 326.164C352.779 324.164 360.672 319.253 366.365 312.223C372.058 305.192 375.219 296.45 375.34 287.404L375.336 287.408ZM224 32C226.122 32 228.157 31.1571 229.657 29.6569C231.157 28.1566 232 26.1217 232 24V8C232 5.87827 231.157 3.84344 229.657 2.34315C228.157 0.842855 226.122 0 224 0C221.878 0 219.843 0.842855 218.343 2.34315C216.843 3.84344 216 5.87827 216 8V24C216 26.1217 216.843 28.1566 218.343 29.6569C219.843 31.1571 221.878 32 224 32ZM140.076 42.284C140.914 44.2224 142.474 45.7583 144.425 46.5662C146.376 47.3741 148.565 47.3905 150.528 46.612C152.488 45.7997 154.045 44.2423 154.856 42.2822C155.668 40.3222 155.668 38.12 154.856 36.16L148.732 21.38C148.33 20.4093 147.741 19.5272 146.998 18.7843C146.255 18.0413 145.373 17.452 144.402 17.0499C143.431 16.6478 142.391 16.4409 141.34 16.4409C140.289 16.4409 139.249 16.6479 138.278 17.05C137.307 17.4521 136.425 18.0415 135.682 18.7845C134.939 19.5274 134.35 20.4095 133.948 21.3802C133.546 22.351 133.339 23.3914 133.339 24.4421C133.339 25.4928 133.546 26.5333 133.948 27.504L140.076 42.284ZM76.92 88.236C78.4316 89.7158 80.4627 90.5445 82.578 90.5445C84.6933 90.5445 86.7244 89.7158 88.236 88.236C88.9792 87.4931 89.5688 86.611 89.971 85.6402C90.3733 84.6694 90.5803 83.6289 90.5803 82.578C90.5803 81.5272 90.3733 80.4866 89.971 79.5158C89.5688 78.545 88.9792 77.6629 88.236 76.92L76.92 65.608C75.4112 64.1507 73.3904 63.3444 71.2928 63.3626C69.1952 63.3808 67.1887 64.2222 65.7055 65.7055C64.2222 67.1887 63.3808 69.1952 63.3626 71.2928C63.3444 73.3904 64.1507 75.4112 65.608 76.92L76.92 88.236ZM21.38 148.732L36.16 154.852C38.1221 155.636 40.3127 155.623 42.2651 154.815C44.2176 154.007 45.7773 152.469 46.612 150.528C47.4239 148.568 47.424 146.366 46.6124 144.406C45.8008 142.446 44.2438 140.888 42.284 140.076L27.504 133.948C25.5435 133.136 23.3407 133.136 21.3802 133.948C19.4197 134.76 17.8621 136.318 17.05 138.278C16.2379 140.238 16.2379 142.441 17.0499 144.402C17.8619 146.362 19.4195 147.92 21.38 148.732ZM32 224C32 221.878 31.1571 219.843 29.6569 218.343C28.1566 216.843 26.1217 216 24 216H8C5.87827 216 3.84344 216.843 2.34315 218.343C0.842856 219.843 0 221.878 0 224C0 226.122 0.842856 228.157 2.34315 229.657C3.84344 231.157 5.87827 232 8 232H24C26.1217 232 28.1566 231.157 29.6569 229.657C31.1571 228.157 32 226.122 32 224ZM46.612 297.472C45.7997 295.512 44.2423 293.955 42.2822 293.144C40.3222 292.332 38.12 292.332 36.16 293.144L21.38 299.268C20.4091 299.67 19.527 300.26 18.784 301.003C18.041 301.746 17.4517 302.628 17.0498 303.599C16.6479 304.57 16.4412 305.611 16.4416 306.662C16.442 307.713 16.6494 308.753 17.052 309.724C17.9112 311.644 19.473 313.163 21.4168 313.968C23.3606 314.773 25.5387 314.803 27.504 314.052L42.284 307.924C44.2438 307.112 45.8008 305.554 46.6124 303.594C47.424 301.634 47.4239 299.432 46.612 297.472ZM76.92 359.764L65.608 371.08C64.1507 372.589 63.3444 374.61 63.3626 376.707C63.3808 378.805 64.2222 380.811 65.7055 382.295C67.1887 383.778 69.1952 384.619 71.2928 384.637C73.3904 384.656 75.4112 383.849 76.92 382.392L88.236 371.08C88.979 370.337 89.5684 369.455 89.9705 368.484C90.3727 367.513 90.5796 366.473 90.5796 365.422C90.5796 364.371 90.3727 363.331 89.9705 362.36C89.5684 361.389 88.979 360.507 88.236 359.764C87.493 359.021 86.6109 358.432 85.6401 358.029C84.6693 357.627 83.6288 357.42 82.578 357.42C81.5272 357.42 80.4867 357.627 79.5159 358.029C78.5451 358.432 77.663 359.021 76.92 359.764ZM371.08 359.764C369.579 358.263 367.544 357.42 365.422 357.42C363.3 357.42 361.265 358.263 359.764 359.764C358.263 361.265 357.42 363.3 357.42 365.422C357.42 367.544 358.263 369.579 359.764 371.08L371.08 382.392C372.591 383.871 374.622 384.699 376.736 384.699C378.85 384.699 380.881 383.871 382.392 382.392C383.892 380.892 384.734 378.857 384.734 376.736C384.734 374.615 383.892 372.58 382.392 371.08L371.08 359.764ZM426.62 299.268L411.84 293.148C409.893 292.399 407.73 292.44 405.812 293.262C403.895 294.085 402.375 295.624 401.576 297.551C400.777 299.479 400.763 301.642 401.536 303.58C402.31 305.517 403.81 307.076 405.716 307.924L420.496 314.052C422.456 314.864 424.659 314.864 426.62 314.052C428.58 313.24 430.138 311.682 430.95 309.722C431.762 307.762 431.762 305.559 430.95 303.598C430.138 301.638 428.58 300.08 426.62 299.268ZM440 216H424C421.878 216 419.843 216.843 418.343 218.343C416.843 219.843 416 221.878 416 224C416 226.122 416.843 228.157 418.343 229.657C419.843 231.157 421.878 232 424 232H440C442.122 232 444.157 231.157 445.657 229.657C447.157 228.157 448 226.122 448 224C448 221.878 447.157 219.843 445.657 218.343C444.157 216.843 442.122 216 440 216ZM401.388 150.528C402.23 152.463 403.79 153.996 405.74 154.803C407.69 155.61 409.877 155.629 411.84 154.856L426.62 148.732C427.591 148.33 428.473 147.741 429.216 146.998C429.959 146.255 430.548 145.373 430.95 144.402C431.352 143.431 431.559 142.391 431.559 141.34C431.559 140.289 431.352 139.249 430.95 138.278C430.548 137.307 429.959 136.425 429.216 135.682C428.473 134.939 427.591 134.35 426.62 133.948C425.649 133.546 424.609 133.339 423.558 133.339C422.507 133.339 421.467 133.546 420.496 133.948L405.716 140.076C403.756 140.888 402.199 142.446 401.388 144.406C400.576 146.366 400.576 148.568 401.388 150.528ZM297.472 46.612C299.434 47.4011 301.627 47.3899 303.581 46.5808C305.535 45.7717 307.094 44.2292 307.924 42.284L314.052 27.504C314.454 26.5333 314.661 25.4928 314.661 24.4421C314.661 23.3914 314.454 22.351 314.052 21.3802C313.65 20.4095 313.061 19.5274 312.318 18.7845C311.575 18.0415 310.693 17.4521 309.722 17.05C308.751 16.6479 307.711 16.4409 306.66 16.4409C305.609 16.4409 304.569 16.6478 303.598 17.0499C302.627 17.452 301.745 18.0413 301.002 18.7843C300.259 19.5272 299.67 20.4093 299.268 21.38L293.148 36.16C292.336 38.1195 292.335 40.3212 293.146 42.2812C293.957 44.2412 295.513 45.799 297.472 46.612Z" fill="#2225C2" stroke="#2225C2" stroke-width="100" mask="url(#path-1-inside-1_2060_404)"/>
<mask id="path-2-inside-2_2060_404" fill="white">
<path d="M261.656 237.656C263.113 236.147 263.919 234.127 263.901 232.029C263.883 229.931 263.042 227.925 261.558 226.442C260.075 224.958 258.068 224.117 255.971 224.099C253.873 224.081 251.852 224.887 250.344 226.344L224 252.688L197.656 226.344C196.147 224.887 194.126 224.081 192.028 224.099C189.931 224.117 187.924 224.958 186.441 226.442C184.958 227.925 184.117 229.931 184.098 232.029C184.08 234.127 184.886 236.147 186.344 237.656L216 267.312V328.936C205.456 331.476 198 338.944 198 348C198 350.122 198.843 352.157 200.343 353.657C201.843 355.157 203.878 356 206 356C208.121 356 210.156 355.157 211.657 353.657C213.157 352.157 214 350.122 214 348C214 347.236 217.332 344 224 344C230.668 344 234 347.236 234 348C234 350.122 234.843 352.157 236.343 353.657C237.843 355.157 239.878 356 242 356C244.121 356 246.156 355.157 247.657 353.657C249.157 352.157 250 350.122 250 348C250 338.944 242.544 331.48 232 328.936V267.312L261.656 237.656ZM300.848 377.64C299.393 376.539 297.603 375.974 295.78 376.04C295.884 375.804 151.692 376 151.7 376.016C150.235 376.067 148.812 376.52 147.587 377.326C146.363 378.131 145.383 379.259 144.757 380.584C144.131 381.91 143.881 383.382 144.036 384.84C144.191 386.297 144.745 387.684 145.636 388.848C160.524 408.396 165.528 424.96 164.1 449.968C163.452 461.336 175.036 468.904 178.916 471.464V477.72C178.925 486.807 182.538 495.519 188.962 501.945C195.386 508.371 204.097 511.988 213.184 512H234.816C243.902 511.988 252.613 508.371 259.037 501.945C265.461 495.519 269.074 486.807 269.084 477.72L269.16 471.388C272.964 468.904 284.548 461.336 283.9 449.964C282.472 424.964 287.476 408.396 302.364 388.844C303 388.009 303.466 387.056 303.734 386.04C304.002 385.025 304.067 383.966 303.926 382.925C303.785 381.884 303.44 380.882 302.911 379.974C302.382 379.067 301.68 378.272 300.844 377.636L300.848 377.64ZM232 456H216C213.878 456 211.843 455.157 210.343 453.657C208.843 452.157 208 450.122 208 448C208 445.878 208.843 443.844 210.343 442.343C211.843 440.843 213.878 440 216 440H232C234.121 440 236.156 440.843 237.657 442.343C239.157 443.844 240 445.878 240 448C240 450.122 239.157 452.157 237.657 453.657C236.156 455.157 234.121 456 232 456ZM177.132 29.4002C177.573 31.467 178.802 33.2805 180.559 34.4554C182.316 35.6303 184.461 36.074 186.54 35.6922C188.621 35.2779 190.452 34.0541 191.631 32.2899C192.81 30.5257 193.241 28.3656 192.828 26.2842L191.268 18.4362C191.072 17.397 190.672 16.4069 190.092 15.5231C189.511 14.6393 188.761 13.8795 187.885 13.2874C187.009 12.6954 186.024 12.2829 184.987 12.0739C183.951 11.8648 182.883 11.8634 181.846 12.0696C180.809 12.2758 179.823 12.6856 178.945 13.2753C178.067 13.8649 177.315 14.6228 176.732 15.505C176.149 16.3871 175.746 17.3762 175.548 18.4148C175.349 19.4535 175.359 20.5212 175.576 21.5562L177.132 29.4002ZM106.236 62.1522C107.429 63.8978 109.259 65.1064 111.333 65.5191C113.407 65.9318 115.561 65.5158 117.332 64.3602C119.096 63.1808 120.32 61.3489 120.734 59.2674C121.148 57.1858 120.718 55.0251 119.54 53.2602L115.092 46.6082C113.913 44.844 112.081 43.6204 110 43.2067C107.918 42.793 105.758 43.2231 103.994 44.4022C102.229 45.5814 101.006 47.413 100.592 49.4943C100.179 51.5756 100.609 53.736 101.788 55.5002L106.236 62.1522ZM46.6077 115.092L53.2597 119.54C55.0322 120.693 57.1852 121.107 59.259 120.695C61.3328 120.282 63.1632 119.076 64.3597 117.332C65.5372 115.568 65.9661 113.408 65.5521 111.327C65.1381 109.247 63.915 107.416 62.1517 106.236L55.4997 101.788C53.7355 100.609 51.5751 100.179 49.4938 100.593C47.4125 101.006 45.5808 102.23 44.4017 103.994C43.2225 105.758 42.7925 107.919 43.2062 110C43.6199 112.081 44.8435 113.913 46.6077 115.092ZM18.4397 191.268L26.2837 192.828C28.3623 193.215 30.5099 192.774 32.2678 191.599C34.0256 190.425 35.2544 188.609 35.6917 186.54C36.1047 184.459 35.6744 182.299 34.4953 180.534C33.3162 178.77 31.4848 177.547 29.4037 177.132L21.5557 175.572C20.5251 175.367 19.4642 175.367 18.4336 175.573C17.4031 175.778 16.423 176.184 15.5494 176.768C14.6758 177.352 13.9257 178.102 13.3421 178.976C12.7584 179.849 12.3525 180.83 12.1477 181.86C11.9428 182.891 11.943 183.952 12.1481 184.982C12.3532 186.013 12.7593 186.993 13.3432 187.866C13.9271 188.74 14.6774 189.49 15.5511 190.074C16.4249 190.657 17.4091 191.063 18.4397 191.268ZM21.5557 272.424L29.4037 270.864C31.4665 270.432 33.2754 269.203 34.4375 267.445C35.5996 265.687 36.0209 263.541 35.6099 261.474C35.1989 259.407 33.9888 257.586 32.2425 256.406C30.4963 255.226 28.3549 254.782 26.2837 255.172L18.4357 256.732C16.3554 257.147 14.5247 258.37 13.3457 260.133C12.1667 261.896 11.7358 264.055 12.1477 266.136C12.5978 268.198 13.8295 270.005 15.5838 271.177C17.3382 272.35 19.4787 272.797 21.5557 272.424ZM64.3597 330.668C63.7761 329.794 63.0259 329.044 62.1521 328.46C61.2783 327.875 60.298 327.469 59.2672 327.264C58.2364 327.059 57.1752 327.059 56.1444 327.264C55.1136 327.47 54.1334 327.876 53.2597 328.46L46.6077 332.908C44.8461 334.088 43.6247 335.919 43.2115 337.998C42.7983 340.078 43.227 342.236 44.4037 344C45.6001 345.742 47.4298 346.948 49.5026 347.361C51.5755 347.773 53.7274 347.36 55.4997 346.208L62.1517 341.76C63.915 340.581 65.1381 338.75 65.5521 336.669C65.9661 334.589 65.5372 332.433 64.3597 330.668ZM401.392 332.908L394.74 328.46C393.866 327.876 392.886 327.47 391.856 327.265C390.825 327.06 389.764 327.06 388.734 327.265C387.703 327.47 386.723 327.875 385.849 328.459C384.976 329.043 384.226 329.793 383.642 330.666C383.058 331.54 382.652 332.52 382.447 333.55C382.242 334.581 382.241 335.642 382.446 336.672C382.651 337.703 383.057 338.683 383.641 339.556C384.224 340.43 384.974 341.18 385.848 341.764L392.5 346.212C394.272 347.364 396.424 347.777 398.497 347.365C400.57 346.952 402.399 345.746 403.596 344.004C404.774 342.24 405.203 340.081 404.79 338C404.377 335.92 403.154 334.088 401.392 332.908ZM429.56 256.732L421.716 255.172C420.685 254.967 419.624 254.967 418.594 255.173C417.563 255.378 416.583 255.784 415.709 256.368C414.836 256.952 414.086 257.702 413.502 258.576C412.918 259.449 412.513 260.43 412.308 261.46C412.103 262.491 412.103 263.552 412.308 264.582C412.513 265.613 412.919 266.593 413.503 267.466C414.087 268.34 414.837 269.09 415.711 269.674C416.585 270.257 417.565 270.663 418.596 270.868L426.444 272.428C428.525 272.842 430.686 272.412 432.45 271.233C434.214 270.053 435.438 268.222 435.852 266.14C436.265 264.059 435.835 261.898 434.656 260.134C433.477 258.37 431.641 257.146 429.56 256.732ZM426.444 175.576L418.596 177.136C416.516 177.551 414.686 178.773 413.507 180.536C412.328 182.298 411.897 184.456 412.308 186.536C412.762 188.595 413.995 190.4 415.748 191.572C417.501 192.744 419.639 193.194 421.716 192.828L429.564 191.268C431.626 190.836 433.435 189.607 434.598 187.849C435.76 186.091 436.181 183.945 435.77 181.878C435.359 179.811 434.149 177.99 432.403 176.81C430.656 175.63 428.515 175.186 426.444 175.576ZM383.64 117.332C384.836 119.076 386.667 120.282 388.74 120.695C390.814 121.107 392.967 120.693 394.74 119.54L401.392 115.092C403.156 113.913 404.379 112.081 404.793 110C405.207 107.919 404.777 105.758 403.598 103.994C402.419 102.23 400.587 101.006 398.506 100.593C396.424 100.179 394.264 100.609 392.5 101.788L385.848 106.236C384.084 107.416 382.861 109.247 382.447 111.327C382.033 113.408 382.462 115.568 383.64 117.332ZM330.668 64.3602C332.44 65.5128 334.592 65.927 336.665 65.5144C338.738 65.1019 340.568 63.8953 341.764 62.1522L346.212 55.5002C347.391 53.736 347.821 51.5756 347.407 49.4943C346.993 47.413 345.77 45.5814 344.006 44.4022C342.241 43.2231 340.081 42.793 338 43.2067C335.919 43.6204 334.087 44.844 332.908 46.6082L328.46 53.2602C327.281 55.0251 326.851 57.1858 327.265 59.2674C327.679 61.3489 328.903 63.1808 330.668 64.3602ZM261.46 35.6922C263.539 36.0847 265.689 35.6459 267.448 34.4701C269.207 33.2943 270.435 31.4754 270.868 29.4042L272.428 21.5562C272.633 20.5256 272.632 19.4647 272.427 18.4342C272.222 17.4036 271.816 16.4235 271.232 15.5499C270.648 14.6763 269.898 13.9262 269.024 13.3426C268.15 12.7589 267.17 12.3531 266.14 12.1482C265.109 11.9433 264.048 11.9435 263.018 12.1486C261.987 12.3537 261.007 12.7598 260.133 13.3437C259.26 13.9276 258.51 14.6779 257.926 15.5516C257.342 16.4254 256.937 17.4056 256.732 18.4362L255.172 26.2842C254.759 28.3656 255.189 30.5257 256.368 32.2899C257.547 34.0541 259.379 35.2779 261.46 35.6922ZM371.08 88.2362L382.392 76.9202C383.849 75.4114 384.655 73.3906 384.637 71.293C384.619 69.1954 383.778 67.1889 382.294 65.7057C380.811 64.2224 378.804 63.381 376.707 63.3628C374.609 63.3446 372.588 64.1509 371.08 65.6082L359.76 76.9202C359.016 77.6631 358.427 78.5452 358.025 79.516C357.622 80.4868 357.415 81.5274 357.415 82.5782C357.415 83.629 357.622 84.6696 358.025 85.6404C358.427 86.6112 359.016 87.4933 359.76 88.2362C361.271 89.716 363.302 90.5447 365.418 90.5447C367.533 90.5447 369.568 89.716 371.08 88.2362Z"/>
</mask>
<path d="M261.656 237.656C263.113 236.147 263.919 234.127 263.901 232.029C263.883 229.931 263.042 227.925 261.558 226.442C260.075 224.958 258.068 224.117 255.971 224.099C253.873 224.081 251.852 224.887 250.344 226.344L224 252.688L197.656 226.344C196.147 224.887 194.126 224.081 192.028 224.099C189.931 224.117 187.924 224.958 186.441 226.442C184.958 227.925 184.117 229.931 184.098 232.029C184.08 234.127 184.886 236.147 186.344 237.656L216 267.312V328.936C205.456 331.476 198 338.944 198 348C198 350.122 198.843 352.157 200.343 353.657C201.843 355.157 203.878 356 206 356C208.121 356 210.156 355.157 211.657 353.657C213.157 352.157 214 350.122 214 348C214 347.236 217.332 344 224 344C230.668 344 234 347.236 234 348C234 350.122 234.843 352.157 236.343 353.657C237.843 355.157 239.878 356 242 356C244.121 356 246.156 355.157 247.657 353.657C249.157 352.157 250 350.122 250 348C250 338.944 242.544 331.48 232 328.936V267.312L261.656 237.656ZM300.848 377.64C299.393 376.539 297.603 375.974 295.78 376.04C295.884 375.804 151.692 376 151.7 376.016C150.235 376.067 148.812 376.52 147.587 377.326C146.363 378.131 145.383 379.259 144.757 380.584C144.131 381.91 143.881 383.382 144.036 384.84C144.191 386.297 144.745 387.684 145.636 388.848C160.524 408.396 165.528 424.96 164.1 449.968C163.452 461.336 175.036 468.904 178.916 471.464V477.72C178.925 486.807 182.538 495.519 188.962 501.945C195.386 508.371 204.097 511.988 213.184 512H234.816C243.902 511.988 252.613 508.371 259.037 501.945C265.461 495.519 269.074 486.807 269.084 477.72L269.16 471.388C272.964 468.904 284.548 461.336 283.9 449.964C282.472 424.964 287.476 408.396 302.364 388.844C303 388.009 303.466 387.056 303.734 386.04C304.002 385.025 304.067 383.966 303.926 382.925C303.785 381.884 303.44 380.882 302.911 379.974C302.382 379.067 301.68 378.272 300.844 377.636L300.848 377.64ZM232 456H216C213.878 456 211.843 455.157 210.343 453.657C208.843 452.157 208 450.122 208 448C208 445.878 208.843 443.844 210.343 442.343C211.843 440.843 213.878 440 216 440H232C234.121 440 236.156 440.843 237.657 442.343C239.157 443.844 240 445.878 240 448C240 450.122 239.157 452.157 237.657 453.657C236.156 455.157 234.121 456 232 456ZM177.132 29.4002C177.573 31.467 178.802 33.2805 180.559 34.4554C182.316 35.6303 184.461 36.074 186.54 35.6922C188.621 35.2779 190.452 34.0541 191.631 32.2899C192.81 30.5257 193.241 28.3656 192.828 26.2842L191.268 18.4362C191.072 17.397 190.672 16.4069 190.092 15.5231C189.511 14.6393 188.761 13.8795 187.885 13.2874C187.009 12.6954 186.024 12.2829 184.987 12.0739C183.951 11.8648 182.883 11.8634 181.846 12.0696C180.809 12.2758 179.823 12.6856 178.945 13.2753C178.067 13.8649 177.315 14.6228 176.732 15.505C176.149 16.3871 175.746 17.3762 175.548 18.4148C175.349 19.4535 175.359 20.5212 175.576 21.5562L177.132 29.4002ZM106.236 62.1522C107.429 63.8978 109.259 65.1064 111.333 65.5191C113.407 65.9318 115.561 65.5158 117.332 64.3602C119.096 63.1808 120.32 61.3489 120.734 59.2674C121.148 57.1858 120.718 55.0251 119.54 53.2602L115.092 46.6082C113.913 44.844 112.081 43.6204 110 43.2067C107.918 42.793 105.758 43.2231 103.994 44.4022C102.229 45.5814 101.006 47.413 100.592 49.4943C100.179 51.5756 100.609 53.736 101.788 55.5002L106.236 62.1522ZM46.6077 115.092L53.2597 119.54C55.0322 120.693 57.1852 121.107 59.259 120.695C61.3328 120.282 63.1632 119.076 64.3597 117.332C65.5372 115.568 65.9661 113.408 65.5521 111.327C65.1381 109.247 63.915 107.416 62.1517 106.236L55.4997 101.788C53.7355 100.609 51.5751 100.179 49.4938 100.593C47.4125 101.006 45.5808 102.23 44.4017 103.994C43.2225 105.758 42.7925 107.919 43.2062 110C43.6199 112.081 44.8435 113.913 46.6077 115.092ZM18.4397 191.268L26.2837 192.828C28.3623 193.215 30.5099 192.774 32.2678 191.599C34.0256 190.425 35.2544 188.609 35.6917 186.54C36.1047 184.459 35.6744 182.299 34.4953 180.534C33.3162 178.77 31.4848 177.547 29.4037 177.132L21.5557 175.572C20.5251 175.367 19.4642 175.367 18.4336 175.573C17.4031 175.778 16.423 176.184 15.5494 176.768C14.6758 177.352 13.9257 178.102 13.3421 178.976C12.7584 179.849 12.3525 180.83 12.1477 181.86C11.9428 182.891 11.943 183.952 12.1481 184.982C12.3532 186.013 12.7593 186.993 13.3432 187.866C13.9271 188.74 14.6774 189.49 15.5511 190.074C16.4249 190.657 17.4091 191.063 18.4397 191.268ZM21.5557 272.424L29.4037 270.864C31.4665 270.432 33.2754 269.203 34.4375 267.445C35.5996 265.687 36.0209 263.541 35.6099 261.474C35.1989 259.407 33.9888 257.586 32.2425 256.406C30.4963 255.226 28.3549 254.782 26.2837 255.172L18.4357 256.732C16.3554 257.147 14.5247 258.37 13.3457 260.133C12.1667 261.896 11.7358 264.055 12.1477 266.136C12.5978 268.198 13.8295 270.005 15.5838 271.177C17.3382 272.35 19.4787 272.797 21.5557 272.424ZM64.3597 330.668C63.7761 329.794 63.0259 329.044 62.1521 328.46C61.2783 327.875 60.298 327.469 59.2672 327.264C58.2364 327.059 57.1752 327.059 56.1444 327.264C55.1136 327.47 54.1334 327.876 53.2597 328.46L46.6077 332.908C44.8461 334.088 43.6247 335.919 43.2115 337.998C42.7983 340.078 43.227 342.236 44.4037 344C45.6001 345.742 47.4298 346.948 49.5026 347.361C51.5755 347.773 53.7274 347.36 55.4997 346.208L62.1517 341.76C63.915 340.581 65.1381 338.75 65.5521 336.669C65.9661 334.589 65.5372 332.433 64.3597 330.668ZM401.392 332.908L394.74 328.46C393.866 327.876 392.886 327.47 391.856 327.265C390.825 327.06 389.764 327.06 388.734 327.265C387.703 327.47 386.723 327.875 385.849 328.459C384.976 329.043 384.226 329.793 383.642 330.666C383.058 331.54 382.652 332.52 382.447 333.55C382.242 334.581 382.241 335.642 382.446 336.672C382.651 337.703 383.057 338.683 383.641 339.556C384.224 340.43 384.974 341.18 385.848 341.764L392.5 346.212C394.272 347.364 396.424 347.777 398.497 347.365C400.57 346.952 402.399 345.746 403.596 344.004C404.774 342.24 405.203 340.081 404.79 338C404.377 335.92 403.154 334.088 401.392 332.908ZM429.56 256.732L421.716 255.172C420.685 254.967 419.624 254.967 418.594 255.173C417.563 255.378 416.583 255.784 415.709 256.368C414.836 256.952 414.086 257.702 413.502 258.576C412.918 259.449 412.513 260.43 412.308 261.46C412.103 262.491 412.103 263.552 412.308 264.582C412.513 265.613 412.919 266.593 413.503 267.466C414.087 268.34 414.837 269.09 415.711 269.674C416.585 270.257 417.565 270.663 418.596 270.868L426.444 272.428C428.525 272.842 430.686 272.412 432.45 271.233C434.214 270.053 435.438 268.222 435.852 266.14C436.265 264.059 435.835 261.898 434.656 260.134C433.477 258.37 431.641 257.146 429.56 256.732ZM426.444 175.576L418.596 177.136C416.516 177.551 414.686 178.773 413.507 180.536C412.328 182.298 411.897 184.456 412.308 186.536C412.762 188.595 413.995 190.4 415.748 191.572C417.501 192.744 419.639 193.194 421.716 192.828L429.564 191.268C431.626 190.836 433.435 189.607 434.598 187.849C435.76 186.091 436.181 183.945 435.77 181.878C435.359 179.811 434.149 177.99 432.403 176.81C430.656 175.63 428.515 175.186 426.444 175.576ZM383.64 117.332C384.836 119.076 386.667 120.282 388.74 120.695C390.814 121.107 392.967 120.693 394.74 119.54L401.392 115.092C403.156 113.913 404.379 112.081 404.793 110C405.207 107.919 404.777 105.758 403.598 103.994C402.419 102.23 400.587 101.006 398.506 100.593C396.424 100.179 394.264 100.609 392.5 101.788L385.848 106.236C384.084 107.416 382.861 109.247 382.447 111.327C382.033 113.408 382.462 115.568 383.64 117.332ZM330.668 64.3602C332.44 65.5128 334.592 65.927 336.665 65.5144C338.738 65.1019 340.568 63.8953 341.764 62.1522L346.212 55.5002C347.391 53.736 347.821 51.5756 347.407 49.4943C346.993 47.413 345.77 45.5814 344.006 44.4022C342.241 43.2231 340.081 42.793 338 43.2067C335.919 43.6204 334.087 44.844 332.908 46.6082L328.46 53.2602C327.281 55.0251 326.851 57.1858 327.265 59.2674C327.679 61.3489 328.903 63.1808 330.668 64.3602ZM261.46 35.6922C263.539 36.0847 265.689 35.6459 267.448 34.4701C269.207 33.2943 270.435 31.4754 270.868 29.4042L272.428 21.5562C272.633 20.5256 272.632 19.4647 272.427 18.4342C272.222 17.4036 271.816 16.4235 271.232 15.5499C270.648 14.6763 269.898 13.9262 269.024 13.3426C268.15 12.7589 267.17 12.3531 266.14 12.1482C265.109 11.9433 264.048 11.9435 263.018 12.1486C261.987 12.3537 261.007 12.7598 260.133 13.3437C259.26 13.9276 258.51 14.6779 257.926 15.5516C257.342 16.4254 256.937 17.4056 256.732 18.4362L255.172 26.2842C254.759 28.3656 255.189 30.5257 256.368 32.2899C257.547 34.0541 259.379 35.2779 261.46 35.6922ZM371.08 88.2362L382.392 76.9202C383.849 75.4114 384.655 73.3906 384.637 71.293C384.619 69.1954 383.778 67.1889 382.294 65.7057C380.811 64.2224 378.804 63.381 376.707 63.3628C374.609 63.3446 372.588 64.1509 371.08 65.6082L359.76 76.9202C359.016 77.6631 358.427 78.5452 358.025 79.516C357.622 80.4868 357.415 81.5274 357.415 82.5782C357.415 83.629 357.622 84.6696 358.025 85.6404C358.427 86.6112 359.016 87.4933 359.76 88.2362C361.271 89.716 363.302 90.5447 365.418 90.5447C367.533 90.5447 369.568 89.716 371.08 88.2362Z" fill="#2225C2" stroke="#2225C2" stroke-width="100" mask="url(#path-2-inside-2_2060_404)"/>
</svg>
