<svg width="512" height="512" viewBox="0 0 512 512" fill="none" xmlns="http://www.w3.org/2000/svg">
<path d="M112.476 112.402L82.8418 82.768M256.127 11.001V52.667M428.344 83.836L400.094 112.085M303.899 256C303.899 229.546 282.454 208.101 256 208.101C229.546 208.101 208.101 229.546 208.101 256H303.899Z" stroke="#1A9426" stroke-width="20" stroke-miterlimit="10" stroke-linecap="round" stroke-linejoin="round"/>
<path d="M361.529 146.841L258.053 208.152C283.027 209.206 303.042 229.377 303.86 254.41L365.339 150.651C366.806 148.175 364.006 145.374 361.529 146.841Z" fill="#1A9426"/>
<path d="M404 502C458.124 502 502 458.124 502 404C502 349.876 458.124 306 404 306C349.876 306 306 349.876 306 404C306 458.124 349.876 502 404 502Z" stroke="#1A9426" stroke-width="20" stroke-miterlimit="10" stroke-linecap="round" stroke-linejoin="round"/>
<path d="M375.162 422.521C375.162 438.447 388.073 451.358 403.999 451.358C419.925 451.358 432.836 438.447 432.836 422.521M456.393 382.996C449.505 376.108 438.338 376.108 431.45 382.996M351.605 382.996C358.493 376.108 369.66 376.108 376.548 382.996" stroke="#1A9426" stroke-width="20" stroke-miterlimit="10" stroke-linecap="round" stroke-linejoin="round"/>
<path d="M108 502C162.124 502 206 458.124 206 404C206 349.876 162.124 306 108 306C53.8761 306 10 349.876 10 404C10 458.124 53.8761 502 108 502Z" stroke="#1A9426" stroke-width="20" stroke-miterlimit="10" stroke-linecap="round" stroke-linejoin="round"/>
<path d="M128.391 432.716C117.129 421.454 98.871 421.454 87.609 432.716M502 256C502 120.138 391.862 10 256 10C120.138 10 10 120.138 10 256H502Z" stroke="#1A9426" stroke-width="20" stroke-miterlimit="10" stroke-linecap="round" stroke-linejoin="round"/>
<path d="M458.334 256C458.334 144.254 367.746 53.667 256.001 53.667C144.256 53.667 53.668 144.254 53.668 256" stroke="#1A9426" stroke-width="20" stroke-miterlimit="10" stroke-linecap="round" stroke-linejoin="round"/>
</svg>
