<svg width="512" height="512" viewBox="0 0 512 512" fill="none" xmlns="http://www.w3.org/2000/svg">
<path d="M312.59 257.175C301.375 267.907 289.549 282.437 278.8 301.922C268.181 263.579 254.793 235.469 241.261 214.889C303.354 7.43381 0.740234 0 0.740234 0C0.740234 0 9.57394 259.282 167.615 253.329C167.293 235.967 164.606 218.413 160.841 201.952C158.464 191.701 155.657 181.555 152.425 171.541C142.321 140.213 130.912 117.976 130.912 117.976C142.433 133.455 152.635 148.226 161.645 162.112C192.652 209.82 209.579 246.925 217.447 266.523C236.868 308.246 254.311 376.872 254.311 489.023C254.582 494.932 257.12 500.51 261.398 504.596C265.676 508.683 271.364 510.963 277.28 510.963C283.196 510.963 288.884 508.683 293.162 504.596C297.44 500.51 299.978 494.932 300.249 489.023C300.249 452.674 298.495 420.332 295.325 391.482C302.646 356.276 313.701 331.288 325.141 313.588C336.837 291.28 350.22 269.897 365.174 249.628C381.796 227.327 402.295 204.607 425.481 188.388C425.481 188.388 377.934 241.02 374.861 292.542C506.191 299.396 511.292 92.7779 511.292 92.7779C511.292 92.7779 270.948 100.984 312.59 257.175Z" fill="#4E4E4E"/>
</svg>
