<svg width="487" height="402" viewBox="0 0 487 402" fill="none" xmlns="http://www.w3.org/2000/svg">
<path d="M369.18 196.395C366.917 196.395 364.746 197.294 363.146 198.894C361.546 200.494 360.646 202.665 360.646 204.928C360.603 222.062 356.094 238.889 347.565 253.75C339.035 268.61 326.78 280.991 312.007 289.672C310.691 290.416 309.597 291.497 308.836 292.804C308.075 294.111 307.675 295.596 307.677 297.108C307.678 298.62 308.082 300.105 308.846 301.41C309.61 302.715 310.707 303.793 312.025 304.535C313.341 305.277 314.832 305.656 316.343 305.632C317.854 305.609 319.332 305.184 320.625 304.401C355.905 283.671 377.613 245.845 377.715 204.928C377.715 202.665 376.816 200.494 375.215 198.894C373.615 197.294 371.444 196.395 369.181 196.395H369.18ZM355.518 173.515C356.088 175.208 357.175 176.679 358.625 177.722C360.075 178.765 361.815 179.327 363.601 179.329C366.347 179.323 368.926 177.999 370.526 175.769C372.126 173.54 372.559 170.674 371.68 168.069C369.537 161.692 366.831 155.519 363.593 149.622C361.326 145.489 356.139 143.973 352.005 146.243C351.022 146.782 350.155 147.509 349.453 148.383C348.752 149.258 348.229 150.261 347.915 151.337C347.601 152.414 347.503 153.541 347.625 154.655C347.746 155.77 348.087 156.849 348.626 157.832C351.383 162.845 353.69 168.094 355.518 173.515Z" fill="#4E4E4E"/>
<path d="M474.27 111.818C457.166 92.9304 428.486 90.1848 408.102 105.477L396.556 114.098C390.154 104.576 382.751 95.7667 374.472 87.822C352.36 66.5092 324.592 51.9957 294.47 46.0077C295.891 42.2525 296.628 38.2732 296.646 34.2581C296.646 15.4033 281.366 0.124023 262.512 0.124023C243.66 0.124023 228.378 15.4033 228.378 34.2581C228.41 38.2668 229.161 42.237 230.589 45.9832C200.46 51.9937 172.68 66.5033 150.534 87.7975L150.434 87.934C125.633 111.673 109.003 142.667 102.936 176.458L102.628 176.29C96.246 172.802 90.6561 168.029 86.2107 162.272C81.7653 156.516 78.5607 149.901 76.799 142.844L71.9071 117.493C69.2692 103.851 57.3276 93.9971 43.4307 93.9939H9.13448C7.56012 93.993 6.01624 94.428 4.67399 95.2508C3.33174 96.0735 2.24355 97.2519 1.53004 98.6553C0.816153 100.059 0.504477 101.633 0.629478 103.203C0.754478 104.773 1.31129 106.278 2.23832 107.552L19.4675 131.173L23.4644 186.87C24.4068 201.893 28.9324 216.473 36.6627 229.389C44.3931 242.306 55.1035 253.184 67.8985 261.113L131.666 300.581C136.482 307.098 141.776 313.247 147.505 318.977C148.025 319.498 148.529 320.035 149.059 320.548C152.471 323.869 156.004 327.032 159.658 330.036C160.401 330.652 161.151 331.257 161.909 331.865C162.363 332.223 162.805 332.599 163.267 332.957H85.9362C83.673 332.957 81.5025 333.856 79.9021 335.457C78.3018 337.057 77.4027 339.228 77.4027 341.491V358.558C77.4315 382.108 96.52 401.196 120.07 401.225H401.677C425.231 401.196 444.316 382.108 444.344 358.558V341.465C444.344 339.202 443.445 337.031 441.845 335.431C440.245 333.831 438.074 332.932 435.811 332.932H361.705C361.988 332.715 362.242 332.477 362.559 332.256C364.08 331.062 365.538 329.823 367.014 328.586C369.472 326.494 371.876 324.319 374.21 322.127C375.668 320.736 377.11 319.343 378.476 317.86C380.684 315.599 382.786 313.244 384.859 310.852C386.181 309.327 387.539 307.844 388.802 306.273C390.889 303.711 392.826 300.964 394.772 298.244C396.599 295.662 398.352 293.028 400.031 290.347C401.814 287.481 403.598 284.622 405.21 281.652C406.531 279.201 407.677 276.659 408.881 274.142C409.614 272.597 410.439 271.114 411.122 269.542L461.532 233.55C467.231 229.469 471.994 224.22 475.505 218.153C479.015 212.086 481.192 205.341 481.891 198.366L486.758 149.828C487.443 142.972 486.685 136.048 484.535 129.502C482.384 122.956 478.888 116.933 474.27 111.818ZM262.511 17.1922C271.936 17.1922 279.578 24.8297 279.578 34.2592C279.578 43.6834 271.936 51.3263 262.511 51.3263C253.086 51.3263 245.444 43.6834 245.444 34.2592C245.444 24.8297 253.086 17.1922 262.511 17.1922ZM242.03 61.4086C254.091 70.7422 270.932 70.7422 282.995 61.4086C305.162 64.4663 326.296 72.706 344.684 85.4593H180.351C198.761 72.7052 219.916 64.4659 242.102 61.4086H242.03ZM427.277 358.532C427.277 372.67 415.815 384.133 401.677 384.133H120.07C105.932 384.133 94.4698 372.67 94.4698 358.532V349.999H427.277V358.532ZM464.928 196.675C464.474 201.243 463.05 205.661 460.751 209.634C458.453 213.608 455.332 217.045 451.599 219.716L417.889 243.771C417.409 242.63 416.68 241.609 415.756 240.784C414.832 239.959 413.736 239.349 412.547 239C408.018 237.709 403.298 240.33 402.002 244.855C400.339 250.516 398.327 256.069 395.976 261.48C393.445 267.355 390.529 273.056 387.248 278.547C386.273 280.193 385.36 281.865 384.319 283.468C383.084 285.372 381.76 287.189 380.422 289.035C379.08 290.876 377.655 292.889 376.155 294.753C374.864 296.38 373.518 297.953 372.159 299.531C370.452 301.508 368.693 303.439 366.885 305.324C365.569 306.701 364.227 308.052 362.859 309.377C360.752 311.399 358.578 313.349 356.338 315.222C355.092 316.289 353.879 317.381 352.6 318.407C349.507 320.868 346.31 323.197 343.017 325.386C342.488 325.736 342.001 326.136 341.471 326.486C337.896 328.815 334.158 330.932 330.379 332.957H194.627C193.322 332.265 192.068 331.461 190.806 330.728C187.689 328.953 184.601 327.135 181.63 325.139C180.009 324.041 178.476 322.844 176.896 321.727C174.201 319.736 171.538 317.714 168.983 315.548C167.388 314.198 165.863 312.789 164.325 311.381C161.985 309.223 159.709 306.995 157.501 304.702C155.975 303.102 154.484 301.469 153.026 299.801C151.02 297.497 149.122 295.11 147.258 292.676C136.342 278.51 128.151 262.44 123.1 245.284C122.799 244.196 122.284 243.179 121.587 242.291C120.89 241.404 120.024 240.663 119.039 240.112C118.053 239.562 116.969 239.212 115.847 239.084C114.726 238.956 113.59 239.051 112.506 239.365C111.422 239.678 110.41 240.204 109.531 240.911C108.651 241.618 107.92 242.493 107.381 243.484C106.842 244.476 106.505 245.565 106.389 246.687C106.274 247.81 106.382 248.945 106.708 250.025C108.687 256.702 111.111 263.239 113.961 269.593L76.8726 246.571C66.3906 240.071 57.6176 231.156 51.2871 220.571C44.9567 209.985 41.2529 198.038 40.4856 185.728L36.3148 127.519C36.1979 125.923 35.6362 124.391 34.6935 123.098L25.9221 111.06H43.4307C49.1525 111.06 54.0688 115.119 55.1569 120.735L60.1234 146.474C62.4194 155.919 66.6597 164.781 72.5736 172.495C78.4874 180.209 85.9449 186.605 94.4698 191.275L105.641 197.391C106.879 198.068 108.265 198.427 109.676 198.437C111.086 198.447 112.477 198.108 113.725 197.449C114.971 196.789 116.035 195.831 116.821 194.659C117.607 193.488 118.09 192.14 118.228 190.736C121.515 157.395 136.254 126.223 159.938 102.526H365.093C373.51 111.039 380.86 120.543 386.981 130.831C387.595 131.857 388.418 132.743 389.396 133.43C390.375 134.118 391.487 134.592 392.66 134.823C393.832 135.054 395.04 135.036 396.205 134.771C397.37 134.505 398.467 133.998 399.423 133.281L418.344 119.097C423.355 115.342 429.35 113.127 435.599 112.722C441.848 112.317 448.079 113.739 453.533 116.815C458.987 119.892 463.428 124.489 466.313 130.046C469.199 135.604 470.404 141.881 469.783 148.111L464.928 196.675Z" fill="#4E4E4E"/>
</svg>
