<svg width="30" height="30" viewBox="0 0 30 30" fill="none" xmlns="http://www.w3.org/2000/svg">
<path d="M15 30C9.14125 30 4.375 25.2337 4.375 19.375C4.37394 17.102 5.10184 14.8886 6.45178 13.0598C7.80172 11.2311 9.70254 9.88353 11.875 9.215V2.1875C11.875 2.02174 11.9408 1.86277 12.0581 1.74556C12.1753 1.62835 12.3342 1.5625 12.5 1.5625C12.6658 1.5625 12.8247 1.62835 12.9419 1.74556C13.0592 1.86277 13.125 2.02174 13.125 2.1875C13.125 2.63 13.9269 3.125 15 3.125C16.0731 3.125 16.875 2.63 16.875 2.1875C16.875 2.02174 16.9408 1.86277 17.0581 1.74556C17.1753 1.62835 17.3342 1.5625 17.5 1.5625C17.6658 1.5625 17.8247 1.62835 17.9419 1.74556C18.0592 1.86277 18.125 2.02174 18.125 2.1875V9.215C20.2975 9.88353 22.1983 11.2311 23.5482 13.0598C24.8982 14.8886 25.6261 17.102 25.625 19.375C25.625 25.2337 20.8588 30 15 30ZM13.125 3.94875V9.6875C13.125 9.82603 13.0789 9.96063 12.9941 10.0701C12.9092 10.1797 12.7904 10.2579 12.6563 10.2925C10.643 10.8123 8.85967 11.9867 7.58682 13.6309C6.31398 15.275 5.62385 17.2957 5.625 19.375C5.625 24.5444 9.83063 28.75 15 28.75C20.1694 28.75 24.375 24.5444 24.375 19.375C24.3762 17.2957 23.686 15.275 22.4132 13.6309C21.1403 11.9867 19.357 10.8123 17.3438 10.2925C17.2096 10.2579 17.0908 10.1797 17.0059 10.0701C16.9211 9.96063 16.875 9.82603 16.875 9.6875V3.94875C16.3563 4.2175 15.7094 4.375 15 4.375C14.2906 4.375 13.6444 4.2175 13.125 3.94875Z" fill="#1A9426"/>
<path d="M15 27.5C10.52 27.5 6.875 23.855 6.875 19.375C6.875 17.99 7.22813 16.6206 7.89688 15.4156C7.95931 15.3036 8.05465 15.2134 8.17001 15.1573C8.28537 15.1012 8.41517 15.0818 8.54187 15.1019C9.2975 15.2225 9.81188 15.4688 10.2663 15.6869C10.8694 15.9756 11.3906 16.2256 12.5 16.2256C13.6075 16.2256 14.1275 15.9763 14.7294 15.6875C15.3756 15.3775 16.1075 15.0256 17.5 15.0256C18.8925 15.0256 19.6237 15.3775 20.2694 15.6881C20.7969 15.9419 21.2519 16.1613 22.0963 16.2144C22.2177 16.2221 22.3343 16.2651 22.4317 16.3382C22.5291 16.4112 22.603 16.5111 22.6444 16.6256C22.9631 17.5063 23.125 18.4313 23.125 19.375C23.125 23.855 19.48 27.5 15 27.5ZM8.78125 16.4306C8.34901 17.352 8.12495 18.3573 8.125 19.375C8.125 23.1656 11.2094 26.25 15 26.25C18.7906 26.25 21.875 23.1656 21.875 19.375C21.875 18.7081 21.7794 18.0519 21.5906 17.42C20.7544 17.3081 20.2131 17.0475 19.7275 16.8144C19.1269 16.5244 18.6069 16.275 17.5 16.275C16.3925 16.275 15.8725 16.5244 15.2706 16.8131C14.6244 17.1231 13.8925 17.475 12.5 17.475C11.1069 17.475 10.3731 17.1238 9.72625 16.8138C9.41375 16.6638 9.13188 16.5288 8.78125 16.4306ZM15 4.375C13.2475 4.375 11.875 3.41375 11.875 2.1875C11.875 2.02174 11.9408 1.86277 12.0581 1.74556C12.1753 1.62835 12.3342 1.5625 12.5 1.5625C12.6658 1.5625 12.8247 1.62835 12.9419 1.74556C13.0592 1.86277 13.125 2.02174 13.125 2.1875C13.125 2.63 13.9269 3.125 15 3.125C16.0731 3.125 16.875 2.63 16.875 2.1875C16.875 2.02174 16.9408 1.86277 17.0581 1.74556C17.1753 1.62835 17.3342 1.5625 17.5 1.5625C17.6658 1.5625 17.8247 1.62835 17.9419 1.74556C18.0592 1.86277 18.125 2.02174 18.125 2.1875C18.125 3.41375 16.7525 4.375 15 4.375Z" fill="#1A9426"/>
<path d="M15.0001 4.375C13.2476 4.375 11.8751 3.41375 11.8751 2.1875C11.8751 2.02375 11.9013 1.85625 11.9532 1.68937C12.2776 0.69125 13.5288 0 15.0001 0C16.4713 0 17.7226 0.69125 18.0444 1.68187C18.0988 1.85625 18.1251 2.02375 18.1251 2.1875C18.1251 3.41375 16.7526 4.375 15.0001 4.375ZM15.0001 1.25C14.0182 1.25 13.2719 1.67437 13.1444 2.06812C13.1324 2.1068 13.1258 2.14699 13.1251 2.1875C13.1251 2.63 13.9269 3.125 15.0001 3.125C16.0732 3.125 16.8751 2.63 16.8751 2.1875C16.874 2.14436 16.8667 2.10162 16.8532 2.06062C16.7282 1.67437 15.9819 1.25 15.0001 1.25ZM12.5001 17.475C11.1069 17.475 10.3732 17.1237 9.7263 16.8137C9.29443 16.6069 8.9213 16.4281 8.34505 16.3356C8.18218 16.3086 8.0366 16.2183 7.94011 16.0843C7.84363 15.9503 7.80407 15.7836 7.83007 15.6206C7.85607 15.4576 7.94553 15.3114 8.0789 15.2141C8.21228 15.1168 8.37873 15.0762 8.54193 15.1012C9.29755 15.2219 9.81193 15.4681 10.2663 15.6862C10.8694 15.975 11.3907 16.225 12.5001 16.225C13.6076 16.225 14.1276 15.9756 14.7294 15.6869C15.3757 15.3769 16.1076 15.025 17.5001 15.025C18.8926 15.025 19.6238 15.3769 20.2694 15.6875C20.7969 15.9412 21.2519 16.1606 22.0963 16.2137C22.1783 16.219 22.2584 16.2403 22.3321 16.2764C22.4058 16.3126 22.4717 16.363 22.526 16.4246C22.5802 16.4862 22.6218 16.558 22.6484 16.6357C22.6749 16.7134 22.6859 16.7955 22.6807 16.8775C22.6755 16.9595 22.6542 17.0396 22.618 17.1133C22.5818 17.187 22.5315 17.2529 22.4698 17.3072C22.4082 17.3614 22.3365 17.403 22.2588 17.4296C22.1811 17.4561 22.0989 17.4671 22.0169 17.4619C20.9301 17.3931 20.2913 17.0856 19.7276 16.8144C19.1269 16.5244 18.6069 16.275 17.5001 16.275C16.3926 16.275 15.8726 16.5244 15.2707 16.8131C14.6244 17.1231 13.8926 17.475 12.5001 17.475ZM8.75005 3.74937C8.58429 3.74937 8.42532 3.68353 8.30811 3.56632C8.1909 3.44911 8.12505 3.29014 8.12505 3.12437V0.625C8.12505 0.45924 8.1909 0.300268 8.30811 0.183058C8.42532 0.065848 8.58429 0 8.75005 0C8.91581 0 9.07478 0.065848 9.19199 0.183058C9.3092 0.300268 9.37505 0.45924 9.37505 0.625V3.12437C9.37505 3.29014 9.3092 3.44911 9.19199 3.56632C9.07478 3.68353 8.91581 3.74937 8.75005 3.74937Z" fill="#1A9426"/>
<path d="M9.99938 2.5H7.5C7.33424 2.5 7.17527 2.43415 7.05806 2.31694C6.94085 2.19973 6.875 2.04076 6.875 1.875C6.875 1.70924 6.94085 1.55027 7.05806 1.43306C7.17527 1.31585 7.33424 1.25 7.5 1.25H9.99938C10.1651 1.25 10.3241 1.31585 10.4413 1.43306C10.5585 1.55027 10.6244 1.70924 10.6244 1.875C10.6244 2.04076 10.5585 2.19973 10.4413 2.31694C10.3241 2.43415 10.1651 2.5 9.99938 2.5ZM8.75 8.74937C8.58424 8.74937 8.42527 8.68353 8.30806 8.56632C8.19085 8.44911 8.125 8.29014 8.125 8.12437V5.625C8.125 5.45924 8.19085 5.30027 8.30806 5.18306C8.42527 5.06585 8.58424 5 8.75 5C8.91576 5 9.07473 5.06585 9.19194 5.18306C9.30915 5.30027 9.375 5.45924 9.375 5.625V8.12437C9.375 8.29014 9.30915 8.44911 9.19194 8.56632C9.07473 8.68353 8.91576 8.74937 8.75 8.74937Z" fill="#1A9426"/>
<path d="M9.99938 7.5H7.5C7.33424 7.5 7.17527 7.43415 7.05806 7.31694C6.94085 7.19973 6.875 7.04076 6.875 6.875C6.875 6.70924 6.94085 6.55027 7.05806 6.43306C7.17527 6.31585 7.33424 6.25 7.5 6.25H9.99938C10.1651 6.25 10.3241 6.31585 10.4413 6.43306C10.5585 6.55027 10.6244 6.70924 10.6244 6.875C10.6244 7.04076 10.5585 7.19973 10.4413 7.31694C10.3241 7.43415 10.1651 7.5 9.99938 7.5ZM21.2494 3.74938C21.0836 3.74938 20.9246 3.68353 20.8074 3.56632C20.6902 3.44911 20.6244 3.29014 20.6244 3.12438V0.625C20.6244 0.45924 20.6902 0.300269 20.8074 0.183058C20.9246 0.065848 21.0836 0 21.2494 0C21.4151 0 21.5741 0.065848 21.6913 0.183058C21.8085 0.300269 21.8744 0.45924 21.8744 0.625V3.12438C21.8744 3.29014 21.8085 3.44911 21.6913 3.56632C21.5741 3.68353 21.4151 3.74938 21.2494 3.74938Z" fill="#1A9426"/>
<path d="M22.4994 2.5H20C19.8342 2.5 19.6753 2.43415 19.5581 2.31694C19.4408 2.19973 19.375 2.04076 19.375 1.875C19.375 1.70924 19.4408 1.55027 19.5581 1.43306C19.6753 1.31585 19.8342 1.25 20 1.25H22.4994C22.6651 1.25 22.8241 1.31585 22.9413 1.43306C23.0585 1.55027 23.1244 1.70924 23.1244 1.875C23.1244 2.04076 23.0585 2.19973 22.9413 2.31694C22.8241 2.43415 22.6651 2.5 22.4994 2.5ZM21.2494 8.74937C21.0836 8.74937 20.9246 8.68353 20.8074 8.56632C20.6902 8.44911 20.6244 8.29014 20.6244 8.12437V5.625C20.6244 5.45924 20.6902 5.30027 20.8074 5.18306C20.9246 5.06585 21.0836 5 21.2494 5C21.4151 5 21.5741 5.06585 21.6913 5.18306C21.8085 5.30027 21.8744 5.45924 21.8744 5.625V8.12437C21.8744 8.29014 21.8085 8.44911 21.6913 8.56632C21.5741 8.68353 21.4151 8.74937 21.2494 8.74937Z" fill="#1A9426"/>
<path d="M22.4994 7.5H20C19.8342 7.5 19.6753 7.43415 19.5581 7.31694C19.4408 7.19973 19.375 7.04076 19.375 6.875C19.375 6.70924 19.4408 6.55027 19.5581 6.43306C19.6753 6.31585 19.8342 6.25 20 6.25H22.4994C22.6651 6.25 22.8241 6.31585 22.9413 6.43306C23.0585 6.55027 23.1244 6.70924 23.1244 6.875C23.1244 7.04076 23.0585 7.19973 22.9413 7.31694C22.8241 7.43415 22.6651 7.5 22.4994 7.5Z" fill="#1A9426"/>
</svg>
