<svg width="412" height="482" viewBox="0 0 412 482" fill="none" xmlns="http://www.w3.org/2000/svg">
<path d="M410.307 76.6605C410.274 74.555 409.592 72.511 408.355 70.8069C407.119 69.1028 405.386 67.8214 403.395 67.1373L208.835 0.577277C206.683 -0.192426 204.331 -0.192426 202.179 0.577277L7.61895 67.1373C5.62748 67.8214 3.89531 69.1028 2.65844 70.8069C1.42157 72.511 0.740124 74.555 0.706946 76.6605L0.194944 106.868C-1.34106 199.899 6.18535 266.664 23.2861 311.054C36.1082 344.478 55.4436 375.022 80.1693 400.91C109.748 430.991 144.799 455.147 183.44 472.078L201.257 480.219C202.591 480.827 204.041 481.142 205.507 481.142C206.973 481.142 208.422 480.827 209.757 480.219L227.574 472.078C266.215 455.147 301.266 430.991 330.845 400.91C355.594 375.011 374.948 344.449 387.779 311.003C404.88 266.612 412.406 199.848 410.87 106.817L410.307 76.6605ZM368.681 303.63C356.833 334.567 338.941 362.833 316.048 386.779C288.246 414.901 255.356 437.488 219.126 453.339L205.507 459.636L191.888 453.441C155.658 437.591 122.768 415.004 94.9661 386.881C72.0618 362.906 54.1684 334.603 42.3325 303.63C26.3069 261.748 19.0877 197.492 20.6237 107.38L20.9821 84.3405L205.507 20.9037L389.827 84.1357L390.185 107.176C391.926 197.492 384.707 261.748 368.681 303.63Z" fill="#4E4E4E"/>
<path d="M359.107 112.501C359.084 110.386 358.407 108.331 357.17 106.617C355.932 104.902 354.194 103.613 352.195 102.926L208.835 53.7742C206.674 53.0557 204.339 53.0557 202.179 53.7742L58.8187 102.926C56.8191 103.613 55.0812 104.902 53.8436 106.617C52.606 108.331 51.9294 110.386 51.9067 112.501V113.473C50.5243 194.677 57.0267 256.526 70.9019 292.366C81.0494 318.928 96.4029 343.194 116.06 363.739C140.295 388.373 169.001 408.165 200.643 422.056L201.257 422.312C202.578 422.964 204.034 423.297 205.507 423.285C206.973 423.285 208.422 422.971 209.756 422.363L210.371 422.056C242.032 408.237 270.773 388.515 295.056 363.944C314.713 343.399 330.066 319.133 340.214 292.571C353.987 256.731 360.694 194.881 359.209 113.729L359.107 112.501ZM320.963 285.045C311.738 309.06 297.812 330.992 280.003 349.557C258.585 371.374 233.331 389.06 205.507 401.729C177.607 389.148 152.266 371.531 130.755 349.761C112.945 331.197 99.0199 309.264 89.7947 285.249C77.5067 252.686 71.2603 195.752 72.3867 120.181L205.507 74.5102L338.627 120.181C339.753 195.701 333.507 252.686 321.065 285.249L320.963 285.045Z" fill="#4E4E4E"/>
</svg>
