<svg width="412" height="482" viewBox="0 0 412 482" fill="none" xmlns="http://www.w3.org/2000/svg">
<path d="M410.799 77.16C410.766 75.0546 410.085 73.0105 408.848 71.3064C407.611 69.6023 405.879 68.3209 403.887 67.6368L209.327 1.07679C207.175 0.307086 204.823 0.307086 202.671 1.07679L8.11114 67.6368C6.11966 68.3209 4.3875 69.6023 3.15063 71.3064C1.91375 73.0105 1.23231 75.0546 1.19913 77.16L0.687131 107.368C-0.848869 200.398 6.67753 267.163 23.7783 311.554C36.6004 344.978 55.9358 375.521 80.6615 401.41C110.24 431.491 145.291 455.646 183.932 472.578L201.75 480.718C203.084 481.327 204.533 481.642 205.999 481.642C207.465 481.642 208.915 481.327 210.249 480.718L228.066 472.578C266.707 455.646 301.758 431.491 331.337 401.41C356.087 375.51 375.44 344.949 388.271 311.502C405.372 267.112 412.898 200.347 411.362 107.317L410.799 77.16ZM369.174 304.13C357.326 335.067 339.433 363.333 316.54 387.278C288.738 415.401 255.848 437.988 219.618 453.838L205.999 460.136L192.38 453.941C156.15 438.09 123.26 415.503 95.4583 387.381C72.554 363.405 54.6606 335.103 42.8247 304.13C26.7991 262.248 19.5799 197.992 21.1159 107.88L21.4743 84.84L205.999 21.4032L390.319 84.6352L390.678 107.675C392.418 197.992 385.199 262.248 369.174 304.13Z" fill="#1A9426"/>
<path d="M359.599 113C359.576 110.886 358.9 108.83 357.662 107.116C356.424 105.402 354.687 104.113 352.687 103.426L209.327 54.2737C207.166 53.5553 204.831 53.5553 202.671 54.2737L59.3109 103.426C57.3113 104.113 55.5734 105.402 54.3358 107.116C53.0982 108.83 52.4216 110.886 52.3989 113V113.973C51.0165 195.176 57.5189 257.026 71.3941 292.866C81.5416 319.428 96.8951 343.694 116.553 364.238C140.787 388.872 169.493 408.664 201.135 422.555L201.749 422.811C203.07 423.463 204.526 423.796 205.999 423.784C207.465 423.785 208.914 423.47 210.249 422.862L210.863 422.555C242.524 408.736 271.265 389.015 295.548 364.443C315.205 343.898 330.559 319.632 340.706 293.07C354.479 257.23 361.186 195.381 359.701 114.229L359.599 113ZM321.455 285.544C312.23 309.559 298.304 331.491 280.495 350.056C259.077 371.873 233.823 389.559 205.999 402.229C178.099 389.648 152.759 372.031 131.247 350.261C113.437 331.696 99.5121 309.764 90.2869 285.749C77.9989 253.186 71.7525 196.251 72.8789 120.68L205.999 75.0097L339.119 120.68C340.245 196.2 333.999 253.186 321.557 285.749L321.455 285.544Z" fill="#1A9426"/>
</svg>
