<svg width="10" height="10" viewBox="0 0 10 10" fill="none" xmlns="http://www.w3.org/2000/svg">
<g clip-path="url(#clip0_2069_2)">
<path d="M9.9945 1.33267C10.0069 1.27787 9.99976 1.2199 9.97446 1.17078C9.94915 1.12166 9.90767 1.08516 9.85861 1.06885L8.89899 0.749523C8.78402 0.711249 8.66357 0.793668 8.64416 0.925123C8.55763 1.51126 8.42783 2.01439 8.29975 2.41376C8.21219 2.68681 8.12546 2.91122 8.05387 3.08055C7.87397 3.01049 7.68884 2.9716 7.50284 2.9716C7.05718 2.9716 6.60673 3.19427 6.21257 3.74319C5.96095 4.0936 4.9482 6.87209 3.72326 7.46705C3.14339 7.7487 2.57001 7.84823 2.0494 7.84823C1.37101 7.84823 0.782155 7.67932 0.384367 7.52421C0.201887 7.45305 0.0424112 7.68318 0.154403 7.85839C0.587718 8.53635 1.53351 9.60069 3.32573 9.93252C3.56909 9.9775 3.81542 10.0001 4.06217 9.99994C6.20131 9.99994 8.12033 8.32799 8.97068 6.78349C9.50055 5.82105 9.71094 4.70097 9.07752 3.87155C9.19875 3.66549 9.30848 3.4392 9.40675 3.20764C9.71699 2.47674 9.91292 1.69389 9.9945 1.33267Z" fill="white"/>
</g>
<defs>
<clipPath id="clip0_2069_2">
<rect width="10" height="10" fill="white"/>
</clipPath>
</defs>
</svg>
