<svg width="440" height="440" viewBox="0 0 440 440" fill="none" xmlns="http://www.w3.org/2000/svg">
<path d="M110.485 367.527L95.6599 340.42L80.8349 367.527C80.3762 368.366 79.6866 369.055 78.8479 369.514L51.7409 384.34L78.8479 399.165C79.6866 399.624 80.3762 400.313 80.8349 401.152L95.6599 428.259L110.485 401.152C110.944 400.313 111.633 399.624 112.472 399.165L139.579 384.34L112.472 369.515C111.633 369.056 110.944 368.366 110.485 367.527ZM235.295 175.373C234.456 174.914 233.767 174.225 233.308 173.386L204.34 120.42L175.373 173.385C174.914 174.224 174.225 174.913 173.386 175.372L120.42 204.34L173.385 233.308C174.224 233.767 174.913 234.456 175.372 235.295L204.339 288.26L233.307 235.295C233.766 234.456 234.455 233.767 235.294 233.308L288.259 204.34L235.295 175.373ZM61.1519 59.165L88.2589 44.34L61.1519 29.515C60.3132 29.0563 59.6236 28.3667 59.1649 27.528L44.3399 0.420044L29.5149 27.527C29.0562 28.3657 28.3666 29.0553 27.5279 29.514L0.419922 44.34L27.5269 59.165C28.3656 59.6238 29.0552 60.3134 29.5139 61.152L44.3389 88.259L59.1639 61.152C59.6233 60.3135 60.3131 59.624 61.1519 59.165ZM340.485 378.848L325.66 351.74L310.835 378.847C310.376 379.686 309.687 380.375 308.848 380.834L281.74 395.66L308.847 410.485C309.686 410.944 310.375 411.633 310.834 412.472L325.659 439.579L340.484 412.472C340.943 411.633 341.632 410.944 342.471 410.485L369.578 395.66L342.471 380.835C341.633 380.376 340.944 379.686 340.485 378.848ZM412.473 119.515C411.634 119.056 410.945 118.367 410.486 117.528L395.66 90.42L380.835 117.527C380.376 118.366 379.687 119.055 378.848 119.514L351.74 134.34L378.847 149.165C379.686 149.624 380.375 150.313 380.834 151.152L395.659 178.259L410.484 151.152C410.943 150.313 411.632 149.624 412.471 149.165L439.578 134.34L412.473 119.515Z" fill="#009CD8"/>
</svg>
