<svg width="496" height="496" viewBox="0 0 496 496" fill="none" xmlns="http://www.w3.org/2000/svg">
<path d="M360 0C333.102 0 306.808 7.97626 284.442 22.9201C262.077 37.864 244.646 59.1043 234.352 83.9551C224.059 108.806 221.366 136.151 226.613 162.532C231.861 188.914 244.814 213.147 263.833 232.167C282.853 251.186 307.086 264.139 333.468 269.387C359.849 274.634 387.194 271.941 412.045 261.648C436.896 251.354 458.136 233.923 473.08 211.558C488.024 189.192 496 162.898 496 136C495.96 99.9429 481.618 65.3741 456.122 39.8779C430.626 14.3817 396.057 0.0402317 360 0ZM360 256C336.266 256 313.065 248.962 293.332 235.776C273.598 222.591 258.217 203.849 249.134 181.922C240.052 159.995 237.676 135.867 242.306 112.589C246.936 89.3114 258.365 67.9295 275.147 51.1472C291.929 34.3649 313.311 22.936 336.589 18.3058C359.867 13.6755 383.995 16.0519 405.922 25.1345C427.849 34.217 446.591 49.5977 459.776 69.3316C472.962 89.0655 480 112.266 480 136C479.964 167.815 467.31 198.316 444.813 220.813C422.316 243.31 391.815 255.964 360 256ZM110.264 0H97.736C71.8148 0 46.9553 10.2972 28.6262 28.6262C10.2972 46.9553 0 71.8148 0 97.736V328C0 334.365 2.52856 340.47 7.02944 344.971C11.5303 349.471 17.6348 352 24 352H72V464C72 472.487 75.3714 480.626 81.3726 486.627C87.3737 492.629 95.5131 496 104 496C112.487 496 120.626 492.629 126.627 486.627C132.629 480.626 136 472.487 136 464V352H184C190.365 352 196.47 349.471 200.971 344.971C205.471 340.47 208 334.365 208 328V97.736C208 71.8148 197.703 46.9553 179.374 28.6262C161.045 10.2972 136.185 0 110.264 0ZM28.424 54.4C35.7399 42.6163 45.9501 32.9012 58.0826 26.1796C70.2151 19.458 83.8661 15.9536 97.736 16H110.264C131.941 16.0021 152.73 24.6143 168.058 39.9423C183.386 55.2703 191.998 76.0589 192 97.736V256H16V97.736C15.9897 82.4106 20.2953 67.392 28.424 54.4ZM120 464C120 468.243 118.314 472.313 115.314 475.314C112.313 478.314 108.243 480 104 480C99.7565 480 95.6869 478.314 92.6863 475.314C89.6857 472.313 88 468.243 88 464V352H120V464ZM184 336H24C21.8783 336 19.8434 335.157 18.3431 333.657C16.8429 332.157 16 330.122 16 328V272H192V328C192 330.122 191.157 332.157 189.657 333.657C188.157 335.157 186.122 336 184 336Z" fill="#009CD8"/>
<path d="M72 240C78.3652 240 84.4697 237.471 88.9706 232.971C93.4714 228.47 96 222.365 96 216V72C96 65.6348 93.4714 59.5303 88.9706 55.0294C84.4697 50.5286 78.3652 48 72 48C65.6348 48 59.5303 50.5286 55.0294 55.0294C50.5286 59.5303 48 65.6348 48 72V216C48 222.365 50.5286 228.47 55.0294 232.971C59.5303 237.471 65.6348 240 72 240ZM64 72C64 69.8783 64.8429 67.8434 66.3431 66.3431C67.8434 64.8429 69.8783 64 72 64C74.1217 64 76.1566 64.8429 77.6569 66.3431C79.1571 67.8434 80 69.8783 80 72V216C80 218.122 79.1571 220.157 77.6569 221.657C76.1566 223.157 74.1217 224 72 224C69.8783 224 67.8434 223.157 66.3431 221.657C64.8429 220.157 64 218.122 64 216V72ZM136 240C142.365 240 148.47 237.471 152.971 232.971C157.471 228.47 160 222.365 160 216V72C160 65.6348 157.471 59.5303 152.971 55.0294C148.47 50.5286 142.365 48 136 48C129.635 48 123.53 50.5286 119.029 55.0294C114.529 59.5303 112 65.6348 112 72V216C112 222.365 114.529 228.47 119.029 232.971C123.53 237.471 129.635 240 136 240ZM128 72C128 69.8783 128.843 67.8434 130.343 66.3431C131.843 64.8429 133.878 64 136 64C138.122 64 140.157 64.8429 141.657 66.3431C143.157 67.8434 144 69.8783 144 72V216C144 218.122 143.157 220.157 141.657 221.657C140.157 223.157 138.122 224 136 224C133.878 224 131.843 223.157 130.343 221.657C128.843 220.157 128 218.122 128 216V72ZM360 32C339.431 32 319.323 38.0995 302.221 49.5272C285.118 60.9548 271.788 77.1974 263.917 96.2009C256.045 115.204 253.985 136.115 257.998 156.289C262.011 176.463 271.916 194.994 286.461 209.539C301.006 224.084 319.537 233.989 339.711 238.002C359.885 242.015 380.796 239.955 399.799 232.083C418.803 224.212 435.045 210.882 446.473 193.779C457.901 176.677 464 156.569 464 136C463.968 108.427 453.001 81.9929 433.504 62.496C414.007 42.9991 387.573 32.0318 360 32ZM360 224C342.595 224 325.581 218.839 311.11 209.169C296.638 199.5 285.359 185.756 278.699 169.676C272.038 153.596 270.295 135.902 273.691 118.832C277.086 101.762 285.468 86.0816 297.775 73.7746C310.082 61.4676 325.762 53.0864 342.832 49.6909C359.902 46.2954 377.596 48.0381 393.676 54.6986C409.756 61.3591 423.5 72.6383 433.169 87.1098C442.839 101.581 448 118.595 448 136C447.972 159.331 438.692 181.698 422.195 198.195C405.698 214.692 383.331 223.972 360 224Z" fill="#009CD8"/>
<path d="M360 64C345.76 64 331.839 68.2227 319.999 76.1342C308.159 84.0456 298.93 95.2905 293.481 108.447C288.031 121.603 286.605 136.08 289.383 150.047C292.162 164.013 299.019 176.842 309.088 186.912C319.158 196.981 331.987 203.838 345.954 206.617C359.92 209.395 374.397 207.969 387.553 202.519C400.71 197.07 411.954 187.841 419.866 176.001C427.777 164.161 432 150.24 432 136C431.979 116.911 424.386 98.6097 410.888 85.1117C397.39 71.6137 379.089 64.0212 360 64ZM368 80.64C377.243 81.9643 386.003 85.5961 393.472 91.2L368 116.688V80.64ZM352 116.688L326.528 91.2C333.997 85.5961 342.757 81.9643 352 80.64V116.688ZM340.688 128H304.64C305.964 118.757 309.596 109.997 315.2 102.528L340.688 128ZM340.688 144L315.2 169.472C309.596 162.003 305.964 153.243 304.64 144H340.688ZM352 155.312V191.36C342.757 190.036 333.997 186.404 326.528 180.8L352 155.312ZM368 155.312L393.472 180.8C386.003 186.404 377.243 190.036 368 191.36V155.312ZM379.312 144H415.36C414.036 153.243 410.404 162.003 404.8 169.472L379.312 144ZM379.312 128L404.8 102.528C410.404 109.997 414.036 118.757 415.36 128H379.312Z" fill="#009CD8"/>
</svg>
