<svg width="409" height="405" viewBox="0 0 409 405" fill="none" xmlns="http://www.w3.org/2000/svg">
<path d="M253.009 15.3353C248.609 23.8686 236.876 46.2686 226.743 64.9353C216.743 83.6019 203.809 107.869 198.076 118.935C186.209 141.735 179.543 154.402 173.543 164.935C168.743 173.602 168.609 175.202 172.076 189.202C176.476 206.402 177.409 212.669 176.076 216.135C175.009 219.202 166.209 226.269 163.543 226.269C162.876 226.269 156.609 220.669 149.543 213.869C142.476 207.069 133.409 198.535 129.409 195.069C125.409 191.469 116.609 183.335 110.076 177.069C103.409 170.802 87.276 155.735 74.076 143.602C60.876 131.469 43.4094 115.335 35.4094 107.602C18.6094 91.7353 1.1427 75.6019 0.476033 75.6019C-0.723967 75.6019 0.476033 80.9353 2.60937 85.7353C4.60937 90.0019 25.276 116.402 33.5427 124.935C38.2094 129.869 89.676 195.202 108.609 220.269C118.076 232.669 127.143 244.402 128.876 246.402C133.809 251.602 133.009 256.002 126.209 261.602C123.009 264.269 119.943 267.202 119.543 268.269C118.609 270.802 131.276 374.135 135.543 399.202C137.009 407.335 137.543 407.069 162.209 386.269C168.743 380.802 177.809 373.202 182.343 369.602C189.276 364.002 222.209 336.402 233.409 326.802C251.809 310.935 251.009 311.335 256.209 315.335C259.543 317.869 268.876 323.469 278.609 328.669C284.343 331.602 284.609 331.735 286.876 329.335C288.209 328.002 293.409 318.802 298.476 308.935C318.209 270.669 329.143 249.335 332.343 243.602C334.209 240.269 340.343 228.535 346.076 217.602C351.809 206.535 356.876 196.935 357.409 196.269C357.943 195.469 362.209 187.735 366.743 178.935C377.409 158.669 381.009 153.069 383.676 152.002C385.009 151.469 390.343 153.469 396.876 157.069C403.009 160.269 408.209 162.535 408.609 162.135C409.009 161.735 408.076 158.135 406.609 154.135C405.143 150.135 402.743 143.869 401.409 140.269C400.076 136.535 397.676 130.269 396.209 126.269C394.609 122.269 393.409 118.802 393.409 118.669C393.409 118.402 392.076 118.269 390.476 118.269C385.543 118.269 378.209 123.735 370.476 132.935C366.609 137.735 357.409 148.802 350.076 157.602C342.876 166.402 334.076 176.669 330.743 180.269C327.409 184.002 321.409 191.202 317.409 196.135C295.409 223.469 292.209 226.002 287.543 218.935C284.876 214.802 285.009 214.402 299.276 192.802C305.943 182.802 309.409 176.269 309.409 173.735C309.409 171.735 306.209 158.535 302.209 144.402C298.209 130.402 292.743 110.802 290.076 100.935C287.409 91.0686 281.143 67.8686 276.076 49.6019C271.143 31.2019 266.209 12.6686 265.143 8.40194C264.209 4.00194 262.876 0.268607 262.076 0.00194018C261.409 -0.131393 257.276 6.66861 253.009 15.3353Z" fill="#C9332B"/>
</svg>
