<svg width="456" height="512" viewBox="0 0 456 512" fill="none" xmlns="http://www.w3.org/2000/svg">
<path d="M379.075 390.053C379.075 398.89 371.912 406.053 363.075 406.053H349.283V419.844C349.283 428.681 342.12 435.844 333.283 435.844C324.446 435.844 317.283 428.681 317.283 419.844V406.053H303.492C294.655 406.053 287.492 398.89 287.492 390.053C287.492 381.216 294.655 374.053 303.492 374.053H317.283V360.261C317.283 351.424 324.446 344.261 333.283 344.261C342.12 344.261 349.283 351.424 349.283 360.261V374.053H363.075C371.912 374.053 379.075 381.216 379.075 390.053ZM455.231 390.052C455.231 457.294 400.526 512 333.284 512C316.357 512 300.226 508.53 285.561 502.27C278.806 508.38 269.906 512 260.464 512H38.1895C17.5555 512 0.769531 495.212 0.769531 474.577V201.436C0.769531 173.793 19.5095 150.458 44.9475 143.43V98.943H36.8575C28.0205 98.943 20.8575 91.78 20.8575 82.943V49.472C20.8575 22.193 43.0515 0 70.3295 0H228.324C255.602 0 277.796 22.193 277.796 49.472V82.944C277.796 91.781 270.633 98.944 261.796 98.944H253.706V143.43C279.144 150.458 297.884 173.793 297.884 201.436V273.35C309.36 269.864 321.289 268.096 333.284 268.104C400.526 268.104 455.231 322.81 455.231 390.052ZM265.884 288.475V272.337H94.4515V380.921H211.677C214.544 342.372 235.414 308.76 265.884 288.475ZM52.8575 66.943H245.796V49.472C245.796 39.838 237.958 32 228.324 32H70.3295C60.6955 32 52.8575 39.838 52.8575 49.472V66.943ZM76.9475 98.943V141.252H221.706V98.943H76.9475ZM251.029 480C232.006 462.59 218.51 439.241 213.496 412.921H78.4515C69.6145 412.921 62.4515 405.758 62.4515 396.921V256.337C62.4515 247.5 69.6145 240.337 78.4515 240.337H265.884V201.436C265.884 185.895 253.241 173.252 237.7 173.252H60.9525C45.4125 173.252 32.7695 185.895 32.7695 201.436V474.578C32.7695 477.517 35.2515 480.001 38.1895 480.001H251.029V480ZM423.231 390.052C423.231 340.454 382.881 300.104 333.284 300.104C283.687 300.104 243.336 340.455 243.336 390.052C243.336 439.649 283.687 480 333.284 480C382.881 480 423.231 439.649 423.231 390.052Z" fill="#1A9426"/>
</svg>
