<svg width="390" height="512" viewBox="0 0 390 512" fill="none" xmlns="http://www.w3.org/2000/svg">
<path d="M330.078 206.36L357.832 163.129C379.282 130.859 381.25 89.605 362.957 55.441C344.652 21.242 309.187 0 270.395 0H119.605C80.813 0 45.348 21.242 27.043 55.438C8.75 89.605 10.715 130.858 32.164 163.132L59.922 206.358C21.688 243.066 0 293.61 0 347C0 412.453 32.629 473.2 87.281 509.496L91.055 512H298.945L302.719 509.496C357.37 473.2 390 412.453 390 347C390 293.61 368.313 243.066 330.078 206.36ZM289.785 482H100.215C56.16 451.035 30 400.902 30 347C30 298.066 51.531 251.953 89.07 220.484L99.195 212L57.203 146.602C49.661 135.309 45.3315 122.178 44.678 108.614C44.0245 95.05 47.0716 81.5636 53.493 69.598C59.8875 57.6243 69.4171 47.6144 81.0622 40.6394C92.7074 33.6644 106.03 29.9868 119.604 30H270.394C283.969 29.9862 297.292 33.6641 308.938 40.6399C320.584 47.6157 330.113 57.6269 336.507 69.602C342.928 81.567 345.975 95.0528 345.321 108.616C344.668 122.18 340.338 135.31 332.796 146.602L290.805 212L300.93 220.484C338.469 251.954 360 298.066 360 347C360 400.902 333.84 451.035 289.785 482Z" fill="#2225C2"/>
<path d="M310.059 83.754C302.098 68.879 287.269 60 270.395 60H119.605C102.73 60 87.9023 68.879 79.9303 83.773C72.0003 98.629 72.8093 115.843 82.0863 129.848L125.238 196.93L136.598 192.629C155.23 185.574 174.878 182 195 182C215.122 182 234.77 185.574 253.402 192.629L264.758 196.929L307.91 129.848C317.191 115.844 318 98.628 310.059 83.754ZM282.875 113.32L252.453 160.605C233.914 154.891 214.645 152 195 152C175.355 152 156.086 154.89 137.547 160.605L107.125 113.32C103.012 107.152 104.461 101.527 106.387 97.914C108.32 94.304 112.184 90 119.605 90H270.395C277.816 90 281.68 94.305 283.602 97.898C285.539 101.528 286.988 107.152 282.875 113.32Z" fill="#2225C2"/>
</svg>
