<svg width="512" height="512" viewBox="0 0 512 512" fill="none" xmlns="http://www.w3.org/2000/svg">
<g clip-path="url(#clip0_2040_161)">
<path d="M256 150C297.421 150 331 116.421 331 75C331 33.5786 297.421 0 256 0C214.579 0 181 33.5786 181 75C181 116.421 214.579 150 256 150Z" fill="#1A9426"/>
<path d="M481 452C481 418.938 454.179 392.029 420.238 392.029H420.165C396.112 393.596 266.21 457.346 217.797 483.845L166.352 512H421C454.091 512 481 485.091 481 452ZM475.374 335.281C429.802 298.836 416.137 257.459 406 205.67C406 174.925 381.076 150 350.33 150H161.67C130.925 150 106 174.924 106 205.67C96.167 255.903 83.509 297.789 36.624 335.282L0 362H46C95.365 362 144.408 338.343 176.049 301.546L192.801 399.877C214.895 410.146 236.946 420.947 255.952 430.481C275.015 420.892 297.127 410.023 319.2 399.706L337.62 295.598C369.408 337.317 415.961 362 466 362H512L475.374 335.281ZM91.835 392.029H91.762C57.821 392.029 31 418.938 31 452C31 485.091 57.909 512 91 512H98.998C102.113 510.374 226.027 445.701 222.913 447.325C168.913 420.845 107.617 393.058 91.835 392.029Z" fill="#1A9426"/>
</g>
<defs>
<clipPath id="clip0_2040_161">
<rect width="512" height="512" fill="white"/>
</clipPath>
</defs>
</svg>
